<?xml version="1.0" encoding="iso-8859-1"?>
<!-- Generator: Adobe Illustrator 19.0.0, SVG Export Plug-In . SVG Version: 6.00 Build 0)  -->
<svg version="1.1" id="Capa_1" xmlns="http://www.w3.org/2000/svg" xmlns:xlink="http://www.w3.org/1999/xlink" x="0px" y="0px"
	 viewBox="0 0 512 512" style="enable-background:new 0 0 512 512;" xml:space="preserve">
<path style="fill:#5EAC24;" d="M382.276,32.064c-1.405,2.589-3.02,5.408-4.826,8.399c-17.991,29.812-55.53,75.97-110.588,63.848
	c-1.104-0.241-2.218-0.512-3.341-0.803c-2.198-0.562-4.415-1.224-6.663-1.977c-0.803-0.271-1.605-0.562-2.418-0.853
	c0,0,0.331-2.569,1.335-6.823c0.281-1.184,0.612-2.509,1.003-3.933c6.884-25.126,32.22-84.87,116.167-75.628
	C381.504,15.226,386.4,24.498,382.276,32.064z"/>
<path style="fill:#6DC82A;" d="M377.45,40.462c-17.991,29.812-55.53,75.97-110.588,63.848c-1.104-0.241-2.218-0.512-3.341-0.803
	c-2.198-0.562-4.415-1.224-6.663-1.977C283.067,72.02,324.92,41.787,377.45,40.462z"/>
<path style="fill:#5EAC24;" d="M445.352,363.947c-6.966,11.14-64.902,103.793-70.431,112.635
	c-19.831,28.549-66.066,36.62-98.717,17.46c-12.523-7.365-27.996-7.365-40.518,0c-32.417,19.069-78.781,11.257-98.717-17.46
	L66.538,363.947c-43.412-69.437-24.777-145.681,14.74-186.216c0,0,0-0.01,0.01-0.01c43.335-44.442,116.962-50.614,164.131-17.841
	c6.24,4.696,14.811,4.696,21.052,0c57.392-39.876,158.721-24.381,193.29,64.039C477.224,268.598,474.056,318.036,445.352,363.947z"
	/>
<path style="fill:#6DC82A;" d="M445.352,363.947l-57.105,91.322c-23.002,20.164-61.46,23.614-89.466,7.164
	c-12.523-7.365-27.996-7.365-40.518,0c-32.418,19.069-78.788,11.247-98.717-17.46L89.115,332.339
	c-32.183-51.476-32.038-107.653-7.837-154.608c0,0,0-0.01,0.01-0.01c43.157-44.26,116.724-50.779,164.131-17.841
	c6.24,4.696,14.811,4.696,21.052,0c57.392-39.876,158.721-24.381,193.29,64.039C477.224,268.598,474.056,318.036,445.352,363.947z"
	/>
<path d="M72.919,359.955c-26.641-42.606-30.914-89.464-13.779-133.291c13.479-34.479,36.738-58.376,69.134-71.031
	c3.871-1.512,5.785-5.876,4.272-9.748c-1.512-3.871-5.875-5.784-9.748-4.272c-80.07,31.276-118.23,137.418-62.641,226.321
	l51.187,81.865c1.428,2.284,3.88,3.537,6.389,3.537c1.363,0,2.741-0.37,3.983-1.146c3.524-2.204,4.595-6.847,2.391-10.37
	L72.919,359.955z"/>
<path d="M423.373,399.093c-3.524-2.204-8.168-1.132-10.37,2.391l-44.36,70.945c-17.588,25.117-59.338,32.321-88.625,15.119
	c-14.867-8.733-33.258-8.747-48.146,0c-29.266,17.193-71.024,10.017-88.625-15.119l-3.18-5.086
	c-2.204-3.525-6.847-4.596-10.37-2.391c-3.524,2.204-4.595,6.846-2.391,10.37c3.533,5.645,3.302,5.293,3.48,5.55
	c22.127,31.859,72.748,40.78,108.71,19.654c10.165-5.97,22.719-5.979,32.9,0c12.778,7.506,27.837,11.473,43.55,11.473
	c26.858,0,51.825-11.928,65.161-31.127c0.069-0.099,0.135-0.201,0.2-0.303l44.459-71.104
	C427.967,405.94,426.897,401.297,423.373,399.093z"/>
<path d="M466.767,221.182c-36.285-92.815-141.469-109.137-202.328-68.984c0.555-4.108,2.293-20.165-0.653-40.872
	c7.032,1.657,14.025,2.502,20.896,2.502c25.594,0,49.697-11.258,71.637-33.462c2.921-2.956,2.893-7.721-0.063-10.642
	c-2.957-2.922-7.721-2.893-10.642,0.063c-19.007,19.236-39.507,28.99-60.93,28.99c-4.025,0-8.117-0.361-12.249-1.055
	c19.708-12.718,53.43-33.885,71.632-41.967c3.803-1.696,5.509-6.141,3.823-9.934c-1.686-3.803-6.131-5.509-9.924-3.823
	c-18.537,8.224-50.949,28.426-71.236,41.471c2.449-6.827,6.039-14.862,11.248-22.831c21.399-32.738,55.108-43.16,94.146-38.868
	c2.672,0.294,4.114,2.557,4.114,4.537c0,0.739-0.191,1.463-0.566,2.151c-3.615,6.632-7.575,13.056-11.768,19.094
	c-2.37,3.414-1.525,8.104,1.889,10.474c3.414,2.369,8.104,1.524,10.474-1.889c4.5-6.481,8.746-13.37,12.62-20.474
	c6.636-12.175-1.142-27.317-15.118-28.855c-44.706-4.915-84.257,8.229-108.727,46.113c-4.882,7.558-8.487,15.092-11.139,21.843
	c-11.35-27.218-34.336-57.631-80.79-74.318c-3.913-1.405-8.218,0.622-9.623,4.535c-1.405,3.913,0.622,8.218,4.535,9.633
	c45.178,16.223,71.787,48.517,79.833,92.616c5.036,27.19,0.917,42.844,1.647,46.333c-27.416-18.975-63.169-25.453-96.118-20.218
	c-4.105,0.652-6.904,4.509-6.251,8.613c0.652,4.104,4.502,6.898,8.613,6.251c29.013-4.61,60.919,0.891,85.264,17.774
	c8.819,6.557,20.947,6.631,29.864,0c51.175-35.488,148.102-25.707,181.872,60.677c32.108,82.127-20.768,141.529-23.788,149.298
	c-2.204,3.524-1.133,8.167,2.391,10.37c3.517,2.199,8.163,1.14,10.37-2.391C444.561,376.441,501.881,310.999,466.767,221.182z"/>
<g>
</g>
<g>
</g>
<g>
</g>
<g>
</g>
<g>
</g>
<g>
</g>
<g>
</g>
<g>
</g>
<g>
</g>
<g>
</g>
<g>
</g>
<g>
</g>
<g>
</g>
<g>
</g>
<g>
</g>
</svg>
