<?xml version="1.0" encoding="UTF-8"?><svg xmlns="http://www.w3.org/2000/svg" xmlns:xlink="http://www.w3.org/1999/xlink" contentScriptType="text/ecmascript" width="375pt" zoomAndPan="magnify" contentStyleType="text/css" viewBox="0 0 375 374.999991" height="374.999991pt" preserveAspectRatio="xMidYMid meet" version="1.2"><defs><clipPath xml:id="clip1" id="clip1"><path d="M 26.535156 76 L 348.988281 76 L 348.988281 360.40625 L 26.535156 360.40625 Z M 26.535156 76 "/></clipPath><clipPath xml:id="clip2" id="clip2"><path d="M 80.054688 97.730469 L 295 97.730469 L 295 375 L 80.054688 375 Z M 80.054688 97.730469 "/></clipPath></defs><g xml:id="surface1" id="surface1"><g clip-rule="nonzero" clip-path="url(#clip1)"><path style=" stroke:none;fill-rule:nonzero;fill:rgb(100%,100%,100%);fill-opacity:1;" d="M 167.773438 89.179688 C 167.773438 89.179688 73.816406 45.472656 35.964844 141.523438 C 2.453125 226.558594 66.359375 321.292969 101.621094 344.21875 C 143.460938 371.40625 166.089844 356.152344 189.492188 356.152344 C 208.769531 356.152344 248.765625 372.167969 279.164062 341.457031 C 309.5625 310.742188 383.257812 214.378906 330.4375 125.964844 C 288.558594 55.855469 224.523438 77.828125 204.351562 87.761719 C 194.984375 92.367188 179.363281 93.972656 167.773438 89.179688 "/></g><path style=" stroke:none;fill-rule:evenodd;fill:rgb(100%,100%,100%);fill-opacity:1;" d="M 282.195312 144.027344 C 289.511719 157 284.59375 171.074219 275.285156 176.3125 C 265.984375 181.554688 255.828125 175.976562 248.515625 163.003906 C 241.199219 150.035156 239.511719 134.582031 248.8125 129.34375 C 258.113281 124.101562 274.890625 131.058594 282.195312 144.027344 "/><path style=" stroke:none;fill-rule:evenodd;fill:rgb(100%,100%,100%);fill-opacity:1;" d="M 174.621094 99.878906 C 176.003906 90.179688 175.679688 56.367188 180.835938 42.261719 C 194.199219 36 200.351562 48.246094 200.351562 48.246094 C 190.015625 68.132812 189.789062 83.523438 191.96875 100.242188 C 191.96875 100.242188 191.492188 102.605469 185.019531 103.945312 C 178.550781 105.28125 174.621094 99.878906 174.621094 99.878906 "/><path style=" stroke:none;fill-rule:nonzero;fill:rgb(100%,100%,100%);fill-opacity:1;" d="M 61.5 34.625 C 61.5 34.625 103.414062 14.640625 134.570312 25.875 C 165.726562 37.113281 180.492188 68.035156 176.929688 77.910156 C 173.367188 87.785156 143.320312 99.230469 112.164062 87.992188 C 81.007812 76.761719 61.5 34.625 61.5 34.625 "/><g clip-rule="nonzero" clip-path="url(#clip2)"><path style=" stroke:none;fill-rule:nonzero;fill:rgb(42.749023%,78.42865%,16.468811%);fill-opacity:1;" d="M 90.058594 144.210938 C 90.101562 144.210938 90.144531 144.222656 90.191406 144.25 C 90.34375 144.328125 90.445312 144.53125 90.445312 144.660156 C 90.445312 144.757812 90.402344 144.804688 90.332031 144.804688 C 90.292969 144.804688 90.246094 144.789062 90.191406 144.761719 C 90.0625 144.683594 89.9375 144.480469 89.9375 144.355469 C 89.9375 144.253906 89.988281 144.210938 90.058594 144.210938 Z M 90.472656 145.152344 C 90.519531 145.152344 90.65625 145.386719 91.058594 146.039062 L 91.492188 146.800781 L 90.980469 146.191406 C 90.675781 145.859375 90.445312 145.476562 90.445312 145.324219 C 90.445312 145.21875 90.445312 145.152344 90.472656 145.152344 Z M 92.058594 147.699219 C 92.125 147.699219 92.230469 147.839844 92.332031 148.101562 C 92.390625 148.261719 92.390625 148.359375 92.3125 148.359375 C 92.292969 148.359375 92.265625 148.351562 92.230469 148.332031 C 92.078125 148.257812 91.976562 148.078125 91.976562 147.925781 C 91.976562 147.773438 92.007812 147.699219 92.058594 147.699219 Z M 92.566406 148.722656 C 92.636719 148.722656 92.738281 148.859375 92.839844 149.125 C 92.902344 149.28125 92.898438 149.378906 92.824219 149.378906 C 92.800781 149.378906 92.773438 149.371094 92.738281 149.351562 C 92.585938 149.277344 92.484375 149.097656 92.484375 148.945312 C 92.484375 148.792969 92.515625 148.722656 92.566406 148.722656 Z M 93.101562 149.78125 C 93.117188 149.78125 93.132812 149.792969 93.148438 149.8125 C 93.222656 149.890625 93.25 150.117188 93.171875 150.296875 C 93.144531 150.375 93.113281 150.414062 93.089844 150.414062 C 93.050781 150.414062 93.019531 150.316406 93.019531 150.144531 C 93 149.921875 93.042969 149.78125 93.101562 149.78125 Z M 266.851562 342.078125 C 267.117188 342.078125 267.527344 342.261719 267.882812 342.585938 C 268.1875 342.867188 268.339844 343.171875 268.265625 343.273438 C 268.226562 343.300781 268.195312 343.316406 268.167969 343.316406 C 268.117188 343.316406 268.085938 343.269531 268.085938 343.171875 C 268.085938 343.019531 267.753906 342.839844 267.320312 342.738281 C 266.914062 342.664062 266.554688 342.484375 266.554688 342.332031 C 266.554688 342.160156 266.671875 342.078125 266.851562 342.078125 Z M 272.164062 351.132812 L 272.648438 352.152344 C 272.929688 352.714844 273.234375 353.476562 273.308594 353.859375 C 273.414062 354.292969 273.386719 354.574219 273.234375 354.574219 C 272.902344 354.574219 272.46875 353.453125 272.289062 352.152344 Z M 147.511719 97.746094 C 146.527344 97.746094 145.511719 97.820312 144.730469 97.976562 C 139.8125 99 138.285156 99.609375 135.378906 101.726562 C 132.625 103.742188 132.292969 104.050781 131.046875 105.9375 C 129.949219 107.570312 129.824219 107.925781 129.746094 109.457031 C 129.644531 110.910156 129.71875 111.21875 130.179688 111.652344 C 130.664062 112.109375 130.714844 112.3125 130.535156 113.667969 C 130.433594 114.480469 130.382812 116.394531 130.410156 117.925781 C 130.460938 120.679688 130.738281 121.675781 132.039062 123.511719 C 132.292969 123.871094 132.269531 124.203125 131.886719 125.171875 C 130.917969 127.644531 131.121094 128.765625 132.703125 129.355469 C 133.007812 129.480469 133.390625 129.863281 133.519531 130.222656 C 133.644531 130.578125 134.054688 130.988281 134.382812 131.113281 C 134.867188 131.292969 135.046875 131.597656 135.175781 132.3125 C 135.25 132.847656 135.429688 133.765625 135.582031 134.355469 C 135.710938 134.941406 135.8125 135.960938 135.8125 136.648438 C 135.8125 139.019531 136.894531 140.25 138.898438 140.25 C 139.679688 140.25 140.597656 140.0625 141.648438 139.683594 C 143.125 139.167969 144.722656 138.875 145.917969 138.875 C 146.4375 138.875 146.878906 138.933594 147.203125 139.046875 C 148.476562 139.480469 149.90625 142.03125 150.3125 144.582031 C 150.515625 145.882812 150.492188 145.960938 149.753906 146.574219 C 149.34375 146.929688 148.453125 147.492188 147.816406 147.824219 C 145.191406 149.199219 142.949219 150.933594 141.292969 152.925781 C 137.699219 157.234375 136.679688 159.277344 135.429688 164.453125 C 135.074219 165.960938 134.691406 167.4375 134.613281 167.695312 C 134.539062 167.949219 134.003906 168.664062 133.414062 169.25 C 131.222656 171.496094 131.171875 171.597656 131.351562 172.644531 C 131.480469 173.433594 131.378906 173.792969 130.738281 174.734375 C 130.304688 175.371094 129.949219 176.011719 129.949219 176.136719 C 129.949219 176.292969 129.390625 177.3125 128.675781 178.433594 C 127.988281 179.53125 127.375 180.550781 127.324219 180.679688 C 127.3125 180.710938 127.257812 180.726562 127.171875 180.726562 C 126.652344 180.726562 124.992188 180.203125 124.46875 179.8125 C 124.34375 179.710938 123.476562 179.402344 122.558594 179.121094 C 121.640625 178.84375 120.164062 178.304688 119.246094 177.921875 C 118.328125 177.566406 117.078125 177.082031 116.441406 176.851562 C 115.804688 176.648438 114.785156 176.0625 114.148438 175.550781 C 111.652344 173.511719 104.207031 165.550781 104.207031 164.886719 C 104.207031 164.683594 104.515625 163.152344 104.871094 161.445312 C 105.382812 159.046875 105.484375 157.976562 105.355469 156.726562 C 105.152344 154.835938 105.710938 152.796875 106.65625 151.957031 C 106.988281 151.675781 107.265625 151.164062 107.265625 150.859375 C 107.265625 150.167969 106.375 149.480469 105.484375 149.480469 C 104.539062 149.480469 102.628906 150.222656 102.246094 150.707031 C 101.328125 151.828125 101.097656 152.339844 100.945312 153.460938 L 100.769531 154.660156 L 99.75 153.664062 C 98.804688 152.746094 97.125 149.761719 96.691406 148.207031 C 96.460938 147.390625 94.625 144.125 93.632812 142.773438 C 93.121094 142.109375 92.535156 141.625 92 141.472656 C 91.738281 141.390625 91.546875 141.347656 91.386719 141.347656 C 91.085938 141.347656 90.898438 141.511719 90.546875 141.929688 C 90.214844 142.3125 89.9375 142.925781 89.9375 143.28125 C 89.9375 143.570312 89.929688 143.730469 89.851562 143.730469 C 89.75 143.730469 89.523438 143.464844 89.019531 142.875 C 88.316406 142.0625 88.074219 141.859375 87.449219 141.859375 C 87.324219 141.859375 87.1875 141.867188 87.03125 141.878906 C 86.0625 141.957031 85.960938 142.03125 85.757812 142.847656 C 85.550781 143.664062 85.679688 144.023438 86.980469 146.523438 C 87.769531 148.050781 88.382812 149.328125 88.332031 149.40625 C 88.328125 149.40625 88.324219 149.40625 88.324219 149.40625 C 88.222656 149.40625 87.703125 148.582031 87.132812 147.515625 C 85.808594 145.019531 85.453125 144.632812 84.558594 144.632812 C 82.671875 144.636719 83.207031 147.976562 85.628906 151.34375 C 86.035156 151.90625 86.367188 152.464844 86.367188 152.566406 C 86.367188 152.667969 86.699219 153.28125 87.132812 153.894531 C 88.253906 155.550781 88.507812 156.367188 88.074219 156.828125 C 87.960938 156.9375 87.820312 156.992188 87.648438 156.992188 C 87.015625 156.992188 85.953125 156.234375 84.152344 154.53125 C 82.695312 153.164062 82.253906 152.835938 81.683594 152.835938 C 81.617188 152.835938 81.546875 152.839844 81.476562 152.847656 C 80.507812 152.925781 80.074219 153.792969 80.351562 154.941406 C 80.632812 156.0625 83.515625 158.691406 85.527344 159.683594 C 86.878906 160.347656 87.4375 160.78125 87.796875 161.445312 C 88.074219 161.953125 88.457031 162.542969 88.660156 162.746094 C 89.300781 163.410156 90.472656 165.042969 90.320312 165.042969 C 90.242188 165.042969 90.394531 165.296875 90.699219 165.601562 C 90.980469 165.910156 91.210938 166.242188 91.210938 166.34375 C 91.210938 166.445312 91.464844 166.828125 91.796875 167.210938 C 92.867188 168.488281 93.390625 169.070312 93.488281 169.070312 C 93.5 169.070312 93.503906 169.0625 93.503906 169.046875 C 93.503906 169.042969 93.507812 169.042969 93.507812 169.042969 C 93.648438 169.042969 96.835938 172.308594 97.660156 173.332031 C 98.523438 174.429688 100.996094 178.078125 101.8125 179.503906 C 102.195312 180.195312 103.445312 181.828125 104.589844 183.152344 C 105.710938 184.480469 106.832031 185.832031 107.0625 186.164062 C 107.265625 186.496094 108.414062 187.746094 109.585938 188.945312 C 110.394531 189.789062 111.109375 190.597656 111.480469 191.085938 L 111.484375 191.085938 L 114.65625 194.328125 L 114.660156 194.328125 C 115.296875 194.835938 116.621094 196.011719 117.589844 196.929688 C 118.582031 197.847656 120.367188 199.273438 121.617188 200.089844 C 122.839844 200.90625 123.832031 201.648438 123.832031 201.75 C 123.832031 201.851562 124.265625 202.183594 124.828125 202.488281 C 125.449219 202.839844 125.980469 203.03125 126.535156 203.03125 C 127.640625 203.03125 128.832031 202.265625 130.96875 200.449219 C 131.835938 199.707031 132.957031 198.789062 133.441406 198.433594 C 133.898438 198.050781 134.613281 197.3125 134.996094 196.75 C 135.378906 196.214844 137.214844 194.328125 139.097656 192.566406 C 140.984375 190.832031 143.710938 188.050781 145.191406 186.417969 C 146.644531 184.785156 148.046875 183.355469 148.300781 183.28125 C 148.757812 183.128906 150.722656 180.730469 151 179.964844 C 151.097656 179.734375 151.191406 179.613281 151.292969 179.613281 C 151.441406 179.613281 151.609375 179.851562 151.816406 180.347656 C 152.019531 180.78125 152.683594 181.828125 153.320312 182.667969 C 153.933594 183.511719 155.078125 185.5 155.820312 187.054688 C 156.582031 188.613281 157.296875 189.9375 157.398438 190.015625 C 157.730469 190.269531 158.496094 191.75 158.496094 192.132812 C 158.496094 192.335938 158.929688 193.355469 159.464844 194.402344 C 160 195.449219 160.636719 196.75 160.863281 197.3125 C 161.121094 197.871094 161.605469 198.789062 161.933594 199.351562 C 162.292969 199.914062 162.929688 201.0625 163.363281 201.902344 C 163.796875 202.746094 164.535156 203.941406 164.992188 204.582031 C 166.0625 206.035156 166.496094 207.539062 167.160156 212.003906 C 167.824219 216.339844 167.773438 217.105469 166.90625 217.359375 C 166.546875 217.464844 165.171875 217.898438 163.847656 218.304688 C 162.519531 218.738281 160.6875 219.171875 159.769531 219.273438 C 157.984375 219.453125 153.347656 220.90625 150.464844 222.15625 C 149.496094 222.566406 148.171875 223.074219 147.535156 223.253906 C 146.835938 223.460938 146.558594 223.597656 146.480469 223.832031 L 146.476562 223.832031 C 136.585938 227.511719 129.664062 230.738281 125.707031 233.511719 C 121.261719 236.402344 119.140625 239.984375 119.335938 244.253906 C 119.476562 247.734375 120.886719 251.667969 123.570312 256.058594 C 131.101562 267.710938 139.390625 279.039062 148.4375 290.035156 C 149.554688 291.625 151.316406 295.25 153.71875 300.914062 L 153.714844 300.914062 C 153.636719 301.011719 153.578125 301.066406 153.519531 301.066406 C 153.394531 301.066406 153.269531 300.828125 153.015625 300.242188 C 152.453125 298.992188 149.957031 296.414062 149.320312 296.414062 C 149.167969 296.414062 149.066406 296.285156 149.066406 296.160156 C 149.066406 296.007812 148.785156 295.902344 148.425781 295.902344 C 147.941406 295.902344 147.789062 296.03125 147.789062 296.492188 C 147.789062 297 148.554688 297.945312 148.960938 297.945312 C 149.191406 297.945312 150.082031 298.992188 150.082031 299.246094 C 150.082031 299.347656 150.238281 299.601562 150.414062 299.78125 C 150.925781 300.292969 152.300781 302.84375 152.453125 303.554688 C 152.683594 304.550781 151.867188 305.953125 151.027344 306.054688 C 150.644531 306.109375 150.390625 306.261719 150.464844 306.386719 C 150.566406 306.515625 150.238281 306.617188 149.726562 306.617188 C 149.242188 306.617188 148.808594 306.542969 148.757812 306.414062 C 148.632812 306.132812 145.597656 305.164062 143.738281 304.832031 C 143.097656 304.71875 142.691406 304.652344 142.40625 304.652344 C 142.0625 304.652344 141.894531 304.75 141.699219 304.960938 C 141.488281 305.171875 141.425781 305.320312 141.519531 305.320312 C 141.527344 305.320312 141.535156 305.320312 141.546875 305.316406 C 141.652344 305.300781 141.746094 305.292969 141.824219 305.292969 C 142.140625 305.292969 142.21875 305.410156 141.953125 305.570312 C 141.597656 305.800781 141.570312 305.800781 144.859375 306.746094 C 145.699219 307 146.871094 307.484375 147.484375 307.84375 C 148.132812 308.214844 148.570312 308.363281 149.089844 308.363281 C 149.242188 308.363281 149.402344 308.351562 149.574219 308.328125 L 150.566406 308.199219 L 150.1875 308.863281 C 149.980469 309.246094 149.472656 310.0625 149.066406 310.699219 C 148.605469 311.4375 148.324219 312.203125 148.324219 312.867188 C 148.300781 313.429688 148.070312 314.347656 147.816406 314.933594 C 147.304688 316.03125 145.214844 318.019531 144.296875 318.25 C 143.96875 318.351562 143.710938 318.503906 143.710938 318.632812 C 143.710938 318.761719 143.535156 318.863281 143.332031 318.863281 C 143.125 318.863281 142.949219 318.964844 142.949219 319.117188 C 142.949219 319.246094 142.71875 319.371094 142.4375 319.371094 C 142.15625 319.371094 141.929688 319.472656 141.929688 319.628906 C 141.929688 319.753906 141.699219 319.882812 141.417969 319.882812 C 141.136719 319.882812 140.910156 319.984375 140.910156 320.113281 C 140.910156 320.367188 138.285156 321.285156 136.832031 321.539062 C 135.097656 321.847656 134.128906 323.121094 134.382812 324.78125 C 134.5625 325.851562 135.503906 327.28125 136.066406 327.28125 C 136.195312 327.28125 136.320312 327.382812 136.320312 327.484375 C 136.320312 327.984375 140.914062 328.390625 144.117188 328.390625 C 145.660156 328.390625 146.878906 328.296875 147.101562 328.070312 C 147.253906 327.917969 147.867188 327.789062 148.476562 327.789062 C 149.089844 327.789062 149.574219 327.664062 149.574219 327.535156 C 149.574219 327.382812 150.03125 327.28125 150.566406 327.28125 C 151.179688 327.28125 151.613281 327.152344 151.691406 326.921875 C 151.765625 326.71875 152.65625 326.386719 153.675781 326.132812 C 154.695312 325.902344 156.226562 325.390625 157.066406 324.984375 C 157.933594 324.578125 159.03125 324.144531 159.515625 324.066406 C 160 323.964844 160.535156 323.8125 160.660156 323.707031 C 160.8125 323.605469 161.554688 323.378906 162.316406 323.199219 C 163.082031 323.019531 164.125 322.6875 164.609375 322.433594 C 165.09375 322.203125 166.011719 321.847656 166.648438 321.667969 C 167.289062 321.464844 167.847656 321.234375 167.925781 321.15625 C 168.078125 320.953125 170.753906 319.960938 172.257812 319.5 C 172.894531 319.320312 173.964844 318.9375 174.628906 318.632812 C 175.316406 318.351562 176.027344 318.097656 176.234375 318.097656 C 176.4375 318.097656 176.589844 317.96875 176.589844 317.84375 C 176.589844 317.6875 176.820312 317.585938 177.125 317.585938 C 177.40625 317.585938 177.558594 317.484375 177.480469 317.332031 C 177.40625 317.203125 177.507812 317.078125 177.710938 317.078125 C 177.941406 317.078125 178.117188 316.949219 178.117188 316.820312 C 178.117188 316.667969 178.296875 316.566406 178.5 316.566406 C 178.703125 316.566406 178.882812 316.4375 178.882812 316.3125 C 178.882812 316.160156 179.011719 316.054688 179.164062 316.054688 C 179.722656 316.054688 181.175781 314.195312 181.175781 313.453125 C 181.175781 313.226562 181 312.867188 180.796875 312.664062 C 179.851562 311.695312 177.863281 308.835938 176.871094 307 C 176.539062 306.390625 176.167969 305.734375 175.847656 305.195312 L 175.851562 305.195312 L 171.566406 300.238281 L 171.570312 300.238281 C 170.757812 300.210938 170.617188 300.019531 169.632812 298.609375 C 168.996094 297.714844 168.410156 296.71875 168.308594 296.441406 C 168.230469 296.132812 168.050781 295.902344 167.925781 295.902344 C 167.796875 295.902344 167.617188 295.675781 167.542969 295.394531 C 167.464844 295.113281 167.234375 294.730469 167.082031 294.578125 C 166.546875 294.015625 165.199219 291.746094 164.765625 290.699219 C 164.535156 290.140625 163.949219 289.09375 163.464844 288.351562 C 162.980469 287.613281 162.445312 286.746094 162.316406 286.441406 C 161.832031 285.367188 161.222656 284.296875 161.042969 284.167969 C 160.8125 284.015625 156.941406 276.492188 156.480469 275.34375 C 156.328125 274.933594 155.972656 274.222656 155.691406 273.761719 C 155.15625 272.894531 154.160156 269.425781 154.160156 268.480469 C 154.160156 267.816406 153.21875 264.144531 152.886719 263.558594 C 152.761719 263.328125 152.480469 262.664062 152.25 262.105469 C 151.359375 259.9375 150.773438 258.863281 148.835938 255.855469 C 147.839844 254.324219 147.816406 254.296875 146.871094 253.175781 C 146.515625 252.742188 145.878906 251.976562 145.472656 251.46875 L 144.847656 250.699219 L 144.851562 250.699219 C 146.316406 251.109375 147.609375 251.417969 148.726562 251.625 C 151.578125 252.195312 154.761719 252.480469 158.273438 252.480469 C 158.394531 252.480469 158.515625 252.480469 158.636719 252.480469 C 163.1875 252.457031 168.386719 252.136719 174.230469 251.515625 L 174.226562 251.515625 C 175.191406 251.5 175.875 251.425781 176.042969 251.316406 L 176.039062 251.316406 C 177.730469 251.121094 179.472656 250.90625 181.269531 250.664062 C 181.417969 250.640625 181.578125 250.621094 181.742188 250.597656 L 181.746094 250.597656 C 182.734375 252.6875 184.359375 255.273438 186.621094 258.359375 C 188.332031 260.890625 195.683594 269.71875 208.675781 284.84375 C 208.734375 284.890625 208.8125 284.976562 208.910156 285.09375 L 208.90625 285.09375 C 209.253906 285.53125 209.46875 285.828125 209.46875 285.878906 C 209.46875 285.957031 209.613281 286.152344 209.839844 286.390625 L 209.835938 286.390625 C 210.839844 287.914062 212.4375 290.527344 214.617188 294.230469 C 215.394531 295.390625 216.183594 296.386719 216.984375 297.21875 C 217.726562 298.015625 218.570312 298.695312 219.511719 299.253906 C 219.957031 299.597656 221.429688 300.167969 223.933594 300.957031 C 224.570312 301.257812 225.359375 301.769531 226.296875 302.496094 C 234.488281 309.652344 243.871094 317.378906 254.453125 325.6875 C 259.183594 329.378906 263.75 334.28125 268.152344 340.394531 C 267.695312 340.21875 267.34375 340.132812 267.023438 340.132812 C 266.632812 340.132812 266.292969 340.261719 265.867188 340.519531 C 264.3125 341.488281 264.492188 343.097656 266.277344 344.21875 C 266.886719 344.625 267.449219 345.238281 267.730469 345.902344 C 267.984375 346.464844 268.339844 346.921875 268.542969 346.921875 C 268.953125 346.921875 270.125 348.148438 270.125 348.582031 C 270.125 348.707031 270.25 349.957031 270.378906 351.308594 C 270.632812 353.960938 271.21875 355.519531 272.214844 356.207031 C 272.464844 356.378906 272.8125 356.464844 273.164062 356.464844 C 273.601562 356.464844 274.046875 356.335938 274.328125 356.082031 C 274.484375 355.921875 274.617188 355.851562 274.71875 355.851562 C 274.894531 355.851562 274.960938 356.082031 274.863281 356.488281 C 274.6875 357.175781 275.222656 358.683594 275.859375 359.320312 C 276.496094 359.957031 276.597656 360.925781 276.292969 363.476562 C 276.089844 365.136719 275.808594 366.285156 275.375 367.152344 C 274.660156 368.503906 273.949219 371.207031 273.949219 372.507812 C 273.949219 373.351562 274.457031 374.320312 275.222656 374.90625 C 275.425781 375.085938 276.265625 375.238281 277.058594 375.238281 C 278.457031 375.238281 278.535156 375.210938 280.242188 373.65625 C 281.183594 372.761719 282.257812 371.820312 282.613281 371.539062 C 283.582031 370.773438 284.5 369.421875 285.417969 367.457031 C 285.875 366.460938 286.332031 365.644531 286.460938 365.59375 C 286.589844 365.542969 286.691406 365.3125 286.691406 365.085938 C 286.691406 364.855469 286.894531 364.292969 287.148438 363.886719 C 287.402344 363.453125 287.8125 362.382812 288.066406 361.460938 C 288.347656 360.542969 288.804688 359.21875 289.136719 358.527344 C 289.46875 357.816406 289.851562 356.515625 290.003906 355.59375 C 290.183594 354.675781 290.460938 353.425781 290.667969 352.789062 C 290.84375 352.152344 291.125 350.773438 291.253906 349.726562 C 291.378906 348.683594 291.8125 346.898438 292.171875 345.773438 C 292.550781 344.652344 292.984375 343.375 293.113281 342.96875 C 294.589844 338.503906 295.304688 333.785156 294.847656 331.15625 L 294.566406 329.421875 L 291.914062 329.371094 C 290.359375 329.320312 288.832031 329.140625 288.195312 328.9375 C 288.039062 328.878906 287.816406 328.824219 287.546875 328.765625 L 287.550781 328.765625 C 287.496094 328.761719 287.429688 328.757812 287.363281 328.746094 L 286.753906 328.644531 L 286.320312 328.625 C 286.226562 328.640625 286.078125 328.648438 285.882812 328.648438 C 285.855469 328.648438 285.828125 328.648438 285.800781 328.648438 L 285.601562 328.675781 C 285.582031 328.671875 285.554688 328.671875 285.527344 328.671875 C 285.417969 328.671875 285.246094 328.6875 285.015625 328.714844 L 284.105469 328.730469 L 283.882812 328.75 C 283.523438 328.734375 283.308594 328.722656 283.25 328.707031 L 283.109375 328.679688 L 282.882812 328.609375 C 282.636719 328.566406 282.5 328.535156 282.472656 328.519531 C 282.277344 328.453125 282.15625 328.390625 282.113281 328.324219 L 277.683594 327.402344 C 277.648438 327.363281 277.617188 327.320312 277.589844 327.28125 L 277.59375 327.28125 C 277.570312 327.28125 277.542969 327.28125 277.515625 327.28125 C 277.296875 327.28125 269.953125 319.992188 265.105469 315.046875 L 265.101562 315.046875 C 258.257812 305.101562 253 298.410156 249.328125 294.964844 C 245.78125 291.496094 241.648438 288.574219 236.929688 286.203125 L 236.925781 286.203125 C 236.6875 286.035156 236.378906 285.839844 236.101562 285.699219 C 235.894531 285.597656 235.648438 285.382812 235.390625 285.09375 L 235.386719 285.09375 C 232.09375 277.449219 227.148438 267.972656 220.546875 256.667969 L 220.539062 256.667969 C 220.359375 256.148438 220.042969 255.445312 219.585938 254.527344 C 218.847656 253.097656 217.878906 251.363281 217.417969 250.703125 C 216.960938 250.039062 216.601562 249.402344 216.601562 249.273438 C 216.601562 249.121094 216.527344 248.96875 216.425781 248.914062 C 216.296875 248.863281 215.8125 248.203125 215.328125 247.4375 C 215.023438 246.953125 214.820312 246.632812 214.691406 246.316406 L 214.6875 246.316406 C 215.175781 244.039062 215.542969 242.25 215.789062 240.953125 C 216.28125 238.398438 216.628906 236.214844 216.832031 234.40625 C 216.882812 233.996094 216.925781 233.59375 216.960938 233.199219 L 216.957031 233.199219 C 216.964844 233.121094 216.976562 233.046875 216.984375 232.972656 C 217.003906 232.816406 217.019531 232.632812 217.027344 232.425781 L 217.023438 232.425781 C 217.199219 229.984375 217.109375 227.792969 216.757812 225.863281 C 216.566406 224.773438 216.269531 223.679688 215.863281 222.578125 L 215.859375 222.578125 C 215.765625 222.234375 215.675781 221.945312 215.582031 221.722656 C 215.539062 221.621094 215.484375 221.53125 215.417969 221.457031 L 215.414062 221.457031 C 215.042969 220.601562 214.605469 219.742188 214.105469 218.882812 C 213.878906 218.210938 211.199219 214.328125 206.074219 207.226562 C 205.015625 205.628906 204.082031 204.027344 203.273438 202.425781 C 201.75 199.476562 200.375 195.625 199.15625 190.863281 C 198.398438 187.769531 197.769531 184.980469 197.265625 182.5 L 197.261719 182.5 C 196.960938 180.808594 196.742188 179.421875 196.722656 179.070312 C 196.722656 178.585938 196.546875 177.488281 196.339844 176.648438 C 196.25 176.289062 196.167969 175.925781 196.089844 175.558594 L 196.085938 175.558594 C 195.992188 174.824219 195.921875 174.144531 195.871094 173.511719 C 195.46875 170.523438 195.492188 161.152344 195.953125 145.398438 L 195.945312 145.398438 L 196.46875 145.324219 C 196.953125 145.246094 198.789062 145.015625 200.546875 144.8125 C 202.304688 144.582031 204.089844 144.277344 204.496094 144.097656 C 204.929688 143.921875 206.535156 143.640625 208.066406 143.460938 C 213.136719 142.875 215.710938 142.234375 218.207031 140.910156 C 218.992188 140.492188 219.359375 140.335938 220.164062 140.335938 C 220.539062 140.335938 221.003906 140.367188 221.648438 140.425781 C 225.496094 140.707031 226.746094 141.011719 229.832031 142.339844 C 232.683594 143.5625 233.652344 143.84375 236.710938 144.40625 C 237.476562 144.53125 238.191406 144.710938 238.292969 144.761719 C 238.394531 144.839844 240.40625 145.015625 242.777344 145.144531 C 247.441406 145.425781 249.378906 145.679688 251.519531 146.316406 C 254.066406 147.058594 256.488281 147.976562 256.667969 148.257812 C 256.742188 148.433594 257.660156 148.972656 258.679688 149.457031 C 260.414062 150.324219 260.542969 150.449219 260.925781 151.648438 C 261.789062 154.277344 264.109375 157.03125 266.429688 158.179688 C 267.398438 158.664062 268.316406 159.378906 268.976562 160.144531 C 270.320312 161.785156 271.03125 162.289062 271.941406 162.289062 C 271.964844 162.289062 271.988281 162.289062 272.011719 162.285156 C 273.03125 162.261719 273.4375 161.648438 273.4375 160.144531 C 273.4375 158.765625 272.699219 157.335938 271.5 156.394531 C 271.121094 156.113281 270.917969 155.859375 271.039062 155.859375 L 271.046875 155.859375 C 271.632812 155.863281 273.160156 157.265625 274.863281 159.351562 C 276.226562 161.035156 276.957031 161.742188 277.582031 161.742188 C 277.902344 161.742188 278.195312 161.554688 278.535156 161.214844 C 279.148438 160.601562 279.171875 160.117188 278.664062 159.582031 C 278.433594 159.378906 278.179688 158.691406 278.050781 158.078125 C 277.898438 157.285156 277.566406 156.625 276.902344 155.960938 C 275.941406 154.980469 275.503906 154.347656 275.691406 154.34375 L 275.695312 154.34375 C 275.792969 154.34375 276.046875 154.507812 276.46875 154.863281 C 277.058594 155.347656 277.898438 155.984375 278.332031 156.316406 C 278.765625 156.625 279.527344 157.234375 280.011719 157.644531 C 280.609375 158.152344 281.347656 158.421875 281.90625 158.421875 C 282.300781 158.421875 282.609375 158.285156 282.714844 158 C 282.773438 157.84375 282.816406 157.683594 282.84375 157.523438 L 282.835938 157.523438 C 282.851562 157.523438 282.867188 157.519531 282.882812 157.519531 C 282.992188 157.515625 283.054688 157.472656 283.070312 157.386719 C 283.078125 157.296875 283.082031 157.191406 283.082031 157.074219 C 283.050781 156.78125 283.039062 156.503906 283.042969 156.242188 C 283 155.957031 282.90625 155.710938 282.765625 155.507812 L 282.222656 154.691406 L 281.429688 154.007812 L 280.535156 153.078125 C 280.457031 152.996094 280.371094 152.917969 280.285156 152.847656 L 279.789062 152.433594 C 279.457031 152.203125 279.167969 151.988281 278.917969 151.78125 L 278.925781 151.78125 C 279.226562 151.878906 279.546875 151.96875 279.890625 152.050781 L 279.886719 152.050781 C 280.03125 152.164062 280.175781 152.285156 280.320312 152.414062 C 280.875 152.910156 281.328125 153.152344 281.753906 153.152344 C 282.027344 153.152344 282.289062 153.050781 282.5625 152.847656 C 283.121094 152.414062 283.121094 152.339844 282.765625 151.648438 C 282.671875 151.464844 282.597656 151.28125 282.546875 151.125 L 282.539062 151.125 C 282.566406 150.765625 282.566406 150.527344 282.539062 150.410156 C 282.53125 150.324219 282.511719 150.242188 282.480469 150.164062 L 282.234375 149.675781 C 281.992188 149.09375 281.859375 148.742188 281.84375 148.617188 C 281.71875 148.449219 281.519531 148.214844 281.246094 147.910156 L 280.335938 146.664062 L 280.105469 146.390625 C 280.050781 146.324219 279.910156 146.214844 279.691406 146.058594 L 278.414062 145.144531 L 278.40625 145.144531 C 278.332031 144.515625 277.746094 143.613281 277.285156 143.613281 C 277.058594 143.613281 275.984375 143.332031 274.964844 142.976562 C 273.949219 142.617188 272.878906 142.339844 272.597656 142.339844 C 272.316406 142.339844 271.882812 142.183594 271.679688 142.007812 C 271.199219 141.59375 268.695312 140.746094 267.585938 140.582031 L 267.582031 140.582031 C 267.574219 140.578125 267.566406 140.570312 267.558594 140.566406 C 267.492188 140.527344 267.355469 140.460938 267.140625 140.367188 L 266.9375 140.261719 C 266.769531 140.203125 266.554688 140.167969 266.285156 140.15625 L 266.28125 140.15625 C 266.253906 140.128906 266.222656 140.097656 266.199219 140.066406 C 265.96875 139.8125 265.027344 139.226562 264.136719 138.765625 C 263.113281 138.246094 262.601562 138.046875 262.046875 138.046875 C 261.871094 138.046875 261.6875 138.066406 261.484375 138.105469 C 261.359375 138.121094 261.226562 138.132812 261.085938 138.132812 C 260.054688 138.132812 258.5 137.632812 255.902344 136.445312 C 255.316406 136.191406 254.707031 135.960938 254.550781 135.960938 C 254.398438 135.960938 253.304688 135.476562 252.082031 134.914062 C 248.230469 133.078125 247.847656 132.925781 246.574219 132.644531 C 245.886719 132.492188 245.097656 132.238281 244.816406 132.082031 C 244.535156 131.929688 243.71875 131.675781 243.007812 131.496094 C 242.292969 131.320312 240.917969 130.859375 239.921875 130.476562 C 238.953125 130.09375 237.503906 129.609375 236.738281 129.40625 C 235.972656 129.199219 235.207031 128.921875 235.082031 128.820312 C 234.570312 128.386719 230.75 127.3125 229.21875 127.160156 C 228.378906 127.058594 227.15625 126.878906 226.515625 126.753906 C 226.109375 126.664062 225.65625 126.617188 225.144531 126.617188 C 224.632812 126.617188 224.058594 126.664062 223.40625 126.753906 C 222.882812 126.824219 222.253906 126.855469 221.542969 126.855469 C 218.667969 126.855469 214.519531 126.300781 211.125 125.398438 C 209.492188 124.964844 206.765625 124.457031 205.773438 124.429688 C 205.648438 124.425781 205.507812 124.425781 205.351562 124.425781 C 203.277344 124.425781 198.535156 124.726562 197.894531 124.914062 C 197.699219 124.972656 197.386719 125 197.007812 125 C 195.898438 125 194.230469 124.773438 193.285156 124.429688 C 192.085938 124.007812 187.980469 123.433594 186.253906 123.433594 C 186.21875 123.433594 186.183594 123.433594 186.148438 123.4375 C 181.636719 123.488281 180.261719 123.742188 177.914062 125.019531 C 176.105469 125.988281 173.046875 126.957031 171.238281 127.160156 C 170.753906 127.210938 169.988281 127.339844 169.554688 127.414062 C 169.367188 127.453125 169.199219 127.476562 169.050781 127.476562 C 168.816406 127.476562 168.648438 127.421875 168.585938 127.3125 C 168.476562 127.128906 167.890625 127.039062 167.214844 127.039062 C 166.5 127.039062 165.683594 127.140625 165.25 127.339844 C 165.023438 127.4375 164.863281 127.496094 164.734375 127.496094 C 164.527344 127.496094 164.386719 127.351562 164.152344 127.007812 C 163.210938 125.707031 162.574219 123.820312 162.800781 123.003906 C 162.953125 122.492188 162.878906 121.523438 162.546875 119.992188 C 162.292969 118.691406 162.089844 116.625 162.0625 115.171875 C 162.0625 113.769531 161.882812 111.878906 161.65625 110.960938 C 161.222656 109.046875 159.132812 104.558594 157.832031 102.644531 C 156.761719 101.117188 153.550781 98.742188 152.070312 98.410156 C 151.535156 98.308594 150.621094 98.105469 150.03125 97.953125 C 149.371094 97.816406 148.457031 97.746094 147.511719 97.746094 Z M 147.511719 97.746094 "/></g></g></svg>