<svg height="512" viewBox="0 0 128 128" width="512" xmlns="http://www.w3.org/2000/svg"><g><g><path d="m64 6.5c-17.788 0-32.208 10.3-32.208 23l9.973 92h44.47l9.973-92c0-12.7-14.42-23-32.208-23z" fill="#c08e5e"/><path d="m36.653 33.5c-.75-7.25 4.083-9.667 7.5-8.667-.361-4.666 3.514-7.5 6.75-6.333a5.756 5.756 0 0 1 9.75-2.5c2.472-3.469 7.253-2.969 8.75.5a4.43 4.43 0 0 1 7.25 2.75 3.74 3.74 0 0 1 5.747 3.25c3.43-.958 5.18 1.692 4.833 4.417 3.451-.042 4.667 3.583 4.084 5.833l-12.717 24.25-22.451 1.342-11.913-9.009z" fill="#c7e554"/><path d="m76.385 55.95c-7.638-9.792-9.449-24.973-9.314-32.4l6 .109c-.156 8.607 2.3 21.228 8.046 28.6z" fill="#f3d232"/><path d="m64.835 53.524c-7.638-9.792-9.449-24.973-9.314-32.4l6 .108c-.156 8.607 2.295 21.229 8.045 28.6z" fill="#f3d232"/><circle cx="50.837" cy="39.75" fill="#dc4c12" r="8.875"/><path d="m84.936 40.347c1.223 4.864 0 8.924-3.719 9.735s-6.282-2.741-7.5-7.606-.884-13.776 2.832-14.588 7.164 7.595 8.387 12.459z" fill="#dc4c12"/><path d="m31.792 29.5c52.093 15.891 55.656 65.307 37.529 92h-27.556z" fill="#c08e5e"/><path d="m96.208 29.5c-52.093 15.891-55.656 65.307-37.529 92h27.556z" fill="#e2a76f"/><circle cx="73.078" cy="107.732" fill="#c08e5e" r="3"/><circle cx="75.486" cy="55.342" fill="#c08e5e" r="3"/><circle cx="47.837" cy="47.198" fill="#e2a76f" r="3"/><circle cx="79.236" cy="85.898" fill="#c08e5e" r="3"/></g><g fill="#190d28"><path d="m94.443 45.781a1.746 1.746 0 0 0 -1.928 1.551l-.358 3.293a1.751 1.751 0 0 0 3.481.375l.362-3.29a1.751 1.751 0 0 0 -1.557-1.929z"/><path d="m97.949 29.671a1.632 1.632 0 0 0 .009-.171c0-13.647-15.233-24.75-33.958-24.75-18.648 0-33.829 11.014-33.952 24.585v.013.152s0 .086.007.129v.073l9.971 91.986a1.751 1.751 0 0 0 1.741 1.562h44.47a1.751 1.751 0 0 0 1.741-1.562l6.992-64.5a1.751 1.751 0 1 0 -3.481-.377l-6.824 62.939h-25.026a53.971 53.971 0 0 1 -5.3-10.48 1.75 1.75 0 0 0 -3.276 1.233 58.2 58.2 0 0 0 4.437 9.247h-12.165l-9.513-87.759q1.164.393 2.3.81a70.616 70.616 0 0 1 21.53 12.264c.017.014.033.029.051.042q2.07 1.763 3.944 3.683c-13.571 15.51-17.042 35.569-13.097 53.265a1.75 1.75 0 0 0 3.416-.762c-5.737-25.733 5.207-56.781 42.21-69.285l-1 9.19a1.75 1.75 0 0 0 3.48.377l1.288-11.887v-.017zm-33.949-21.421c16.193 0 29.473 8.863 30.4 20-.593.19-1.185.38-1.766.579a5.7 5.7 0 0 0 -3.657-3.43 5.67 5.67 0 0 0 -1.862-3.647 5.019 5.019 0 0 0 -3.26-1.2 5.562 5.562 0 0 0 -2.241-2.775 5.4 5.4 0 0 0 -3.871-.769 6.517 6.517 0 0 0 -3.143-2.86 5.862 5.862 0 0 0 -4.627-.014 6.407 6.407 0 0 0 -4.233-2.212 6.882 6.882 0 0 0 -5.256 1.678 7.425 7.425 0 0 0 -5.547-.987 7.606 7.606 0 0 0 -5.079 3.895 6.628 6.628 0 0 0 -4.479 1.37 7.718 7.718 0 0 0 -2.894 4.994 7.455 7.455 0 0 0 -4.064 1.31 8.188 8.188 0 0 0 -3.164 4.607c-.548-.187-1.1-.367-1.66-.545.938-11.136 14.214-19.994 30.403-19.994zm-6.04 31.5a7.222 7.222 0 0 1 -.076.99 70.39 70.39 0 0 0 -10.9-6.975 7.119 7.119 0 0 1 10.976 5.985zm2.909 3.471a10.552 10.552 0 0 0 -2.687-11.121c-.209-1.242-.392-2.5-.532-3.752a1.75 1.75 0 1 0 -3.478.388c.037.329.085.659.126.989a10.545 10.545 0 0 0 -10.784 2.351q-2.411-1.107-4.959-2.086a4.788 4.788 0 0 1 1.855-2.926 3.866 3.866 0 0 1 3.249-.549 1.751 1.751 0 0 0 2.241-1.815 4.484 4.484 0 0 1 1.6-4.033 2.974 2.974 0 0 1 2.808-.516 1.751 1.751 0 0 0 2.259-1.1 4.263 4.263 0 0 1 3.113-3.011 3.885 3.885 0 0 1 3.682 1.15 1.732 1.732 0 0 0 1.4.566 1.753 1.753 0 0 0 1.319-.732 3.59 3.59 0 0 1 3.286-1.624 2.912 2.912 0 0 1 2.425 1.788 1.751 1.751 0 0 0 2.7.674 2.544 2.544 0 0 1 2.732-.5 2.771 2.771 0 0 1 1.678 2.038 1.751 1.751 0 0 0 2.621 1.357 2.011 2.011 0 0 1 2.21-.036 1.875 1.875 0 0 1 .919 1.617 1.75 1.75 0 0 0 2.215 1.84 2.051 2.051 0 0 1 1.963.22 2.657 2.657 0 0 1 .669 2.3 1.75 1.75 0 0 0 1.741 1.972h.053a2.144 2.144 0 0 1 2.062 1.362q-2.855 1.106-5.5 2.354c-2.9-5.818-5.74-6.631-7.678-6.2a4.333 4.333 0 0 0 -1.3.53c-.051-1.035-.078-2.054-.063-3.022a1.749 1.749 0 0 0 -1.714-1.783l-6-.111a1.637 1.637 0 0 0 -1.248.491 1.753 1.753 0 0 0 -.535 1.228 67.4 67.4 0 0 0 2.66 19.016c-.145.124-.3.244-.44.368a54.56 54.56 0 0 1 -4.27-21.641 1.751 1.751 0 0 0 -1.718-1.782l-6-.109h-.033a1.75 1.75 0 0 0 -.032 3.5l4.286.078c.132 6.236 1.514 15.107 5.071 22.46-.275.269-.539.543-.807.816q-1.521-1.552-3.165-3.004zm13.964-5.81c-.095-4.161.889-7.55 2.092-7.811.644-.141 2.115.951 3.8 4.346q-3.1 1.636-5.892 3.465zm-3.887 2.743a66.2 66.2 0 0 1 -2.12-14.821l2.5.045a58.67 58.67 0 0 0 .508 6.4 26.136 26.136 0 0 0 -.354 7.978c-.18.133-.358.265-.534.398z"/><path d="m73.078 112.481a4.75 4.75 0 1 0 -4.75-4.75 4.755 4.755 0 0 0 4.75 4.75zm0-6a1.25 1.25 0 1 1 -1.25 1.25 1.251 1.251 0 0 1 1.25-1.25z"/><path d="m80.236 55.342a4.75 4.75 0 1 0 -4.75 4.75 4.756 4.756 0 0 0 4.75-4.75zm-6 0a1.25 1.25 0 1 1 1.25 1.25 1.252 1.252 0 0 1 -1.25-1.25z"/><path d="m52.588 47.2a4.75 4.75 0 1 0 -4.75 4.75 4.756 4.756 0 0 0 4.75-4.75zm-6 0a1.25 1.25 0 1 1 1.25 1.25 1.251 1.251 0 0 1 -1.25-1.25z"/><path d="m83.985 85.9a4.75 4.75 0 1 0 -4.75 4.75 4.756 4.756 0 0 0 4.75-4.75zm-6 0a1.25 1.25 0 1 1 1.25 1.25 1.252 1.252 0 0 1 -1.25-1.25z"/><path d="m63.152 98.781a1.751 1.751 0 0 0 2.379-.683l4.625-8.352a1.75 1.75 0 0 0 -3.062-1.695l-4.625 8.349a1.751 1.751 0 0 0 .683 2.381z"/><path d="m84.709 62.506a1.752 1.752 0 0 0 -2.405.583l-3.125 5.125a1.75 1.75 0 1 0 2.988 1.822l3.125-5.125a1.75 1.75 0 0 0 -.583-2.405z"/><path d="m62.63 71.175a1.752 1.752 0 0 0 -2.393.632l-2.037 3.5a1.751 1.751 0 0 0 3.026 1.761l2.037-3.5a1.75 1.75 0 0 0 -.633-2.393z"/><path d="m46.864 63.354a1.748 1.748 0 0 0 2.394-.631l2.038-3.5a1.75 1.75 0 0 0 -3.025-1.762l-2.039 3.5a1.75 1.75 0 0 0 .632 2.393z"/></g></g></svg>