<svg height="512pt" viewBox="0 -98 512.00047 512" width="512pt" xmlns="http://www.w3.org/2000/svg"><path d="m456.820312 227.484375c-23.414062-22.363281-56.53125-36.3125-93.25-36.3125h-215.140624c-36.71875 0-69.835938 13.949219-93.25 36.3125-31.589844 30.175781-7.449219 80.015625 38.46875 80.015625h324.703124c45.917969 0 70.058594-49.839844 38.46875-80.015625zm0 0" fill="#ff983b"/><path d="m456.820312 227.484375c-7.207031-6.882813-15.335937-12.964844-24.203124-18.09375l-18.210938 19.066406 21.691406 20.71875c4.90625 4.691407 6.25 9.925781 3.988282 15.570313-2.472657 6.167968-9.480469 12.753906-21.734376 12.753906h-373.605468c7.503906 16.867188 25.332031 30 48.902344 30h324.703124c45.917969 0 70.058594-49.839844 38.46875-80.015625zm0 0" fill="#ff6344"/><path d="m477.832031 178.929688h-443.664062c-13.808594 0-25 11.191406-25 25v11.222656c0 13.808594 11.191406 25 25 25h443.664062c13.808594 0 25-11.191406 25-25v-11.222656c0-13.808594-11.191406-25-25-25zm0 0" fill="#f4eee0"/><path d="m392.632812 123.828125h-273.195312c-39.484375 0-77.125 15.355469-103.574219 42.265625l-.109375.109375c-4.859375 4.941406-3.96875 12.664063 1.90625 16.5625l.132813.089844c4.351562 2.925781 10.335937 5.171875 17.0625 6.160156 6.722656.996094 14.074219.75 20.941406-.960937 6.382813-1.550782 11.882813-2.019532 16.414063-.914063 4.539062 1.105469 7.867187 3.820313 10.554687 7.914063 1.445313 2.234374 3.289063 4.265624 5.496094 6.148437.265625.230469.582031.472656.816406.691406l.675781.632813c.453125.414062.914063.816406 1.386719 1.203125.941406.773437 1.914063 1.503906 2.917969 2.160156 4.003906 2.65625 8.457031 4.363281 13.023437 5.117187 9.136719 1.480469 18.710938-.96875 26.304688-7.570312 3.519531-3.054688 7.890625-4.445312 12.367187-3.960938 4.472656.492188 8.523438 2.820313 11.449219 6.574219 6.316406 8.128907 15.234375 12.640625 24.363281 13.261719 9.132813.628906 18.445313-2.636719 25.589844-9.828125 3.308594-3.324219 7.585938-5.066406 12.078125-4.917969 4.488281.144532 8.667969 2.160156 11.800781 5.703125 6.761719 7.648438 15.875 11.519531 25.003906 11.519531 9.125 0 18.238282-3.871093 25-11.519531 3.128907-3.542969 7.308594-5.558593 11.800782-5.703125 4.492187-.148437 8.765625 1.59375 12.074218 4.917969 7.144532 7.191406 16.460938 10.457031 25.589844 9.828125 9.128906-.621094 18.046875-5.132812 24.363282-13.261719 2.925781-3.753906 6.980468-6.082031 11.453124-6.574219 4.472657-.484374 8.847657.90625 12.363282 3.960938 7.59375 6.601562 17.171875 9.050781 26.308594 7.570312 4.566406-.753906 9.015624-2.464843 13.023437-5.121093 1.003906-.652344 1.976563-1.382813 2.917969-2.15625.46875-.390625.933594-.792969 1.386718-1.207031l.675782-.628907c.230468-.21875.550781-.460937.8125-.691406 2.207031-1.882813 4.050781-3.914063 5.496094-6.148437 2.6875-4.09375 6.019531-6.808594 10.554687-7.914063 4.53125-1.105469 10.035156-.636719 16.414063.914063 6.867187 1.710937 14.21875 1.957031 20.945312.960937 6.726562-.988281 12.710938-3.234375 17.058594-6.160156 5.949218-3.949219 6.847656-11.761719 1.929687-16.761719-26.449219-26.910156-64.085937-42.265625-103.574219-42.265625zm0 0" fill="#28d05b"/><path d="m165.0625 142.195312c0-20.289062-34.898438-36.734374-77.945312-36.734374-43.050782 0-77.949219 16.445312-77.949219 36.734374 0 20.285157 34.898437 36.734376 77.949219 36.734376 43.046874 0 77.945312-16.449219 77.945312-36.734376zm0 0" fill="#ff5368"/><path d="m333.945312 142.195312c0-20.289062-34.894531-36.734374-77.945312-36.734374-43.046875 0-77.945312 16.445312-77.945312 36.734374 0 20.285157 34.898437 36.734376 77.945312 36.734376 43.050781 0 77.945312-16.449219 77.945312-36.734376zm0 0" fill="#ff5368"/><path d="m502.832031 142.195312c0-20.289062-34.898437-36.734374-77.945312-36.734374-43.050781 0-77.949219 16.445312-77.949219 36.734374 0 20.285157 34.898438 36.734376 77.949219 36.734376 43.046875 0 77.945312-16.449219 77.945312-36.734376zm0 0" fill="#ff5368"/><path d="m487.953125 49.542969c-27.039063-25.894531-65.292969-42.042969-107.703125-42.042969-22.742188 0-44.285156 4.648438-63.546875 12.949219-19.265625-8.300781-40.808594-12.949219-63.550781-12.949219-21.625 0-42.167969 4.210938-60.699219 11.761719-18.53125-7.550781-39.074219-11.761719-60.703125-11.761719-42.410156 0-80.660156 16.148438-107.703125 42.042969-36.488281 34.941406-8.605469 92.652343 44.433594 92.652343h375.039062c53.039063 0 80.921875-57.710937 44.433594-92.652343zm0 0" fill="#ff983b"/><g fill="#ff6344"><path d="m487.953125 49.542969c-7.15625-6.851563-15.105469-13.015625-23.703125-18.386719-9.324219 11.988281-8.25 29.324219 2.957031 40.054688 8.992188 8.613281 8.070313 17.421874 5.710938 23.296874-3.433594 8.550782-12.957031 17.6875-29.398438 17.6875h-429.140625c9.722656 17.195313 29.121094 30 54.101563 30h375.039062c53.039063 0 80.921875-57.710937 44.433594-92.652343zm0 0"/><path d="m311.683594 18.394531c-.203125-.078125-.40625-.15625-.609375-.234375-3.234375-1.246094-6.527344-2.394531-9.875-3.433594-.171875-.050781-.347657-.105468-.519531-.15625-3.382813-1.039062-6.820313-1.96875-10.308594-2.785156-.15625-.039062-.3125-.074218-.472656-.109375l-.050782-.011719c-3.261718-.753906-6.738281-.070312-9.34375 1.867188-4.8125 3.582031-9.375 7.429688-13.652344 11.523438-11.933593 11.429687-16.976562 25.292968-16.511718 38.773437.074218.144531.140625.289063.214844.433594-.074219-.140625-.140626-.28125-.214844-.421875.003906.167968.011718.335937.023437.511718.378907 6.011719 9.484375 7.296876 11.871094 1.675782 2.609375-6.144532 6.042969-12.394532 10.3125-16.484375 12.539063-12.007813 27.492187-21.914063 44.152344-29.09375-1.65625-.710938-3.328125-1.394531-5.015625-2.054688zm0 0"/><path d="m186.1875 16.867188c-.066406-.023438-.132812-.050782-.195312-.070313-7.699219-2.746094-15.707032-4.925781-23.972657-6.480469-3.164062-.59375-6.460937.113282-8.992187 1.941406-5.449219 3.9375-10.585938 8.214844-15.375 12.796876-12.332032 11.808593-17.308594 26.21875-16.449219 40.121093.375 6.042969 9.390625 7.371094 11.867187 1.753907 2.707032-6.136719 6.785157-12.027344 12.378907-17.382813 13.246093-12.6875 29.1875-23.023437 46.984375-30.277344-2.058594-.839843-4.136719-1.648437-6.246094-2.402343zm0 0"/></g><path d="m500.675781 121.277344c2.78125-3.9375 5.128907-8.21875 6.964844-12.796875 9.152344-22.792969 3.703125-46.847657-14.570313-64.351563-29.707031-28.457031-69.789062-44.128906-112.855468-44.128906-22.152344 0-43.503906 4.140625-63.53125 12.316406-20.027344-8.175781-41.382813-12.316406-63.53125-12.316406-21.058594 0-41.457032 3.765625-60.679688 11.191406-19.226562-7.429687-39.625-11.191406-60.683594-11.191406-43.070312 0-83.152343 15.671875-112.859374 44.128906-18.273438 17.503906-23.722657 41.558594-14.570313 64.351563 1.835937 4.578125 4.183594 8.851562 6.960937 12.789062-6.285156 6.296875-9.574218 13.441407-9.574218 20.925781 0 6.9375 2.820312 13.511719 8.136718 19.390626-9.203124 10.269531-6.738281 30.339843 23.9375 34.847656 23.890626 3.539062 34.96875-9.09375 42.703126 2.695312 3.914062 6.050782 14.578124 16.839844 29.402343 19.28125 11.628907 1.886719 23.445313-1.511718 32.410157-9.3125 4.089843-3.550781 9.648437-2.71875 12.976562 1.550782 7.355469 9.472656 18.203125 15.355468 29.761719 16.144531 11.574219.792969 23.03125-3.582031 31.410156-12.019531 3.714844-3.734376 9.285156-3.671876 12.9375.460937 16.71875 18.917969 44.835937 18.546875 61.222656 0 3.640625-4.117187 9.214844-4.207031 12.9375-.464844 17.640625 17.753907 45.835938 15.632813 61.167969-4.109375 3.503906-4.5 9.09375-4.9375 12.976562-1.5625 14.484376 12.59375 36.96875 14.195313 54.417969-1.789062 10.628907-8.730469 7.09375-16.636719 26.253907-11.980469 12.066406 3.007813 25.710937 2.210937 36.910156-2.484375 2.542968 3.085938 3.949218 6.957031 3.949218 11.085938v11.222656c0 9.648437-7.847656 17.5-17.492187 17.5h-443.53125c-9.644531 0-17.492187-7.851563-17.492187-17.5v-6.511719c0-4.144531-3.359376-7.5-7.5-7.5-4.140626 0-7.496094 3.355469-7.496094 7.5v6.511719c0 17.921875 14.574218 32.5 32.488281 32.5h427.21875c3.710937 10.207031 2.441406 21.75-3.644531 31.585937-8.042969 13-22.8125 20.761719-39.507813 20.761719h-324.601562c-26.222657 0-41.519531-17.519531-44.640625-33.792969-.777344-4.070312-4.707032-6.730469-8.773438-5.953125s-6.730468 4.707032-5.953125 8.777344c2.394531 12.496094 9.378907 23.984375 19.664063 32.347656 10.96875 8.910156 24.695312 13.621094 39.703125 13.621094h324.601562c21.921875 0 41.460938-10.417969 52.257813-27.863281 7.546875-12.195313 9.765625-26.34375 6.539062-39.484375h.667969c17.914063 0 32.488281-14.578125 32.488281-32.5v-11.222656c0-7.214844-2.445312-14.1875-6.765625-19.816407 1.777344-2.535156 2.902344-5.472656 3.226563-8.578125.527344-5.070312-1.128906-10.113281-4.566406-13.984375 5.296874-5.871093 8.105468-12.429687 8.105468-19.355469 0-7.472656-3.300781-14.621093-9.578125-20.917968zm-75.839843 50.152344c-34.054688 0-59.621094-10.375-67.710938-21.734376h86.339844c18.125 0 34.777344-6.347656 47.164062-17.242187 2.511719 2.667969 4.632813 6.019531 4.632813 9.742187 0 13.824219-28.925781 29.234376-70.425781 29.234376zm-408.09375-29.234376c0-3.707031 2.089843-7.050781 4.628906-9.746093 12.386718 10.894531 29.039062 17.246093 47.164062 17.246093h86.339844c-8.085938 11.359376-33.65625 21.734376-67.707031 21.734376-41.503907 0-70.425781-15.410157-70.425781-29.234376zm12.558593-87.234374c26.90625-25.769532 63.300781-39.960938 102.488281-39.960938 14 0 27.667969 1.824219 40.828126 5.429688-16.867188 9.289062-38.253907 25.070312-46.371094 43.472656-1.667969 3.792968.046875 8.21875 3.835937 9.890625 3.78125 1.667969 8.210938-.039063 9.886719-3.835938 2.402344-5.449219 6.003906-10.496093 10.703125-14.996093 12.730469-12.195313 27.742187-21.867188 44.613281-28.746094.007813-.003906.011719-.007813.019532-.007813 18.242187-7.4375 37.703124-11.207031 57.851562-11.207031 15.363281 0 30.296875 2.191406 44.589844 6.511719-11.097656 6.320312-21.273438 13.886719-30.386719 22.617187-4.441406 4.253906-8.488281 10.632813-12.027344 18.96875-2.109375 4.96875 1.574219 10.433594 6.898438 10.433594 2.917969 0 5.691406-1.714844 6.90625-4.570312 2.699219-6.359376 5.667969-11.199219 8.59375-14 12.027343-11.523438 26.132812-20.816407 41.917969-27.621094h.003906c18.992187-8.1875 39.367187-12.335938 60.5625-12.335938 39.183594 0 75.582031 14.1875 102.484375 39.960938 13.691406 13.113281 17.8125 31.03125 11.027343 47.929687-7.753906 19.320313-27.484374 31.800781-50.261718 31.800781h-374.929688c-22.777344 0-42.507812-12.480468-50.261718-31.800781-6.785157-16.902343-2.664063-34.820312 11.027343-47.933593zm294.410157 94.734374c-8.089844 11.359376-33.65625 21.734376-67.710938 21.734376s-59.621094-10.375-67.710938-21.734376zm-302.136719 21.328126c8.175781 4.988281 17.484375 8.414062 26.691406 10.765624-12.234375 1.363282-33.058594-3.488281-26.691406-10.765624zm397.058593 24.691406c-1.203124.992187-2.398437 2.34375-4.808593 3.921875-8.898438 5.898437-21.078125 6.121093-30.261719-1.863281-10.410156-9.042969-25.882812-7.574219-34.644531 3.675781-9.839844 12.664062-27.417969 14.101562-38.699219 2.746093-4.785156-4.8125-11.042969-7.34375-17.632812-7.128906-6.570313.21875-12.667969 3.140625-17.171876 8.234375-10.652343 12.054688-28.175781 11.96875-38.753906 0-9.273437-10.492187-24.847656-11.117187-34.808594-1.105469-11.230468 11.308594-28.808593 9.984376-38.703124-2.757812-8.683594-11.148438-24.144532-12.78125-34.644532-3.660156-9.625 8.371094-23.027344 7.988281-32.539062.167968-7.871094-6.496093-5.925782-6.851562-10.53125-11.535156 41.683594.402344 79.085937-14.015625 86.011718-36.714844h.273438c10.949219 35.890626 94.660156 47.847657 142.578125 25.257813 14.019531-6.609375 22.976563-15.398437 25.984375-25.257813h.273438c7.6875 25.203126 49.832031 37.082032 86.066406 36.714844-3.992188 4.09375-3.585938 5.667969-7.988282 9.304688zm45.125-13.929688c9.207032-2.355468 18.527344-5.785156 26.714844-10.789062.828125.953125 1.464844 1.636718 1.328125 2.984375-.40625 3.886719-13.511719 9.4375-28.042969 7.804687zm0 0"/></svg>