<svg id="Filled" height="512" viewBox="0 0 512 512" width="512" xmlns="http://www.w3.org/2000/svg"><path d="m120 72h-48s0 127.015-36.665 179.384a63.349 63.349 0 0 0 -11.335 36.355v168.261a32 32 0 0 0 32 32h80a32 32 0 0 0 32-32v-168.261a63.349 63.349 0 0 0 -11.335-36.355c-36.665-52.369-36.665-179.384-36.665-179.384z" fill="#eb423f"/><rect fill="#c7312e" height="48" rx="16" width="96" x="48" y="72"/><path d="m24 280h144v160h-144z" fill="#ed6f6d"/><path d="m344 296v160a32 32 0 0 0 32 32h80a32 32 0 0 0 32-32v-160" fill="#ff8e26"/><path d="m368 104h96v48h-96z" fill="#d46109"/><path d="m440 88h-48l8-64h32z" fill="#d46109"/><path d="m488 296-40-144.158-64 .158-40 144z" fill="#ff8e26"/><path d="m384 72h64v32h-64z" fill="#ff8e26"/><path d="m344 296h144v128h-144z" fill="#d46109"/><rect fill="#ffd33a" height="48" rx="16" width="128" x="192" y="120"/><path d="m331.99 222.392-27.99-22.392v-32h-96v32l-27.99 22.392a32 32 0 0 0 -12.01 24.988v208.62a32 32 0 0 0 32 32h112a32 32 0 0 0 32-32v-208.62a32 32 0 0 0 -12.01-24.988z" fill="#ea9f26"/><path d="m200 248h112v192h-112z" fill="#ffd33a"/><circle cx="96" cy="368" fill="#c7312e" r="32"/><ellipse cx="416" cy="360" fill="#ff8e26" rx="32" ry="24"/><path d="m458.566 160h5.434a8 8 0 0 0 8-8v-48a8 8 0 0 0 -8-8h-8v-24a8 8 0 0 0 -8-8h-2.938l-5.124-40.992a8 8 0 0 0 -7.938-7.008h-32a8 8 0 0 0 -7.938 7.008l-5.124 40.992h-2.938a8 8 0 0 0 -8 8v24h-8a8 8 0 0 0 -8 8v48a8 8 0 0 0 8 8h5.475l-22.189 79.879a39.763 39.763 0 0 0 -14.3-23.733l-24.986-19.991v-21.531a24.039 24.039 0 0 0 16-22.624v-16a24.028 24.028 0 0 0 -24-24h-96a24.028 24.028 0 0 0 -24 24v16a24.039 24.039 0 0 0 16 22.624v21.531l-24.987 19.991a39.763 39.763 0 0 0 -14.688 26.192c-17.412-28.475-25.5-76.04-29.241-114.543a24.031 24.031 0 0 0 20.916-23.795v-16a24.028 24.028 0 0 0 -24-24h-64a24.028 24.028 0 0 0 -24 24v16a24.031 24.031 0 0 0 20.916 23.8c-3.947 40.582-12.7 91.25-32.135 119a70.988 70.988 0 0 0 -12.781 40.939v168.261a40.045 40.045 0 0 0 40 40h80a39.964 39.964 0 0 0 32-16.028 39.964 39.964 0 0 0 32 16.028h112a39.964 39.964 0 0 0 32-16.028 39.964 39.964 0 0 0 32 16.028h80a40.045 40.045 0 0 0 40-40v-160a8.013 8.013 0 0 0 -.291-2.139zm-402.566-56v-16a8.009 8.009 0 0 1 8-8h64a8.009 8.009 0 0 1 8 8v16a8.009 8.009 0 0 1 -8 8h-64a8.009 8.009 0 0 1 -8-8zm60.765 40h-41.53c.663-5.462 1.238-10.816 1.733-16h38.064c.495 5.184 1.068 10.538 1.733 16zm-74.876 111.972c16.461-23.513 25.836-60.683 31.173-95.972h45.876c5.337 35.289 14.712 72.46 31.173 95.973a54.279 54.279 0 0 1 7.664 16.027h-123.55a54.285 54.285 0 0 1 7.664-16.028zm118.111 200.028a24.028 24.028 0 0 1 -24 24h-80a24.028 24.028 0 0 1 -24-24v-8h128zm0-24h-128v-144h128zm40-296a8.009 8.009 0 0 1 8-8h96a8.009 8.009 0 0 1 8 8v16a8.009 8.009 0 0 1 -8 8h-96a8.009 8.009 0 0 1 -8-8zm136 160v160a24.028 24.028 0 0 1 -24 24h-112a24.028 24.028 0 0 1 -24-24v-208.62a23.878 23.878 0 0 1 9.008-18.74l27.992-22.393a8 8 0 0 0 3-6.247v-24h80v24a8 8 0 0 0 3 6.247l27.99 22.393a23.88 23.88 0 0 1 9.01 18.74zm71.062-264h17.876l4 32h-25.876zm-15.062 48h48v16h-48zm-16 32h80v32h-80zm70.4 64h-60.764l4.445-16h51.88zm-65.209 16h69.649l26.638 96h-122.953zm98.809 264a24.028 24.028 0 0 1 -24 24h-80a24.028 24.028 0 0 1 -24-24v-24h128zm0-40h-128v-112h128z"/><path d="m312 240h-112a8 8 0 0 0 -8 8v192a8 8 0 0 0 8 8h112a8 8 0 0 0 8-8v-192a8 8 0 0 0 -8-8zm-8 192h-96v-176h96z"/><path d="m96 408a39.986 39.986 0 0 0 19.937-74.655 23.863 23.863 0 0 0 4.063-13.345 8 8 0 0 0 -16 0 8 8 0 0 1 -16 0 8 8 0 0 0 -16 0 23.863 23.863 0 0 0 4.063 13.345 39.986 39.986 0 0 0 19.937 74.655zm0-64a24 24 0 1 1 -24 24 24.028 24.028 0 0 1 24-24z"/><path d="m240 312h32a8 8 0 0 0 0-16h-32a8 8 0 0 0 0 16z"/><path d="m240 392h32a8 8 0 0 0 0-16h-32a8 8 0 0 0 0 16z"/><path d="m240 352h32a8 8 0 0 0 0-16h-32a8 8 0 0 0 0 16z"/><path d="m416 392c22.056 0 40-14.355 40-32s-17.944-32-40-32-40 14.355-40 32 17.944 32 40 32zm0-48c13.01 0 24 7.327 24 16s-10.99 16-24 16-24-7.327-24-16 10.99-16 24-16z"/></svg>