<?xml version="1.0" encoding="iso-8859-1"?>
<!-- Generator: Adobe Illustrator 19.0.0, SVG Export Plug-In . SVG Version: 6.00 Build 0)  -->
<svg version="1.1" id="Capa_1" xmlns="http://www.w3.org/2000/svg" xmlns:xlink="http://www.w3.org/1999/xlink" x="0px" y="0px"
	 viewBox="0 0 512 512" style="enable-background:new 0 0 512 512;" xml:space="preserve">
<g>
	<path style="fill:#FF7A49;" d="M181.645,33.389c-1.241,2.153-2.414,4.338-3.972,5.503c-2.186,1.634-5.044,0.98-7.781,0.981
		c-5.742,0.002-11.133-0.066-16.746,1.346c-6.727,1.692-13.319,6.566-18.051,11.559c-3.758,3.966-7.03,7.318-8.428,12.805
		c-1.327,5.208-0.871,10.988-2.985,15.987c-2.102,4.97-0.26,1.012-4.52,3.753c-5.483,3.528-6.88,6.62-6.966,12.938
		c-0.045,3.317,1.374,10.723-0.603,13.53c-1.126,1.598-3.311,1.516-4.858,2.508c-12.379,7.949-19.057,31.452-10.464,43.848
		c8.011,11.557,16.081,24.058,25.603,34.481c26.002,28.463,60.937,42.126,99.178,42.266c44.541,0.163,93.202-14.161,119.462-52.153
		c4.827-6.983,10.965-12.886,15.138-20.337c3.813-6.808,7.339-16.365,6.918-24.303c-0.194-3.653-1.727-4.94-3.117-8.076
		c-1.805-4.072-2.142-8.625-3.981-12.703c-3.5-7.759-6.586-14.761-14.481-19.218c-3.419-1.93-8.384-1.035-10.899-3.744
		c-1.713-1.846-1.887-7.395-2.886-9.715c-3.347-7.772-10.507-11.057-15.546-17.255c-4.913-6.043-2.952-14.415-6.148-21.399
		c-1.666-3.642-4.176-6.179-7.592-8.116c-6.606-3.744-13.657,0.466-20.329-2.099c0.337-7.713-9.278-16.919-15.197-20.609
		c-5.282-3.293-10.927-4.793-17.134-4.446c-6.116,0.342-10.558,3.308-15.546,6.376c-4.301,2.646-10.318,8.057-15.532,8.24
		c-2.496,0.088-4.399-2.557-7.144-3.194c-7.834-1.819-16.275,1.597-22.08,6.701C183.661,29.987,182.632,31.678,181.645,33.389z"/>
	<path style="fill:#FF7A49;" d="M94.902,363.943c-1.88-1.531-4.144-2.693-6.878-3.36c-8.903-2.17-18.429-1.267-26.972,1.932
		c-4.613,1.727-8.987,4.137-12.866,7.178c-3.528,2.767-5.888,6.546-10.138,8.101c-10.743,3.929-27.386-0.107-33.218,12.738
		c-3.844,8.467-2.886,21.602,1.451,29.751c3.025,5.683,8.867,10.445,13.756,14.482c9.999,8.255,16.455,9.447,28.942,8.713
		c13.814-0.811,27.321-7.206,41.291-5.009c3.373,0.531,9.181,1.642,12.443,0.176c6.32-2.842,4.924-13.146,4.245-18.611
		c-0.991-7.968-1.463-15.993-2.094-24.047C104.062,385.723,103.518,370.961,94.902,363.943z"/>
	<path style="fill:#FF7A49;" d="M370.524,343.453c-4.157,2.73-4.388,6.118-4.594,12.172c-0.497,14.627-0.215,30.151-13.568,39.453
		c-6.943,4.837-15.675,5.176-23.485,7.856c-5.117,1.756-14.02,3.033-17.278,7.7c12.039,3.431,27.218-1.983,35.234,11.838
		c2.611,4.502,3.735,10.427,3.667,15.507c-0.023,1.768-2.339,12.342-0.519,13.555c1.614,1.076,10.36-3.768,12.676-4.354
		c5.093-1.289,11.715-3.052,16.746-0.796c7.297,3.272,8.387,12.057,10.015,19.066c8.17-1.301,25.928-5.747,26.42,8.781
		c0.246,7.266-6.758,8.941-11.023,12.968c-2.493,2.354-4.099,2.586-0.706,4.789c10.245,6.645,33.303-13.831,38.033-21.464
		c10.068-16.246,3.816-46.01,24.522-53.087c18.732-6.403,34.443-10.985,42.116-31.399c2.203-5.862-0.102-10.5-2.321-15.987
		c-3.334-8.243-9.975-13.246-15.897-19.333c-6.259-6.434-14.266-8.101-23.007-8.88c-10.093-0.899-19.95,3.965-29.665,2.169
		c-10.15-1.876-16.999-8.524-28.151-9.057c-13.282-0.636-24.246,1.629-36.434,7.025
		C372.223,342.452,371.304,342.941,370.524,343.453z"/>
</g>
<g>
	<path style="fill:#E8643F;" d="M168.694,99.841c-6.944-0.555-13.643,0.133-20.498,2.354c-7.258,2.352-14.134,6.871-21.069,9.987
		c-6.924,3.111-12.127,10.397-16.133,16.66c-3.722,5.818-6.597,11.851-7.338,18.735c-0.637,5.912-2.673,12.533-1.482,18.474
		c2.336,11.66,15.057,21.046,20.737,6.479c3.967-10.173,7.041-20.17,19.898-20.785c1.679-0.08,5.544,1.002,6.861,0.535
		c2.835-1.005,1.157-0.977,2.597-2.981c3.961-5.513,6.238-9.733,13.29-12.163c8.502-2.93,19.837,0.054,22.688-10.318
		c3.518-12.797-2.278-24.572-15.373-26.5C171.468,100.111,170.076,99.952,168.694,99.841z"/>
	<path style="fill:#E8643F;" d="M170.593,82.143c-0.078,0.098-0.147,0.203-0.227,0.3C170.484,82.289,170.549,82.202,170.593,82.143z
		"/>
	<path style="fill:#E8643F;" d="M186.468,49.995c-4.556,0.013-9.573,2.037-12.652,5.478c-3.24,3.621-26.203,11.354-24.404,19.076
		c1.119,4.754,8.63,5.596,12.387,6.684c3.65,1.058,10.953,6.325,14.383,4.521c1.939-1.02,2.494-8.398,5.191-10.086
		c4.003-2.506,5.854,1.616,9.258-2.193C196.958,66.398,200.668,49.954,186.468,49.995z"/>
	<path style="fill:#E8643F;" d="M263.914,111.273c-7.624-8.307-22.559-12.29-31.56-13.668c-1.186-0.182-2.376-0.387-3.57-0.601
		c-1.79-0.869-3.738-1.283-5.654-1.074c-6.07-1.195-12.197-2.418-18.29-2.787c-5.893-7.941-15.763-7.164-24.382-2.027
		c-3.247,1.935-1.922,6.91,1.538,7.515c-2.586,8.665,8.046,10.727,9.08,19.171c0.698,5.697-2.939,8.549-3.986,13.509
		c-1.71,8.103,6.507,4.589,10.708,9.959c4.994,6.383,1.43,15.026,2.815,22.265c1.048,5.477,5.145,6.492,10.363,7.676
		c3.947-6.665,5.353-14.453,9.893-20.708c6.821-9.398,18.205-13.095,29.225-14.722c7.425-1.097,17.041-0.711,18.424-10.241
		C269.356,119.772,267.399,115.071,263.914,111.273z"/>
	<path style="fill:#E8643F;" d="M214.915,208.873c3.306-8.02,6.524-16.104,5.19-24.742c-0.825-5.344-4.296-9.591-9.088-10.879
		c-3.337-0.897-7.119-0.234-9.917-2.986c-3.961-3.896-3.107-11.831-10.499-5.611c-4.353-3.244-10.547-3.8-14.767,0.981
		c-2.039,2.31-4.029,5.482-5.803,9.151c-6.983-2.809-14.333-0.92-19.471,9.234c-1.581,3.126-2.599,6.85-2.98,10.647
		c-5.595-0.998-12.055,5.98-6.597,11.862c10.963,11.815,30.484,19.302,46.085,20.021c4.355,0.201,13.637,3.083,17.477,1.91
		c5.893-1.799,8.031-13.918,10.068-18.857C214.713,209.362,214.814,209.117,214.915,208.873z"/>
	<path style="fill:#E8643F;" d="M303.67,202.096c3.005,3.673,0.666,1.169,0.949-0.967c0.311-2.341,0.161-5.464,0.067-7.821
		c-0.21-5.28-0.966-9.979-3.687-14.559c-4.132-6.957-12.315-6.854-18.06-2.327c-0.984,0.775-1.87,1.624-2.703,2.513
		c-0.3-1.548-0.714-3.109-1.31-4.692c-2.335-6.198-10.399-11.697-16.902-6.876c-2.146,1.591-4.071,3.308-5.831,5.122
		c-2.909-2.834-6.497-2.336-9.663-3.917c-3.103-1.55-3.832-3.829-7.775-3.925c-6.801-0.164-14.745,4.845-16.859,11.346
		c-2.922,8.987-0.006,18.433-3.536,27.481c-2.05,5.256-11.851,20.352-7.394,25.749c2.557,3.096,11.608,2.71,14.962,2.989
		c7.491,0.625,14.232,1.079,21.737-0.029c9.539-1.408,18.405-4.021,27.811-5.857c8.101-1.581,15.265-5.608,22.614-9.159
		C304.628,214.009,309.996,209.825,303.67,202.096z"/>
	<path style="fill:#E8643F;" d="M340.504,152.844c-0.081-0.225-0.191-0.43-0.286-0.646c-0.001-4.285-0.015-8.571-0.138-12.854
		c-0.218-7.615-5.735-11.326-11.41-11.141c0.035-1.625,0.073-3.249,0.104-4.871c0.13-6.65-6.023-11.386-12.047-11.785
		c-0.001-0.105,0.004-0.224,0.002-0.323c-0.158-6.506-4.425-10.226-9.292-11.022c-2.897-7.241-12.663-10.253-18.449-4.626
		c-8.216,7.991-5.673,20.746-11.77,29.756c6.323,2.519,12.195,1.754,16.954,8.442c5.006,7.037,1.773,15.391,2.117,23.159
		c0.424,9.568,12.83,6.983,16.445,15.597c4.185,9.972-0.343,22.495,0.87,32.714c9.008-0.184,19.759-10.728,24.66-17.62
		C344.673,178.609,344.145,162.984,340.504,152.844z"/>
	<path style="fill:#E8643F;" d="M280.064,52.791c-8.026-2.813-20.521-5.764-28.377-1.675c-7.691,4.003-5.826,13.146,1.022,17.184
		c3.308,1.95,7.159,2.297,10.55,4.81c0.962,0.713,9.393,8.698,9.869,8.312c3.688-2.988,5.473-7.365,8.523-10.866
		c2.149-2.466,6.116-4.291,7.489-7.243c2.548-5.483-4.368-8.817-8.235-10.222C280.63,52.991,280.35,52.891,280.064,52.791z"/>
	<path style="fill:#E8643F;" d="M108.197,430.725c0.003-0.061,0.006-0.123,0.009-0.185c0.27-6.766-2.337-14.135-3.37-20.835
		c-0.687-4.456-1.637-10.548-5.834-13.362c-2.721-1.825-10.823-2.659-14.303-2.939c-2.399-0.193-4.738,0.153-6.794,1.556
		c-0.452,0.308-4.682,5.202-3.715,5.369c-2.353-0.408-4.806-0.158-6.88,0.764c-5.997-2.684-14.609,0.401-14.065,8.513
		c0.032,0.472,0.043,0.946,0.064,1.42c-3.806-1.82-8.532-1.497-11.728,1.917c-1.789,1.912-2.963,4.086-3.94,6.328
		c-6.421-1.491-14.777,2.853-13.846,10.254c0.062,0.492,0.124,0.984,0.185,1.477c0.063,0.503,0.167,0.965,0.271,1.426
		c-0.024-0.019-0.049-0.038-0.074-0.056c0.049,0.169,0.107,0.323,0.156,0.49c0.021,0.081,0.052,0.152,0.074,0.232
		c0.881,3.177,2.275,8.724,5.421,10.324c2.842,1.445,11.708,1.002,14.976,0.7c5.185-0.479,10.126-1.52,15.192-2.9
		c9.523-2.596,19.635-5.817,29.602-5.694C95.797,435.601,107.6,441.787,108.197,430.725z"/>
	<path style="fill:#E8643F;" d="M454.323,405.176c-2.321-6.206-8.816-9.501-14.985-6.096c-3.263,1.801-12.335,10.154-21.599,17.674
		c-0.938,0.374-1.779,0.884-2.493,1.529c-2.262-1.943-5.404-2.849-9.169-1.722c-11.255,3.37-31.106,10.957-36.103,22.962
		c-2.508,6.027-0.177,5.421,4.979,5.986c10.15,1.111,11.404,7.69,13.995,15.69c2.886,8.909,13.246,0.536,20.491,3.535
		c6.168,2.554,7.795,9.324,5.995,15.047c-1.279,4.066-3.313,5.457,1.281,7.435c7.332,3.157,17.732-5.028,22.342-10.136
		c4.029-4.465,5.391-10.216,7.863-15.565C455.194,443.624,461.637,424.736,454.323,405.176z"/>
	<path style="fill:#E8643F;" d="M501.271,371.714c-6.487-9.943-17.359-6.746-27.141-0.92c-2.266-0.023-4.502,0.83-6.341,2.278
		c-8.239-6.799-17.381-2.102-26.185-5.957c-3.975-1.741-6.804-6.156-10.757-8.202c-3.613-1.87-7.758-2.626-11.768-3.018
		c-14.318-1.397-28.417,3.219-40.763,10.189c-7.351,4.15-24.477,14.826-15.251,25.881c2.984,3.574,9.86,0.75,13.888,0.091
		c21.144-3.457,45.084-17.034,65.18-3.729c9.733,6.444,11.594,23.8,11.839,34.624c10.81,1.397,27.832-9.329,35.041-16.736
		C496.861,398.151,508.994,383.552,501.271,371.714z"/>
</g>
<path style="fill:#FFD2C3;" d="M307.556,414.991c-5.265,4.202-9.58,9.993-12.155,15.249c-3.334,6.804-5.209,14.854-5.022,22.468
	c0.401,16.325,16.576,32.217,31.418,36.782c3.906,1.201,7.852,1.848,11.822,2.736c2.732,0.611,4.292,1.947,6.708,3.16
	c7.343,3.688,14.78,0.899,22.368,0.232c5.622-0.495,10.149,2.237,15.766,2.357c9.531,0.204,26.684-1.891,32.551-10.658
	c2.616-3.91,5.538-13.195,3.965-17.756c-3.14-9.105-18.673-5.709-25.462-4.649c1.108-8.612-0.663-18.121-10.251-21.914
	c-4.937-1.953-12.531-1.602-17.799-1.498c-3.641,0.072-12.434,5.168-13.997,3.292c-0.945-1.135,0.629-4.994,0.572-6.256
	c-0.124-2.741-0.642-6.341-1.149-9.028c-0.965-5.116-2.959-9.571-6.664-13.182c-4.605-4.489-12.169-7.585-18.591-7.284
	C316.604,409.276,311.775,411.624,307.556,414.991z"/>
<path style="fill:#FFC3B3;" d="M384.484,468.488c-13.432-1.685-26.319,4.037-40.081,1.604c-6.652-1.176-8.997,7.586-2.767,10.038
	c2.191,0.863,4.648,1.733,7.242,2.539c-5.172-0.277-10.378-1.108-15.786-3.252c-13.97-5.539-26.532-16.706-33.718-29.943
	c-2.05-3.777-8.007-1.194-6.885,2.902c5.092,18.593,15.777,32.917,33.123,42.117c15.456,8.198,37.67,11.482,52.995,1.578
	c4.782-3.09,4.12-8.915,0.363-11.665c3.625-1.276,6.86-3.358,9.388-6.565C391.459,473.907,389.381,469.101,384.484,468.488z"/>
<path style="fill:#EB3840;" d="M86.96,154.376c-3.837,8.786,2.378,20.878,2.342,29.96c-0.059,14.589-0.852,29.203,0.784,43.742
	c1.972,17.525,1.668,35.115,1.637,52.743c-0.054,30.66,6.367,60.92,9.369,91.311c0.811,8.212,1.275,16.388,2.497,24.548
	c1.974,13.184,3.526,26.374,5.302,39.551c1.412,10.479,8.359,19.806,14.324,28.276c7.124,10.116,18.939,12.346,30.976,13.855
	c15.626,1.959,31.761,1.62,47.519,2.624c18.234,1.162,36.42,5.502,54.689,5.481c10.155-0.012,20.572,1.747,30.618-0.48
	c11.522-2.555,9.301-8.891,7.348-18.312c-3.168-15.285-0.435-39.325,10.796-51.132c6.221-6.539,16.223-9.379,24.276-12.591
	c8.437-3.366,18.769-6.76,26.331-11.784c3.602-2.394,3.653-1.297,5.185-6.316c0.868-2.844,1.117-6.601,1.538-9.599
	c4.733-33.718,9.835-66.52,11.09-100.62c0.675-18.34,2.78-36.73,4.418-55.058c0.942-10.538,2.424-21.194,2.987-31.739
	c0.461-8.635-0.076-17.109,0.697-25.708c0.51-5.67,1.874-15.226-3.185-19.407c-7.09-5.857-12.634,7.179-15.807,12.455
	c-7.874,13.095-16.578,24.339-28.211,34.38c-11.151,9.626-21.815,21.161-35.008,28.206c-17.275,9.225-35.653,10.539-54.512,13.609
	c-27.978,4.556-56.128-1.151-81.815-12.549c-10.421-4.624-16.277-11.324-25.188-18.093c-9.68-7.354-20.532-14.779-28.64-23.855
	c-3.423-3.831-7.297-7.28-10.617-11.24c-1.725-2.058-7.274-13.971-10.99-13.06C87.402,153.649,87.155,153.93,86.96,154.376z"/>
<path style="fill:#CF242C;" d="M210.015,233.136c-8.31,7.984-8.799,26.574-11.285,37.994c-7.254,33.325-9.887,66.863-1.391,100.249
	c5.084,19.977,16.959,37.611,33.114,50.335c6.12,4.82,12.996,12.148,19.96,15.548c10.243,5.001,23.226,4.152,34.071,7.619
	c3.883,1.242,6.897,2.625,8.744,6.593c2.204,4.734,5.368,24.18,2.571,29.221c-4.475,8.063-21.398,5.019-28.448,5.659
	c-19.481,1.767-37.272,0.206-56.937-1.502c-20.978-1.821-40.597-0.459-61.394-5.876c-7.417-1.932-16.516-3.253-22.771-7.977
	c-17.182-12.976-17.268-41.84-20.816-61.1c-2.087-11.331-2.774-22.884-3.843-34.34c-2.145-22.982-6.062-45.691-7.369-68.786
	c-1.46-25.778-2.361-51.427-4.746-77.144c-0.941-10.145-3.121-20.235-3.645-30.397c-0.737-14.286-1.789-31.896,3.009-45.572
	c10.544,7.665,18.314,16.2,25.702,26.912c10.91,15.817,24.406,23.708,40.168,33.617C171.067,224.469,191.878,226.54,210.015,233.136
	z"/>
<path style="fill:#FFD45C;" d="M186.638,314.954c-13.981,14.428-18.007,38.078-10.219,56.648c2.072,4.94,5.332,7.666,8.61,11.646
	c3.191,3.874,5.438,7.376,9.721,9.847c4.598,2.653,10.089,4.389,15.143,5.936c16.983,5.199,37.404,8.713,53.581-0.407
	c15.173-8.554,24.773-24.762,27.92-41.841c3.207-17.406,4.855-33.806-7.261-47.856c-4.768-5.529-10.06-12.487-17.21-14.422
	c-7.844-2.123-16.38-4.362-24.52-4.985c-6.364-0.488-11.042-2.335-17.387-0.297C210.287,293.955,197.287,303.966,186.638,314.954z"
	/>
<path style="fill:#FFBE4A;" d="M171.72,363.927c-3.177-10.022-2.741-21.375,2.404-33.294c4.725-10.946,39.857-53.019,45.905-24.887
	c3.947,18.362-2.996,37.897,3.09,56.389c2.26,6.868,5.626,12.829,10.968,17.859c3.55,3.342,11.335,5.586,13.8,9.622
	c2.503,4.097,6.013,13.114-0.361,15.819c-2.838,1.204-10.342-0.533-13.545-0.717c-4.302-0.248-8.586-0.601-12.775-1.673
	c-6.249-1.599-11.444-4.224-17.335-6.701C187.977,389.658,176.222,378.128,171.72,363.927z"/>
<g>
	<path style="fill:#231F20;" d="M509.339,365.375c-6.716-17.502-23.341-26.837-41.77-25.96c-5.327,0.254-10.608,1.415-15.932,1.506
		c-4.471,0.076-8.276-1.422-12.283-3.242c-7.513-3.412-15.009-6.077-23.209-7.23c-14.956-2.101-31.633-0.279-43.414,9.463
		c0.843-13.874,1.648-27.751,2.545-41.621c1.081-16.713,3.28-33.131,5.518-49.712c2.268-16.797,3.206-33.721,3.498-50.66
		c0.247-14.302,1.104-28.932-0.063-43.203c-0.53-6.479-1.56-12.932-3.932-19.009c-1.205-3.086-4.202-4.517-7.281-2.962
		c-2.384,1.204-4.176,3.349-5.707,5.78c-0.123-1.094-0.254-2.152-0.376-3.148c-1.011-8.231-2.867-16.033-6.238-23.62
		c-3.275-7.369-7.779-14.928-15.538-18.135c-1.263-0.522-2.528-0.924-3.854-1.251c-0.539-0.133-2.548-0.722-2.429-0.484
		c-0.975-0.97-2.867-7.055-4.012-9.233c-4.656-8.85-12.186-15.508-21.214-18.914c0.719-3.091,0.644-6.522,0.439-9.515
		c-0.428-6.245-2.34-12.356-7.199-16.559c-4.221-3.65-10.584-7.113-16.312-6.91c-2.074,0.074-5.809,1.692-6.907,0.988
		c-1.746-1.12-2.98-5.359-4.061-7.117c-12.395-20.159-44.747-21.979-59.796-3.976c-0.296-0.147-0.592-0.294-0.895-0.43
		c-11.963-5.358-27.49-2.275-37.232,6.252c-2.577,2.256-4.037,5.586-6.555,7.775c-2.872,2.498-8.285,2.088-11.843,2.318
		c-8.546,0.551-16.664,2.061-23.847,7.009c-10.356,7.133-15.13,18.125-15.217,30.245c-6.979,4.094-11.901,10.935-14.784,18.674
		c-0.997,2.676-1.675,5.366-1.962,8.208c-0.289,2.865,0.367,6.544-1.765,8.757c-1.707,1.772-4.667,2.822-6.655,4.336
		c-2.302,1.753-4.07,3.76-5.525,6.263c-3.386,5.826-5.131,12.582-5.927,19.224c-0.244,2.036-0.496,4.384-0.516,6.757
		c-1.795,0.603-3.199,2.275-3.164,4.319c0.282,16.232-0.134,32.467,0.283,48.701c0.427,16.65,1.745,33.216,2.916,49.823
		c2.378,33.724,2.773,67.439,6.794,101.047c0.394,3.292,0.811,6.58,1.214,9.871c-5.45-2.378-11.784-2.865-17.688-3.194
		c-8.511-0.474-16.547,1.614-23.783,6.094c-8.341,5.165-14.733,11.335-24.57,13.706c-7.797,1.879-16.297,2.516-22.324,8.483
		c-11.493,11.378-6.396,32.406,0.924,44.563c4.202,6.979,10.188,13.271,17.563,16.895c9.103,4.472,18.843,4.063,28.55,2.061
		c10.304-2.125,19.774-5.504,30.411-4.96c5.985,0.306,14.763,1.61,20.895-1.162c1.542,9.621,4.499,19.229,11.399,26.415
		c8.983,9.354,23.802,12.525,36.062,14.795c15,2.777,30.267,3.578,45.453,4.701c15.325,1.133,30.327,2.933,45.72,3.047
		c15.799,0.117,31.743,1.612,47.349-1.822c4.635-1.02,9.065-3.203,10.996-7.78c0.154-0.364,0.28-0.733,0.393-1.104
		c8.206,10.93,21.783,17.314,35.414,20.299c20.622,4.517,42.183,3.356,62.804-0.545c9.644-1.825,20.021-4.018,28.621-8.92
		c11.519-6.565,23.631-18.907,25.949-32.362c1.182-6.861,0.593-13.829,1.485-20.709c0.333-2.568,0.882-5.091,1.497-7.602
		c0.14-0.018,0.275-0.02,0.418-0.049c7.391-1.51,14.951-5.216,21.805-8.339c6.983-3.182,13.803-7.129,19.274-12.584
		C511.205,398.304,515.156,380.532,509.339,365.375z M362.991,160.377c0.399-0.213,0.767-0.49,1.078-0.853
		c0.605-0.709,1.113-1.485,1.55-2.306c2.555-3.012,5.205-6.002,7.554-9.179c0.074-0.1,0.146-0.206,0.219-0.314
		c1.819,9.575,1.399,19.605,1.216,29.285c-0.29,15.321-0.21,30.625-1.194,45.927c-1.033,16.073-3.814,31.837-5.663,47.81
		c-1.829,15.799-2.744,31.689-3.752,47.557c-1.02,16.055-2.368,32.015-4.925,47.911c-1.062,6.602-1.72,13.849-3.771,20.209
		c-1.565,4.852-5.468,6.571-10.199,7.478c-5.559,1.066-10.917,2.206-16.104,3.807c0.909-3.247,1.595-6.52,2.287-9.407
		c2.043-8.515,3.375-17.238,3.881-25.984c0.986-17.055-1.291-34.37-8.104-50.104c-6.569-15.173-16.695-28.414-23.979-43.215
		c-6.945-14.112-7.71-29.272-6.912-44.602c11.584-5.115,22.435-11.892,32.08-20.177c9.743-8.37,17.673-18.333,24.342-29.27
		c1.294-2.123,2.551-4.268,3.797-6.419C358.547,165.782,360.754,163.073,362.991,160.377z M221.89,176.317
		c-1.467-2.989-3.7-5.44-6.623-7.014c0.739-4.254,4.235-8.964,6.408-11.734c3.497-4.459,7.531-8.647,12.662-11.179
		c5.607-2.767,12.033-3.609,18.145-4.57c5.437-0.855,12.302-1.097,16.339-5.316c1.435-1.5,2.191-3.422,3.949-4.603
		c1.387-0.931,3.022-1.289,4.685-1.336c0.59,0.302,1.335,0.309,2.029,0.084c0.563,0.06,1.122,0.139,1.662,0.242
		c6.473,1.232,10.981,5.64,11.649,12.277c0.6,5.959-0.294,12.026,2.03,17.732c2.245,5.513,7.432,7.326,11.125,11.529
		c4.642,5.284,5.257,12.74,3.73,19.349c-0.8,3.46-2.03,6.846-3.652,10.003c-1.129,2.198-2.629,4.222-3.639,6.459
		c-10.796,5.913-22.404,10.295-34.6,12.98c-16.839,3.706-34.465,4.652-51.901,4.19C216.492,208.498,230.386,193.625,221.89,176.317z
		 M209.664,167.668c-1.303-0.235-2.587-0.499-3.761-1.043c-3.072-1.424-1.508-5.368-1.063-8.269
		c0.73-4.757,0.547-9.057-1.576-13.462c-2.65-5.499-7.075-9.379-12.28-11.688c3.659-8.31,3.592-19.76,0.632-27.571
		c-1.745-4.606-4.922-7.345-8.096-10.92c-1.586-1.786-2.883-3.619-2.395-6.138c0.392-2.024,2.145-4.745,4.398-4.952
		c2.807-0.259,4.361-1.978,4.722-4.722c1.079-8.188,11.235-14.335,18.267-16.429c4.978-1.482,10.412-2.179,15.527-1.037
		c4.54,1.014,6.868,4.242,10.433,6.872c6.482,4.782,14.053,2.834,21.245,5.233c5.409,1.804,9.446,6.816,13.527,11.299
		c0.608,6.1,4.705,11.241,7.785,16.79c2.753,4.961,3.014,9.131,1.382,14.508c-0.499,1.645-1.005,3.269-1.404,4.902
		c-3.369,0.181-6.664,1.166-9.577,3.137c-2.373,1.605-3.338,4.023-5.337,5.826c-2.473,2.23-8.114,2.333-11.314,2.89
		c-7.392,1.286-14.837,2.585-21.466,6.312C220.996,143.882,209.121,156.577,209.664,167.668z M197.301,155.273
		c-0.884,5.882-3.367,12.803,1.847,17.477c3.69,3.309,9.696,2.133,13.103,5.505c6.098,6.034,2.516,17.49,0.079,24.283
		c-2.655,7.4-5.718,14.588-6.224,22.471c-3.785-0.207-7.554-0.462-11.293-0.766c-24.31-1.975-43.825-19.935-62.163-34.403
		c-2.316-1.827-4.615-3.685-6.86-5.599c-1.828-10.795,0.882-22.997,11.865-27.437c5.706-2.307,11.727-1.028,17.461-2.6
		c4.536-1.243,5.852-5.994,8.709-9.175C173.171,134.625,199.944,137.68,197.301,155.273z M308.34,71.049
		c8.535,2.015,15.451,8.183,18.801,16.959c1.982,5.19,2.757,11.628,8.723,13.719c1.773,0.621,3.694,0.655,5.468,1.32
		c3.484,1.305,5.782,4.366,7.696,7.418c4.184,6.674,6.559,14.114,7.537,21.915c0.555,4.425,0.669,8.962,0.409,13.413
		c-0.186,3.176-0.936,6.118-0.859,9.191c-8.656,12.242-16.968,24.738-28.119,34.935c-2.671,2.442-5.437,4.75-8.273,6.949
		c1.667-7.012,1.845-14.588-0.723-21.4c-1.295-3.435-3.214-6.642-5.722-9.334c-2.443-2.622-5.921-4.094-8.318-6.702
		c-4.737-5.157-1.893-14.991-3.538-21.404c-1.973-7.696-8.874-13.77-16.668-16.047c2.224-4.111,4.329-8.132,4.148-13.406
		c-0.08-2.33-0.538-4.444-1.228-6.441c4.332-2.062,9.437-3.497,13.815-1.108c4.608,2.514,3.654,9.496,3.628,13.904
		c-0.012,2.172,2.091,3.644,4.132,3.147c4.35-1.06,10.566-3.707,13.462,1.284c2.243,3.863,0.904,9.423,0.052,13.504
		c-0.648,3.1,3.474,5.046,5.207,2.195c3.495-5.748,3.742-14.806-0.415-20.337c-4.184-5.566-10.09-5.204-15.96-3.924
		c-0.215-6.214-1.388-12.492-7.785-15.281c-4.898-2.136-12.961-1.245-18.094,2.164c-1.593-3.041-3.542-5.953-5.28-9.131
		c-5.999-10.97,9.239-16.744,17.717-17.943c2.635-0.373,5.195-0.36,7.649-0.031C306.575,71.037,307.456,71.253,308.34,71.049z
		 M250.604,16.747c11.144,0.9,17.658,7.569,22.483,17.019c1.899,3.718,4.378,7.666,8.765,8.531c2.096,0.414,4.186-0.049,6.252-0.426
		c3.008-0.55,4.519-0.5,7.389,0.873c4.846,2.318,7.504,5.411,8.167,10.802c0.302,2.454-0.217,5.168-0.51,7.821
		c-0.662-0.057-1.324-0.115-1.994-0.14c-10.303-0.377-24.175,4.086-29.682,13.726c-2.585-3.732-5.981-6.952-9.37-9.007
		c-4.534-2.748-9.643-3.301-14.723-4.327c-3.667-0.741-6.061-2.382-8.637-4.299c0.048-3.829-1.367-7.724-2.282-11.416
		c-0.935-3.776-1.935-7.522-3.558-11.072c-2.019-4.414-4.918-8.385-8.663-11.358C231.64,18.241,241.8,16.036,250.604,16.747z
		 M146.608,49.198c12.326-6.073,28.981,1.546,38.382-10.287c6.589-8.293,17.038-13.426,27.82-10.514
		c6.294,1.7,10.234,6.979,12.333,12.946c1.104,3.137,1.499,6.742,2.169,10.209c-8.243-1.655-17.58,0.722-24.901,3.92
		c-4.569,1.997-8.673,4.825-12.287,8.255c-3.34,3.169-5.376,6.77-7.49,10.628c-4.836,0.818-8.166,4.331-9.729,8.668
		c-3.972-2.884-8.468-5.159-11.187-6.563c-9.491-4.901-20.384-8.523-31.052-5.421C132.71,61.812,137.735,53.57,146.608,49.198z
		 M97.663,137.7c1.233-5.378,3.165-12.107,7.884-15.433c5.204-3.668,10.177-6.09,11.373-12.914c0.578-3.298,0.276-6.701,0.986-9.967
		c0.642-2.952,1.902-5.861,3.403-8.469c5.792-10.057,16.489-12.7,27.216-9.529c5.633,1.666,11.342,4.059,16.533,6.801
		c2.656,1.404,5.03,3.273,7.416,5.101c0.544,2.018,1.473,3.927,2.824,5.559c3.876,4.683,8.152,7.334,9.174,13.81
		c1.019,6.454-0.953,12.373-3.62,18.07c-6.394-0.451-13.01,0.988-18.517,4.266c-3.192,1.901-5.767,4.4-7.688,7.575
		c-1.039,1.717-1.605,3.318-2.55,3.76c-2.844,1.33-7.587,0.681-10.74,1.344c-3.364,0.708-6.723,1.864-9.7,3.606
		c-7.193,4.209-11.39,11.623-12.805,19.693c-0.347,1.98-0.541,4.162-0.519,6.384c-3.5-3.55-6.706-7.372-9.419-11.622
		c-3.397-5.322-6.924-11.689-11.961-15.883C97.131,145.811,96.769,141.599,97.663,137.7z M91.964,158.902
		c3.935,4.547,6.759,10.858,9.701,15.312c6.1,9.234,14.659,16.548,23.313,23.298c18.847,14.702,38.857,32.779,63.3,36.522
		c2.024,0.31,4.066,0.56,6.115,0.786c0.293,5.439-1.691,11.229-3.661,16.027c-2.689,6.547-6.235,12.976-10.364,18.718
		c-9.206,12.8-22.073,22.049-35.651,29.73c-11.38,6.438-23.042,13.023-32.217,22.502c-4.524,4.674-8.758,10.461-11.282,16.765
		c-1.032-8.771-1.908-17.56-2.55-26.376c-1.323-18.168-1.977-36.376-3.223-54.549C93.212,225.04,88.425,191.596,91.964,158.902z
		 M86.887,433.889c-7.19-0.338-13.703-0.03-20.747,1.667c-8.78,2.115-17.605,5.619-26.759,5.43
		c-7.896-0.163-14.479-3.985-19.696-9.72c-4.781-5.256-8.215-11.954-9.72-18.896c-1.311-6.047-1.64-14.353,2.443-19.479
		c4.155-5.216,11.712-5.461,17.7-6.794c7.851-1.748,14.576-5.478,20.803-10.479c6.511-5.229,13.255-10.077,21.842-10.793
		c7.079-0.591,15.975-0.286,23.209,1.735c1.418,11.43,2.862,22.856,4.336,34.279c1.355,10.495,2.29,21.042,3.516,31.548
		C98.28,434.243,92.766,434.165,86.887,433.889z M288.683,478.092c-7.654,1.943-15.964,2.192-23.822,2.27
		c-29.044,0.286-57.852-2.35-86.77-4.745c-14.291-1.184-28.676-3.031-42.234-7.922c-10.976-3.96-16.428-11.268-19.135-22.432
		c-2.564-10.575-3.101-21.579-4.709-32.321c-2.293-15.322-4.716-30.623-6.981-45.949c-0.611-4.137-1.201-8.276-1.769-12.418
		c2.39-5.942,4.308-11.968,7.649-17.557c3.425-5.731,8.143-10.545,13.306-14.733c11.507-9.333,25.287-15.092,37.103-23.919
		c12.316-9.201,22.732-20.571,29.758-34.311c4.266-8.343,9.214-18.965,8.2-28.763c8.676,0.718,17.473,0.883,26.074,1.046
		c12.823,0.243,25.657-0.385,38.338-2.371c10.151-1.589,20.08-4.399,29.554-8.31c-2.27,13.186-2.848,26.41,1.204,39.494
		c4.687,15.135,14.649,28.148,21.812,42.145c7.973,15.581,11.515,32.128,11.124,49.629c-0.207,9.258-1.453,18.441-3.563,27.454
		c-0.956,4.086-2.084,8.132-3.367,12.127c-0.546,1.7-1.171,3.437-1.712,5.197c-2.199,1.066-4.369,2.268-6.509,3.657
		c-10.143,6.581-18.811,16.201-22.28,27.98c-3.804,12.913,0.214,26.454,1.625,39.424
		C291.998,476.602,292.402,477.148,288.683,478.092z M402.008,489.156c-0.174,0.038-0.349,0.076-0.523,0.113
		c-17.707,3.795-36.374,5.192-54.4,3.113c-16.93-1.952-33.863-8.156-44.628-21.55c-0.176-0.954-0.367-1.899-0.547-2.827
		c-2.812-14.471-7.612-29.4,1.359-42.653c2.301-3.399,5.088-6.41,8.201-9.052c9.888-3.658,22.858-3.966,29.406,5.859
		c4.951,7.428,2.66,17,3.111,25.305c0.172,3.164,3,5.603,6.213,4.733c9.217-2.496,20.095-8.636,29.3-2.993
		c4.396,2.695,5.172,5.981,5.259,10.709c0.068,3.695,1.147,7.034,4.632,8.814c5.78,2.953,16.674-4.027,20.308,2.076
		C413.282,476.822,406.775,484.883,402.008,489.156z M447.114,430.216c-1.413,6.353-1.678,12.675-1.897,19.155
		c-0.219,6.488-1.092,12.215-5.027,17.573c-3.733,5.084-8.431,9.944-13.659,13.473c-3.074,2.074-6.458,3.636-9.98,4.889
		c1.772-3.611,2.788-7.541,2.736-11.187c-0.066-4.732-2.16-9.403-6.047-12.211c-4.065-2.936-8.734-2.817-13.473-2.039
		c-1.03,0.169-5.065,1.471-5.898,0.703c-0.836-0.771-0.444-4.512-0.778-5.795c-1.219-4.681-4.693-8.585-8.76-11.031
		c-4.913-2.956-10.36-4.129-16.043-3.563c-4.638,0.462-9.396,2.335-14.108,2.681c0.426-10.065-1.769-21.404-8.974-28.408
		c-4.504-4.379-10.907-7.189-17.34-7.72c2.584-0.989,5.222-1.813,7.879-2.446c6.383-1.52,14.775-1.146,21.284-3.767
		c4.366-1.014,8.626-2.36,13.085-3.132c6.901-1.195,13.951-1.054,20.804-2.656c12.261-2.867,24.908-11.179,37.906-8.924
		c11.301,1.96,22.286,11.91,22.341,23.807C451.198,416.645,448.622,423.435,447.114,430.216z M494.045,400.465
		c-4.811,5.453-11.175,9.158-17.684,12.231c-4.831,2.281-10.185,3.863-15.177,5.999c0.264-1.316,0.504-2.638,0.674-3.974
		c1.823-14.36-5.005-26.508-17-34.192c-14.878-9.531-30.263-5.336-45.78,0.038c-8.424,2.917-16.356,4.159-25.197,4.984
		c-2.164,0.202-4.249,0.545-6.285,0.99c1.162-4.708,1.579-9.762,2.189-14.242c1.106-8.127,1.957-16.283,2.468-24.469
		c0.03-0.482,0.058-0.964,0.088-1.446c10.515-8.904,25.83-10.663,39.061-8.726c6.631,0.971,13.217,2.875,19.17,5.971
		c6.607,3.436,12.631,7.458,20.292,7.94c9.294,0.585,18.353-2.375,27.71-0.471c7.322,1.49,13.832,5.688,18.032,11.885
		C504.243,374.255,503.02,390.293,494.045,400.465z"/>
	<path style="fill:#231F20;" d="M421.562,353.886c-2.971,0.407-5.801,1.454-8.288,3.131c-1.143,0.77-2.153,1.733-3.298,2.498
		c-2.014,1.345-2.038,1.331-4.022,0.454c-2.188-0.967-3.883-3.346-5.991-4.581c-2.158-1.264-4.662-1.777-7.146-1.889
		c-5.653-0.254-11.403,1.891-15.431,5.838c-0.835,0.819,0.265,2.337,1.277,1.655c4.67-3.148,12.508-4.443,17.661-1.447
		c3.452,2.007,5.473,6.318,9.485,7.517c4.324,1.292,7.554-2.094,10.869-4.226c6.33-4.072,10.787-1.446,16.75,1.502
		c2.226,1.101,5.03-1.214,3.578-3.578C433.722,355.421,427.701,353.045,421.562,353.886z"/>
	<path style="fill:#231F20;" d="M429.779,403.143c-6.906-2.95-14.57-2.939-21.587-0.217c-3.356,1.302-6.455,3.182-9.161,5.557
		c-2.49,2.185-4.21,5.796-7.67,6.172c-5.871,0.638-11.71-2.074-17.677-1.549c-5.742,0.505-9.104,3.336-10.998,8.703
		c-0.333,0.944,0.987,1.32,1.498,0.632c7.316-9.87,20.926,0.999,30.51-1.291c4.993-1.193,7.528-6.615,11.648-9.31
		c6.469-4.231,13.567-4.354,20.85-2.563C430.712,410.143,433.409,404.694,429.779,403.143z"/>
	<path style="fill:#231F20;" d="M409.406,431.75c-4.768,0.953-11.741,4.061-12.901,9.334c-0.165,0.75,0.694,1.639,1.433,1.102
		c3.68-2.675,6.398-5.161,11.205-5.675c4.686-0.501,9.223,0.579,12.958,3.489c2.777,2.164,6.544-1.277,3.974-3.974
		C421.859,431.602,415.21,430.59,409.406,431.75z"/>
	<path style="fill:#231F20;" d="M84.991,388.565c-10.353-6.518-24.198,4.014-29.85,13.398c-4.461-2.29-9.196-4.403-14.252-4.268
		c-6.172,0.164-10.585,3.876-14.349,8.436c-1.438,1.742,0.745,3.958,2.484,2.484c3.724-3.158,8.072-6.05,13.164-5.209
		c4.503,0.744,8.754,3.363,12.691,5.527c1.389,0.763,3.578,0.447,4.315-1.132c2.294-4.911,5.908-8.887,10.686-11.504
		c4.723-2.588,9.405-2.326,14.515-3.167C86.643,392.76,86.651,389.611,84.991,388.565z"/>
	<path style="fill:#231F20;" d="M285.656,309.765c-8.972-13.361-21.502-21.148-37.614-22.331c-5.038-0.37-10.146-0.191-15.234,0.407
		c-26.623-1.97-51.126,20.558-60.755,43.783c-5.196,12.532-6.417,26.794-1.259,39.549c4.804,11.879,14.202,21.048,25.163,27.405
		c12.46,7.227,27.401,11.756,41.769,12.617c15.516,0.93,29.068-5.294,39.148-16.989
		C296.848,371.031,303.321,336.073,285.656,309.765z M246.884,402.815c-12.629,1.84-26.579-1.763-38.243-6.524
		c-10.484-4.279-20.683-10.883-27.125-20.386c-6.842-10.094-8.547-22.668-5.936-34.474c4.071-18.412,16.811-34.784,34.469-41.89
		c17.556-7.065,45.104-7.516,60.008,5.322c22.061,19.004,20.904,50.82,7.181,74.204
		C270.538,390.481,260.535,400.826,246.884,402.815z"/>
	<path style="fill:#231F20;" d="M176.243,154.928c-8.653,1.928-13.507,9.68-14.388,17.883c-7.71,3.868-25.064,10.965-16.618,21.194
		c1.074,1.3,2.894-0.136,2.609-1.519c-1.624-7.891,10.486-13.709,17.028-14.521c1.838-0.228,2.972-1.275,3.163-3.164
		c0.346-3.405,0.882-6.64,3.32-9.202c2.249-2.365,5.391-3.629,7.582-6.04C180.822,157.487,178.975,154.319,176.243,154.928z"/>
	<path style="fill:#231F20;" d="M117.12,142.487c0.933-5.122,1.718-10.309,4.976-14.542c3.443-4.474,8.441-7.349,14.086-7.78
		c1.571-0.12,3.457-1.391,3.228-3.228c-0.444-3.557-0.641-7.587,1.254-10.799c2.098-3.556,6.061-4.174,9.64-5.524
		c2.026-0.763,2.488-4.03,0-4.591c-11.937-2.694-17.512,8.248-17.484,18.216c-6.061,1.312-11.527,4.567-15.251,9.722
		c-3.894,5.39-6.048,12.941-1.875,18.712C116.044,143.159,116.988,143.213,117.12,142.487z"/>
	<path style="fill:#231F20;" d="M146.122,131.197c1.057,1.626,3.967,0.634,3.281-1.383c-2.36-6.938,8.613-12.242,14.194-10.876
		c3.07,0.751,4.664-3.28,2.105-4.993C156.682,107.907,139.594,121.154,146.122,131.197z"/>
	<path style="fill:#231F20;" d="M203.559,93.595c3.581-3.856,10.165-5.003,15.199-3.901c5.927,1.297,8.531,7.426,7.18,13.13
		c-0.619,2.613,2.208,5.044,4.645,3.571c4.057-2.453,8.978-4.631,13.839-4.358c5.939,0.334,7.079,4.614,8.405,9.696
		c0.876,3.355,5.214,2.225,5.596-0.758c0.932-7.262-3.58-13.844-10.823-15.238c-5.433-1.046-11.124,0.469-16.126,2.92
		c-0.266-2.608-0.557-5.146-2.02-7.627c-1.911-3.241-5.16-5.329-8.798-6.151c-7.035-1.591-15.484,0.716-19.916,6.542
		C199.501,93.047,202.188,95.071,203.559,93.595z"/>
	<path style="fill:#231F20;" d="M225.84,131.043c1.904,2.707,5.587,0.974,5.136-2.165c-0.919-6.391-6.974-11.554-13.157-12.82
		c-6.345-1.3-11.977,1.699-15.646,6.725c-1.215,1.665,1.277,3.119,2.636,2.034c3.693-2.95,8.069-4.065,12.543-2.293
		C221.425,124.138,223.432,127.62,225.84,131.043z"/>
	<path style="fill:#231F20;" d="M240.44,186.176c1.715-7.164,11.525-4.531,16.947-4.518c1.788,0.004,3.578-1.592,3.463-3.463
		c-0.528-8.625,5.156-19.879,15.146-17.358c3.555,0.897,6.118-4.408,2.586-6.135c-13.262-6.484-24.112,7.706-24.737,20.173
		c-7.528,0.342-16.465,1.386-17.771,10.098C235.654,187.773,239.744,189.079,240.44,186.176z"/>
	<path style="fill:#231F20;" d="M272.706,188.769c-1.254,2.031-2.449,5.486-2.489,7.875c-0.001,0.053-0.275,1.08-0.23,1.437
		c-0.783,0.273-1.836,0.2-2.634,0.255c-6.74,0.466-19.562,1.687-15.471,11.683c0.831,2.029,4.017,1.307,3.387-0.934
		c-2.099-7.466,12.6-3.641,16.802-4.667c3.639-0.888,4.497-4.244,5.357-7.507c0.684-2.596,1.09-4.556,3.206-6.364
		c3.328-2.843,7.125-2.774,11.04-4.074c2.867-0.952,2.834-4.828,0-5.796C285.176,178.461,276.166,183.164,272.706,188.769z"/>
	<path style="fill:#231F20;" d="M322.873,141.59c-5.007-2.531-9.733-0.42-13.506,3.196c-2,1.917,0.918,4.651,2.98,2.98
		c3.649-2.956,6.991-3.122,10.133,0.474c2.128,2.436,3.053,5.736,5.688,7.654c1.63,1.186,4.07-0.405,3.993-2.292
		C331.972,148.936,326.892,143.621,322.873,141.59z"/>
	<path style="fill:#231F20;" d="M243.373,45.413c1.872-3.208,7.031-1.857,8.918,0.379c1.748,2.071,1.971,5.144,2.152,7.729
		c0.148,2.117,2.704,4.345,4.789,2.748c2.627-2.011,5.821-3.741,9.228-3.716c3.902,0.029,5.142,2.739,6.567,5.948
		c1.232,2.775,5.432,1.222,5.454-1.477c0.048-5.739-3.96-10.118-9.61-10.945c-3.83-0.561-7.561,0.425-10.916,2.182
		c-1.057-4.121-3.197-7.748-7.738-9.268c-4.913-1.645-10.695-0.298-12.625,4.827C238.752,46.05,242.219,47.391,243.373,45.413z"/>
	<path style="fill:#231F20;" d="M163.391,67.204c-0.739-3.953,3.119-7.003,6.639-6.451c1.472,0.231,2.831,1.039,4.232,1.499
		c2.315,0.761,4.767,1.097,6.992-0.117c2.571-1.402,3.702-4.559,5.912-6.484c3.097-2.699,5.691-3.69,9.795-4.085
		c4.074-0.393,4.156-6.109,0-6.4c-4.691-0.329-8.647,0.842-12.347,3.742c-1.771,1.388-3.792,2.969-5.144,4.782
		c-0.307,0.412-1.245,2.655-1.545,2.817c-0.759,0.407-2.368-0.297-3.075-0.494c-4.145-1.153-7.742-1.603-11.447,1.052
		c-3.682,2.639-5.154,6.893-3.475,11.095C160.779,70.287,163.822,69.51,163.391,67.204z"/>
</g>
<g>
</g>
<g>
</g>
<g>
</g>
<g>
</g>
<g>
</g>
<g>
</g>
<g>
</g>
<g>
</g>
<g>
</g>
<g>
</g>
<g>
</g>
<g>
</g>
<g>
</g>
<g>
</g>
<g>
</g>
</svg>
