<svg height="512pt" viewBox="0 -6 512 512" width="512pt" xmlns="http://www.w3.org/2000/svg"><path d="m501.53125 213.925781-1.050781-7.453125c-9.328125-66.226562-37.675781-128.679687-81.070313-179.050781-15.71875-18.246094-42.167968-22.777344-63.011718-10.710937l-135.847657 78.648437c1.65625 10.894531-1.707031 22.40625-10.097656 30.800781-13.054687 13.050782-33.65625 13.945313-47.75 2.6875l-128.753906 74.542969c-14.820313 8.582031-23.949219 24.414063-23.949219 41.539063v118.535156c19.824219 0 35.894531 16.070312 35.894531 35.894531s-16.070312 35.898437-35.894531 35.898437v6c0 26.507813 21.488281 48 48 48h289.605469c0-19.824218 16.070312-35.894531 35.894531-35.894531s35.894531 16.070313 35.894531 35.894531h34.605469c26.511719 0 48-21.492187 48-48v-220.636718c0-2.242188-.15625-4.476563-.46875-6.695313zm0 0" fill="#ffc66c"/><g fill="#ff6e37"><path d="m338.667969 222.050781c0 22.089844-17.910157 40-40 40-22.09375 0-40-17.910156-40-40 0-22.089843 17.90625-40 40-40 22.089843 0 40 17.910157 40 40zm0 0"/><path d="m256 399.359375c0 19.824219-16.070312 35.898437-35.894531 35.898437-19.828125 0-35.898438-16.074218-35.898438-35.898437s16.070313-35.894531 35.898438-35.894531c19.824219 0 35.894531 16.070312 35.894531 35.894531zm0 0"/><path d="m426.054688 353.679688c0 13.75-11.144532 24.898437-24.894532 24.898437s-24.898437-11.148437-24.898437-24.898437 11.148437-24.894532 24.898437-24.894532 24.894532 11.144532 24.894532 24.894532zm0 0"/><path d="m132.265625 299.679688c0 12.566406-10.1875 22.753906-22.753906 22.753906-12.566407 0-22.753907-10.1875-22.753907-22.753906 0-12.566407 10.1875-22.753907 22.753907-22.753907 12.566406 0 22.753906 10.1875 22.753906 22.753907zm0 0"/><path d="m406.667969 92.089844c0 12.796875-10.375 23.167968-23.167969 23.167968s-23.167969-10.371093-23.167969-23.167968c0-12.792969 10.375-23.167969 23.167969-23.167969s23.167969 10.375 23.167969 23.167969zm0 0"/></g><path d="m220.105469 353.464844c-25.308594 0-45.898438 20.589844-45.898438 45.894531 0 25.308594 20.589844 45.898437 45.898438 45.898437 25.304687 0 45.894531-20.589843 45.894531-45.898437 0-25.304687-20.589844-45.894531-45.894531-45.894531zm0 71.792968c-14.28125 0-25.898438-11.617187-25.898438-25.898437 0-14.277344 11.617188-25.894531 25.898438-25.894531 14.277343 0 25.894531 11.617187 25.894531 25.894531 0 14.28125-11.617188 25.898437-25.894531 25.898437zm0 0"/><path d="m401.160156 318.785156c-19.242187 0-34.898437 15.652344-34.898437 34.894532 0 19.242187 15.65625 34.894531 34.898437 34.894531 19.242188 0 34.894532-15.652344 34.894532-34.894531 0-19.242188-15.652344-34.894532-34.894532-34.894532zm0 49.792969c-8.214844 0-14.898437-6.683594-14.898437-14.898437 0-8.214844 6.683593-14.894532 14.898437-14.894532 8.210938 0 14.894532 6.683594 14.894532 14.894532 0 8.214843-6.683594 14.898437-14.894532 14.898437zm0 0"/><path d="m109.511719 266.921875c-18.0625 0-32.753907 14.695313-32.753907 32.757813 0 18.058593 14.691407 32.753906 32.753907 32.753906 18.058593 0 32.753906-14.695313 32.753906-32.753906 0-18.0625-14.695313-32.757813-32.753906-32.757813zm0 45.511719c-7.035157 0-12.753907-5.722656-12.753907-12.753906s5.71875-12.753907 12.753907-12.753907c7.035156 0 12.753906 5.722657 12.753906 12.753907s-5.722656 12.753906-12.753906 12.753906zm0 0"/><path d="m383.5 125.257812c18.289062 0 33.167969-14.878906 33.167969-33.167968 0-18.289063-14.878907-33.167969-33.167969-33.167969s-33.167969 14.878906-33.167969 33.167969c0 18.289062 14.878907 33.167968 33.167969 33.167968zm0-46.335937c7.261719 0 13.167969 5.90625 13.167969 13.167969 0 7.261718-5.90625 13.167968-13.167969 13.167968s-13.167969-5.90625-13.167969-13.167968c0-7.261719 5.90625-13.167969 13.167969-13.167969zm0 0"/><path d="m511.433594 212.53125-1.050782-7.449219c-9.625-68.335937-38.460937-132.023437-83.398437-184.1875-18.851563-21.882812-50.644531-27.285156-75.59375-12.839843l-135.847656 78.648437c-3.558594 2.0625-5.496094 6.089844-4.878907 10.15625 1.253907 8.246094-1.398437 16.347656-7.28125 22.230469-9.332031 9.332031-24.140624 10.167968-34.4375 1.945312-3.21875-2.570312-7.6875-2.90625-11.25-.839844l-128.753906 74.542969c-8.507812 4.921875-15.472656 11.871094-20.441406 20.023438-1.5625 1.464843-2.648438 3.421875-3.015625 5.628906-3.546875 7.574219-5.484375 15.9375-5.484375 24.539063v118.535156c0 5.523437 4.476562 10 10 10 14.277344 0 25.894531 11.617187 25.894531 25.894531 0 14.28125-11.617187 25.898437-25.894531 25.898437-5.523438 0-10 4.476563-10 10v6c0 31.980469 26.019531 58 58 58h289.605469c5.523437 0 10-4.476562 10-10 0-14.28125 11.617187-25.898437 25.894531-25.898437s25.894531 11.617187 25.894531 25.898437c0 5.523438 4.476563 10 10 10h34.605469c31.980469 0 58-26.019531 58-58v-220.636718c0-2.699219-.191406-5.417969-.566406-8.089844zm-57.433594 266.726562h-25.699219c-4.578125-20.515624-22.929687-35.898437-44.800781-35.898437s-40.222656 15.382813-44.800781 35.898437h-280.699219c-19.984375 0-36.417969-15.507812-37.890625-35.125 20.457031-4.617187 35.789063-22.9375 35.789063-44.773437 0-21.871094-15.382813-40.222656-35.898438-44.796875v-109.632812c0-4.453126.804688-8.800782 2.28125-12.878907h68.054688c5.519531 0 10-4.476562 10-10 0-5.523437-4.480469-10-10-10h-51.382813c0-.003906.003906-.003906.007813-.003906l123.34375-71.410156c17.695312 10.15625 40.367187 7.445312 55.21875-7.40625 8.597656-8.597657 13.382812-20.3125 13.433593-32.339844l130.453125-75.527344c16.632813-9.628906 37.839844-6.019531 50.421875 8.585938 42.429688 49.25 69.660157 109.390625 78.746094 173.917969l.589844 4.183593h-220.78125c4.128906-11.640625 15.242187-20 28.28125-20 5.523437 0 10-4.476562 10-10 0-5.523437-4.476563-10-10-10-24.148438 0-44.347657 17.203125-48.996094 40h-72.671875c-5.523438 0-10 4.476563-10 10 0 5.523438 4.476562 10 10 10h72.671875c4.648437 22.792969 24.847656 40 48.996094 40 24.144531 0 44.347656-17.207031 48.992187-40h144.339844v209.207031c0 20.953126-17.046875 38-38 38zm-127.054688-247.207031c-4.128906 11.640625-15.242187 20-28.28125 20-13.035156 0-24.148437-8.359375-28.277343-20zm0 0"/><path d="m135 212.050781c-2.628906 0-5.210938 1.070313-7.070312 2.929688-1.859376 1.859375-2.929688 4.441406-2.929688 7.070312 0 2.628907 1.070312 5.210938 2.929688 7.070313 1.859374 1.859375 4.441406 2.929687 7.070312 2.929687s5.210938-1.070312 7.070312-2.929687c1.859376-1.859375 2.929688-4.441406 2.929688-7.070313 0-2.628906-1.070312-5.210937-2.929688-7.070312-1.859374-1.859375-4.441406-2.929688-7.070312-2.929688zm0 0"/></svg>