<svg height="464pt" viewBox="-104 0 464 464" width="464pt" xmlns="http://www.w3.org/2000/svg"><path d="m0 96h256v320h-256zm0 0" fill="#e9686a"/><path d="m240 464h-224l-16-48h256zm0 0" fill="#dd3e46"/><path d="m256 96h-256l16-64h224zm0 0" fill="#dd3e46"/><path d="m16 0h224v32h-224zm0 0" fill="#cfdfe8"/><path d="m0 296c88.96875 6.6875 177.949219-12.777344 256-56v32s-88 96-256 96zm0 0" fill="#5a6470"/><g fill="#fff"><path d="m56 232h-24c-4.417969 0-8-3.582031-8-8v-48c0-4.417969 3.582031-8 8-8h24v16h-16v32h16zm0 0"/><path d="m112 232h-32c-4.417969 0-8-3.582031-8-8v-48c0-4.417969 3.582031-8 8-8h32c4.417969 0 8 3.582031 8 8v48c0 4.417969-3.582031 8-8 8zm-24-16h16v-32h-16zm0 0"/><path d="m168 232h-24c-4.417969 0-8-3.582031-8-8v-56h16v48h16zm0 0"/><path d="m224 168h-32c-4.417969 0-8 3.582031-8 8v56h16v-16h16v16h16v-56c0-4.417969-3.582031-8-8-8zm-24 32v-16h16v16zm0 0"/><path d="m128 120h16v16h-16zm0 0"/><path d="m232 152h-16v-16h-56v-16h64c4.417969 0 8 3.582031 8 8zm0 0"/></g></svg>