<?xml version="1.0" encoding="iso-8859-1"?>
<!-- Generator: Adobe Illustrator 19.0.0, SVG Export Plug-In . SVG Version: 6.00 Build 0)  -->
<svg version="1.1" id="Capa_1" xmlns="http://www.w3.org/2000/svg" xmlns:xlink="http://www.w3.org/1999/xlink" x="0px" y="0px"
	 viewBox="0 0 512 512" style="enable-background:new 0 0 512 512;" xml:space="preserve">
<circle style="fill:#D5A150;" cx="256" cy="256" r="248.5"/>
<g>
	<path style="fill:#AD712C;" d="M410.572,61.429C444.324,103.858,464.5,157.57,464.5,216c0,137.243-111.257,248.5-248.5,248.5
		c-58.43,0-112.142-20.176-154.572-53.928C106.954,467.802,177.187,504.5,256,504.5c137.243,0,248.5-111.257,248.5-248.5
		C504.5,177.188,467.802,106.954,410.572,61.429z"/>
	<path style="fill:#AD712C;" d="M142.965,148.524c-5.119,0-10.237-1.953-14.142-5.858c-21.444-21.444-21.444-56.337,0-77.782
		c10.388-10.388,24.199-16.109,38.891-16.109s28.503,5.721,38.891,16.109c7.81,7.811,7.81,20.474,0,28.285
		c-7.812,7.809-20.475,7.81-28.285,0c-2.833-2.833-6.6-4.394-10.606-4.394s-7.773,1.561-10.606,4.394
		c-5.849,5.849-5.849,15.365,0,21.213c7.811,7.811,7.811,20.474,0,28.284C153.202,146.572,148.083,148.524,142.965,148.524z"/>
</g>
<circle style="fill:#563F32;" cx="167.71" cy="103.78" r="35"/>
<path style="fill:#7A5436;" d="M132.87,100.428c-0.013,0.135-0.024,0.269-0.036,0.404c-0.954,11.58,8.559,21.341,20.17,20.92
	c0.769-0.028,1.544-0.081,2.323-0.159c16.476-1.662,29.686-14.983,31.229-31.47c0.013-0.135,0.024-0.269,0.035-0.403
	c0.954-11.579-8.559-21.341-20.17-20.92c-0.769,0.028-1.544,0.081-2.323,0.159C147.624,70.62,134.414,83.941,132.87,100.428z"/>
<path style="fill:#AD712C;" d="M62.965,308.524c-5.119,0-10.237-1.953-14.142-5.858c-21.444-21.444-21.444-56.337,0-77.782
	c10.388-10.388,24.199-16.109,38.891-16.109s28.503,5.721,38.891,16.109c7.81,7.811,7.81,20.474,0,28.285
	c-7.812,7.809-20.475,7.81-28.285,0c-2.833-2.833-6.6-4.394-10.606-4.394s-7.773,1.561-10.606,4.394
	c-5.849,5.849-5.849,15.365,0,21.213c7.811,7.811,7.811,20.474,0,28.284C73.202,306.572,68.083,308.524,62.965,308.524z"/>
<circle style="fill:#563F32;" cx="87.71" cy="263.78" r="35"/>
<path style="fill:#7A5436;" d="M52.87,260.428c-0.013,0.135-0.024,0.269-0.036,0.404c-0.954,11.58,8.559,21.341,20.17,20.92
	c0.769-0.028,1.544-0.081,2.323-0.159c16.476-1.662,29.686-14.983,31.229-31.47c0.013-0.135,0.024-0.269,0.035-0.403
	c0.954-11.579-8.559-21.341-20.17-20.92c-0.769,0.028-1.544,0.081-2.323,0.159C67.624,230.62,54.414,243.941,52.87,260.428z"/>
<path style="fill:#AD712C;" d="M132.965,408.524c-5.119,0-10.237-1.953-14.142-5.858c-21.444-21.444-21.444-56.337,0-77.782
	c10.388-10.388,24.199-16.109,38.891-16.109s28.503,5.721,38.891,16.109c7.81,7.811,7.81,20.474,0,28.285
	c-7.812,7.809-20.475,7.81-28.285,0c-2.833-2.833-6.6-4.394-10.606-4.394s-7.773,1.561-10.606,4.394
	c-5.849,5.849-5.849,15.365,0,21.213c7.811,7.811,7.811,20.474,0,28.284C143.202,406.572,138.083,408.524,132.965,408.524z"/>
<circle style="fill:#563F32;" cx="157.71" cy="363.78" r="35"/>
<path style="fill:#7A5436;" d="M122.87,360.428c-0.013,0.135-0.024,0.269-0.036,0.404c-0.954,11.58,8.559,21.341,20.17,20.92
	c0.769-0.028,1.544-0.081,2.323-0.159c16.476-1.662,29.686-14.983,31.229-31.47c0.013-0.135,0.024-0.269,0.035-0.403
	c0.954-11.579-8.559-21.34-20.17-20.92c-0.769,0.028-1.544,0.081-2.323,0.159C137.624,330.62,124.414,343.941,122.87,360.428z"/>
<path style="fill:#AD712C;" d="M242.965,478.524c-5.119,0-10.237-1.953-14.142-5.858c-21.444-21.444-21.444-56.337,0-77.782
	c10.388-10.388,24.199-16.109,38.891-16.109s28.503,5.721,38.891,16.109c7.81,7.811,7.81,20.474,0,28.285
	c-7.812,7.809-20.475,7.81-28.285,0c-2.833-2.833-6.6-4.394-10.606-4.394s-7.773,1.561-10.606,4.394
	c-5.849,5.849-5.849,15.365,0,21.213c7.811,7.811,7.811,20.474,0,28.284C253.202,476.572,248.083,478.524,242.965,478.524z"/>
<circle style="fill:#563F32;" cx="267.71" cy="433.78" r="35"/>
<path style="fill:#7A5436;" d="M232.87,430.428c-0.013,0.135-0.024,0.269-0.036,0.404c-0.954,11.58,8.559,21.341,20.17,20.92
	c0.769-0.028,1.544-0.081,2.323-0.159c16.476-1.662,29.686-14.983,31.229-31.47c0.013-0.135,0.024-0.269,0.035-0.403
	c0.954-11.579-8.559-21.34-20.17-20.92c-0.769,0.028-1.544,0.081-2.323,0.159C247.624,400.62,234.414,413.941,232.87,430.428z"/>
<path style="fill:#AD712C;" d="M262.965,198.66c-5.119,0-10.237-1.953-14.142-5.858c-21.444-21.444-21.444-56.337,0-77.782
	c10.388-10.388,24.199-16.109,38.891-16.109s28.503,5.721,38.891,16.109c7.81,7.811,7.81,20.474,0,28.285
	c-7.812,7.809-20.475,7.81-28.285,0c-2.833-2.833-6.6-4.394-10.606-4.394s-7.773,1.561-10.606,4.394
	c-5.849,5.849-5.849,15.365,0,21.213c7.811,7.811,7.811,20.474,0,28.284C273.202,196.708,268.083,198.66,262.965,198.66z"/>
<circle style="fill:#563F32;" cx="287.71" cy="153.91" r="35"/>
<path style="fill:#7A5436;" d="M252.87,150.564c-0.013,0.135-0.024,0.269-0.036,0.404c-0.954,11.58,8.559,21.341,20.17,20.92
	c0.769-0.028,1.544-0.081,2.323-0.159c16.476-1.662,29.686-14.983,31.229-31.47c0.013-0.135,0.024-0.269,0.035-0.403
	c0.954-11.579-8.559-21.341-20.17-20.92c-0.769,0.028-1.544,0.081-2.323,0.159C267.624,120.756,254.414,134.077,252.87,150.564z"/>
<path style="fill:#AD712C;" d="M382.965,378.524c-5.119,0-10.237-1.953-14.142-5.858c-21.444-21.444-21.444-56.337,0-77.782
	c10.388-10.388,24.199-16.109,38.891-16.109s28.503,5.721,38.891,16.109c7.81,7.811,7.81,20.474,0,28.285
	c-7.812,7.809-20.475,7.81-28.285,0c-2.833-2.833-6.6-4.394-10.606-4.394s-7.773,1.561-10.606,4.394
	c-5.849,5.849-5.849,15.365,0,21.213c7.811,7.811,7.811,20.474,0,28.284C393.202,376.572,388.083,378.524,382.965,378.524z"/>
<circle style="fill:#563F32;" cx="407.71" cy="333.78" r="35"/>
<path style="fill:#7A5436;" d="M372.87,330.428c-0.013,0.135-0.024,0.269-0.035,0.404c-0.954,11.58,8.559,21.341,20.17,20.92
	c0.769-0.028,1.544-0.081,2.323-0.159c16.476-1.662,29.686-14.983,31.229-31.47c0.013-0.135,0.024-0.269,0.035-0.403
	c0.954-11.579-8.559-21.34-20.17-20.92c-0.769,0.028-1.544,0.081-2.323,0.159C387.624,300.62,374.414,313.941,372.87,330.428z"/>
<path style="fill:#AD712C;" d="M372.965,188.524c-5.119,0-10.237-1.953-14.142-5.858c-21.444-21.444-21.444-56.337,0-77.782
	c10.388-10.388,24.199-16.109,38.891-16.109s28.503,5.721,38.891,16.109c7.81,7.811,7.81,20.474,0,28.285
	c-7.812,7.809-20.475,7.81-28.285,0c-2.833-2.833-6.6-4.394-10.606-4.394s-7.773,1.561-10.606,4.394
	c-5.849,5.849-5.849,15.365,0,21.213c7.811,7.811,7.811,20.474,0,28.284C383.202,186.572,378.083,188.524,372.965,188.524z"/>
<circle style="fill:#563F32;" cx="397.71" cy="143.78" r="35"/>
<path style="fill:#7A5436;" d="M362.87,140.428c-0.013,0.135-0.024,0.269-0.035,0.404c-0.954,11.58,8.559,21.341,20.17,20.92
	c0.769-0.028,1.544-0.081,2.323-0.159c16.476-1.662,29.686-14.983,31.229-31.47c0.013-0.135,0.024-0.269,0.035-0.403
	c0.954-11.579-8.559-21.341-20.17-20.92c-0.769,0.028-1.544,0.081-2.323,0.159C377.624,110.62,364.414,123.941,362.87,140.428z"/>
<path style="fill:#AD712C;" d="M222.965,308.524c-5.119,0-10.237-1.953-14.142-5.858c-21.444-21.444-21.444-56.337,0-77.782
	c10.388-10.388,24.199-16.109,38.891-16.109s28.503,5.721,38.891,16.109c7.81,7.811,7.81,20.474,0,28.285
	c-7.812,7.809-20.475,7.81-28.285,0c-2.833-2.833-6.6-4.394-10.606-4.394s-7.773,1.561-10.606,4.394
	c-5.849,5.849-5.849,15.365,0,21.213c7.811,7.811,7.811,20.474,0,28.284C233.202,306.572,228.083,308.524,222.965,308.524z"/>
<circle style="fill:#563F32;" cx="247.71" cy="263.78" r="35"/>
<path style="fill:#7A5436;" d="M212.87,260.428c-0.013,0.135-0.024,0.269-0.036,0.404c-0.954,11.58,8.559,21.341,20.17,20.92
	c0.769-0.028,1.544-0.081,2.323-0.159c16.476-1.662,29.686-14.983,31.229-31.47c0.013-0.135,0.024-0.269,0.035-0.403
	c0.954-11.579-8.559-21.341-20.17-20.92c-0.769,0.028-1.544,0.081-2.323,0.159C227.624,230.62,214.414,243.941,212.87,260.428z"/>
<path d="M437.02,74.98C388.668,26.629,324.38,0,256,0S123.333,26.629,74.98,74.98C26.629,123.333,0,187.62,0,256
	s26.629,132.667,74.98,181.02C123.333,485.371,187.62,512,256,512s132.668-26.629,181.02-74.98C485.371,388.667,512,324.38,512,256
	S485.371,123.333,437.02,74.98z M256,497C123.112,497,15,388.888,15,256S123.112,15,256,15s241,108.112,241,241S388.888,497,256,497
	z"/>
<path d="M167.713,146.275c23.435,0,42.5-19.065,42.5-42.5c0-12.849-5.725-24.872-15.706-32.986
	c-9.967-8.103-22.912-11.244-35.515-8.613c-4.055,0.846-6.657,4.818-5.811,8.873s4.821,6.661,8.873,5.811
	c8.164-1.701,16.543,0.327,22.991,5.569c6.462,5.253,10.168,13.034,10.168,21.347c0,15.164-12.336,27.5-27.5,27.5
	c-8.599,0-16.543-3.915-21.797-10.742c-5.245-6.815-6.988-15.499-4.783-23.825c1.061-4.004-1.326-8.11-5.33-9.17
	c-4.007-1.062-8.11,1.326-9.17,5.33c-3.407,12.862-0.711,26.28,7.396,36.814C142.145,140.228,154.422,146.275,167.713,146.275z"/>
<path d="M130.213,263.775c0-14.326-7.152-27.591-19.133-35.485c-11.971-7.889-26.967-9.227-40.116-3.581
	c-3.806,1.634-5.567,6.044-3.933,9.851c1.635,3.807,6.047,5.567,9.851,3.933c8.627-3.704,18.083-2.857,25.944,2.323
	c7.872,5.187,12.386,13.555,12.386,22.959c0,15.164-12.336,27.5-27.5,27.5c-7.664,0-15.039-3.236-20.235-8.877
	c-5.265-5.717-7.811-13.157-7.168-20.95c0.34-4.128-2.73-7.75-6.859-8.09c-4.131-0.343-7.75,2.731-8.09,6.859
	c-0.99,12.021,2.946,23.507,11.084,32.343c8.028,8.717,19.425,13.716,31.269,13.716C111.148,306.275,130.213,287.21,130.213,263.775
	z"/>
<path d="M184.969,331.177c-9.72-8.12-22.368-11.497-34.697-9.267c-4.076,0.737-6.783,4.639-6.046,8.715
	c0.738,4.076,4.643,6.785,8.715,6.046c7.945-1.437,16.113,0.756,22.411,6.018c6.267,5.235,9.861,12.921,9.861,21.086
	c0,15.164-12.336,27.5-27.5,27.5c-9.18,0-17.435-4.347-22.646-11.925c-5.213-7.581-6.326-16.825-3.053-25.365
	c1.482-3.868-0.452-8.205-4.32-9.687c-3.866-1.482-8.204,0.451-9.687,4.32c-4.992,13.026-3.234,27.692,4.701,39.231
	c7.935,11.537,21.021,18.425,35.006,18.425c23.435,0,42.5-19.065,42.5-42.5C200.213,351.152,194.657,339.27,184.969,331.177z"/>
<path d="M265.893,391.32c-4.139,0.174-7.353,3.67-7.178,7.809s3.704,7.363,7.809,7.177c7.586-0.319,14.763,2.384,20.216,7.612
	c5.465,5.239,8.475,12.291,8.475,19.856c0,15.164-12.337,27.5-27.5,27.5c-15.164,0-27.5-12.336-27.5-27.5c0-4.142-3.358-7.5-7.5-7.5
	s-7.5,3.358-7.5,7.5c0,23.435,19.065,42.5,42.5,42.5s42.5-19.065,42.5-42.5c0-11.692-4.65-22.589-13.094-30.684
	C288.688,395.007,277.588,390.83,265.893,391.32z"/>
<path d="M311.081,118.427c-11.972-7.889-26.969-9.226-40.125-3.578c-14.225,6.129-24.008,19.472-25.531,34.822
	c-0.409,4.122,2.601,7.794,6.723,8.204c4.127,0.409,7.794-2.602,8.204-6.723c0.984-9.923,7.322-18.555,16.531-22.522
	c8.625-3.704,18.082-2.858,25.945,2.323c7.871,5.187,12.386,13.555,12.386,22.959c0,15.164-12.337,27.5-27.5,27.5
	c-4.143,0-7.5,3.358-7.5,7.5s3.357,7.5,7.5,7.5c23.435,0,42.5-19.065,42.5-42.5C330.214,139.586,323.062,126.321,311.081,118.427z"
	/>
<path d="M431.081,298.291c-11.973-7.889-26.969-9.227-40.125-3.577c-12.157,5.238-21.312,16.006-24.488,28.801
	c-3.179,12.772-0.352,26.045,7.755,36.417c8.118,10.386,20.325,16.343,33.491,16.343c4.143,0,7.5-3.358,7.5-7.5s-3.357-7.5-7.5-7.5
	c-8.518,0-16.417-3.856-21.673-10.581c-5.244-6.709-7.073-15.295-5.016-23.561c2.055-8.28,7.986-15.25,15.857-18.641
	c8.626-3.704,18.082-2.858,25.945,2.323c7.871,5.187,12.386,13.555,12.386,22.959c0,4.142,3.357,7.5,7.5,7.5s7.5-3.358,7.5-7.5
	C450.214,319.45,443.062,306.185,431.081,298.291z"/>
<path d="M397.714,186.275c23.435,0,42.5-19.065,42.5-42.5c0-4.142-3.357-7.5-7.5-7.5s-7.5,3.358-7.5,7.5
	c0,15.164-12.337,27.5-27.5,27.5s-27.5-12.336-27.5-27.5c0-10.996,6.546-20.921,16.678-25.287c3.804-1.639,5.56-6.051,3.92-9.855
	c-1.638-3.804-6.054-5.562-9.855-3.92c-15.638,6.737-25.742,22.07-25.742,39.062C355.214,167.21,374.279,186.275,397.714,186.275z"
	/>
<path d="M290.214,263.775c0-12.8-5.683-24.788-15.592-32.888c-9.93-8.118-22.83-11.311-35.395-8.762
	c-17.438,3.531-30.918,17.736-33.546,35.353c-1.823,12.27,1.766,24.68,9.845,34.048c8.084,9.374,19.816,14.75,32.187,14.75
	C271.148,306.275,290.214,287.21,290.214,263.775z M226.885,281.729c-5.227-6.061-7.548-14.097-6.368-22.042
	c1.699-11.391,10.414-20.577,21.689-22.86c1.835-0.372,3.682-0.555,5.515-0.555c6.293,0,12.427,2.159,17.406,6.229
	c6.41,5.24,10.086,12.994,10.086,21.274c0,15.164-12.337,27.5-27.5,27.5C239.709,291.275,232.118,287.796,226.885,281.729z"/>
<circle cx="133.5" cy="293.5" r="7.5"/>
<circle cx="183.5" cy="293.5" r="7.5"/>
<circle cx="158.5" cy="248.5" r="7.5"/>
<circle cx="68.5" cy="338.5" r="7.5"/>
<circle cx="168.5" cy="448.5" r="7.5"/>
<circle cx="198.5" cy="408.5" r="7.5"/>
<circle cx="248.5" cy="348.5" r="7.5"/>
<circle cx="328.5" cy="318.5" r="7.5"/>
<circle cx="308.5" cy="338.5" r="7.5"/>
<circle cx="338.5" cy="368.5" r="7.5"/>
<circle cx="338.5" cy="428.5" r="7.5"/>
<circle cx="448.5" cy="218.5" r="7.5"/>
<circle cx="418.5" cy="418.5" r="7.5"/>
<circle cx="268.5" cy="38.5" r="7.5"/>
<circle cx="88.5" cy="128.5" r="7.5"/>
<circle cx="48.5" cy="188.5" r="7.5"/>
<circle cx="163.5" cy="203.5" r="7.5"/>
<circle cx="193.5" cy="188.5" r="7.5"/>
<circle cx="163.5" cy="173.5" r="7.5"/>
<circle cx="303.5" cy="248.5" r="7.5"/>
<circle cx="238.5" cy="98.5" r="7.5"/>
<circle cx="333.5" cy="188.5" r="7.5"/>
<circle cx="348.5" cy="233.5" r="7.5"/>
<circle cx="378.5" cy="233.5" r="7.5"/>
<circle cx="378.5" cy="263.5" r="7.5"/>
<circle cx="323.5" cy="83.5" r="7.5"/>
<circle cx="353.5" cy="68.5" r="7.5"/>
<g>
</g>
<g>
</g>
<g>
</g>
<g>
</g>
<g>
</g>
<g>
</g>
<g>
</g>
<g>
</g>
<g>
</g>
<g>
</g>
<g>
</g>
<g>
</g>
<g>
</g>
<g>
</g>
<g>
</g>
</svg>
