<svg id="Capa_1" enable-background="new 0 0 512 512" height="512" viewBox="0 0 512 512" width="512" xmlns="http://www.w3.org/2000/svg"><g><g><circle cx="256" cy="256" fill="#e6f7fe" r="248.5"/><path d="m444.6 417.81c-45.57 53.07-113.16 86.69-188.6 86.69-137.24 0-248.5-111.26-248.5-248.5 0-69.69 28.69-132.68 74.89-177.81-37.33 43.48-59.89 100.01-59.89 161.81 0 137.24 111.26 248.5 248.5 248.5 67.55 0 128.8-26.96 173.6-70.69z" fill="#d3effd"/><circle cx="256" cy="256" fill="#d3effd" r="180"/><path d="m415.11 340.1c-30.24 57-90.22 95.9-159.11 95.9-99.25 0-180-80.75-180-180 0-43.27 15.35-83.02 40.89-114.1-13.33 25.12-20.89 53.74-20.89 84.1 0 99.25 80.75 180 180 180 55.98 0 106.08-25.69 139.11-65.9z" fill="#b2e5fb"/><path d="m362.81 176.62c-.89 2.91-2.31 5.6-4.16 7.96s-4.13 4.38-6.74 5.93l-20.05 12.43c-10.47-21.67-44.86-41.94-44.86-41.94s-19.92-35.06-31.31-42.08c11-12.22 29.09-14.99 43.26-6.64l50.41 29.73c11.94 7.04 17.5 21.35 13.45 34.61z" fill="#f7f9fa"/><path d="m344.62 195.03-12.76 7.91c-10.47-21.67-41.86-39.94-41.86-39.94l-34.31-44.08c3.8-4.21 8.44-7.3 13.47-9.2h.01c10.52 6.88 20.57 14.63 30.06 23.18 19.61 17.66 34.34 39.61 45.39 62.13z" fill="#e9edf1"/><path d="m408.422 388.492c1.772-5.484 5.823-9.937 11.115-12.218l25.527-11.003c1.449-.624 2.834-1.406 4.057-2.402 8.228-6.7 8.283-18.81.723-25.621l-3.847-3.466c-16.507-14.872-39.205-18.502-58.721-11.393-1.071.39-2.278.185-3.11-.594-14.734-13.789-24.898-31.736-29.364-51.447-9.363-41.32-28.115-92.519-65.611-126.301-18.519-16.685-38.278-29.191-57.809-38.129l-112.382 2.082-.08 121.33c10.975 18.784 26.626 30.446 45.429 47.387 37.949 34.191 91.641 47.432 133.948 52.31 20.15 2.323 45.425 14.675 60.703 27.973-6.364 20.872 1.718 41.429 19 57l22.119.19z" fill="#61aab8"/><path d="m400.12 414.19-.39 1.2c-.66 2.05-2.34 5.08-3.72 6.74l-.05.06c-6.22 6.9-16.86 7.46-23.76 1.24l-3.85-3.47c-16.77-15.11-22.66-37.78-17.17-58.18.3-1.14-.04-2.36-.94-3.12-15.02-12.56-33.43-20.38-52.94-22.63-42.31-4.88-96-18.12-133.95-52.31-18.8-16.94-33.46-35.6-44.43-54.39 3.786-1.461 2.411-9.627 6.08-11.33 3.842-1.783 12.722 2.886 16.42.85 10.8 17.93 24.97 35.69 42.93 51.87 37.95 34.19 91.64 47.43 133.95 52.31 19.51 2.25 37.92 10.07 52.94 22.63.9.76 1.24 1.98.94 3.12-5.49 20.4.4 43.07 17.17 58.18l3.85 3.47c2.05 1.85 4.43 3.1 6.92 3.76z" fill="#5595a2"/><path d="m231.38 105.92c-15.22 56.19-58.15 102.44-112.46 123.41-31.05-53.15-4.696-134.807 3.708-137.453 25.211-7.936 66.444-5.322 108.752 14.043z" fill="#f7f9fa"/><path d="m141.42 218.85c-7.23 3.98-14.75 7.49-22.5 10.48-15.104-26.1-25.676-55.682-26.41-85.99-.3-17.89 3.58-32.22 10.8-40.24 5.152-5.642 12.343-9.028 19.6-11.31-15.8 20.64-13.09 74.61 18.51 127.06z" fill="#e9edf1"/><circle cx="161.98" cy="135.095" fill="#e9edf1" r="16"/><path d="m213.605 449.179c-20.176.705-52.859-22.413-70.605-32.179-50.383-27.726-34.782-124.76-33.202-123.89l9.11 5.013 14.39 7.919 66.702 49.958 76.793 29.005 23.499 12.931c1.583.871 2.039 2.933.983 4.399-10.552 14.647-24.484 26.458-40.385 34.565-14.484 7.384-30.6 11.696-47.282 12.279-.002 0-.001 0-.003 0z" fill="#ffc736"/><path d="m260.89 436.9c-14.48 7.39-30.6 11.7-47.28 12.28 0 0 0 0-.01 0-20.17.7-40.22-4.08-57.96-13.85-50.388-27.723-71.148-88.659-50.08-140.706.677-1.672 2.659-2.387 4.24-1.517l9.11 5.013c-14.53 49.51 6.69 104.33 53.73 130.21 17.74 9.77 37.79 14.55 57.96 13.85h.01c10.4-.36 20.58-2.18 30.28-5.28z" fill="#faaa0a"/><path d="m212.674 419.234c-14.799.518-29.519-3.005-42.572-10.187-19.306-10.625-33.32-28.131-39.459-49.295-5.201-17.928-4.223-36.664 2.656-53.71l64.699 35.603 4.068 9.568 10.464-1.571 64.263 35.363c-14.798 20.457-38.561 33.335-64.119 34.229z" fill="#ffe07d"/></g><g><path d="m437.02 74.98c-48.353-48.351-112.64-74.98-181.02-74.98-55.203 0-107.775 17.295-152.036 50.016-3.331 2.463-4.035 7.159-1.572 10.49 2.462 3.33 7.158 4.034 10.489 1.572 41.661-30.799 91.15-47.078 143.119-47.078 132.888 0 241 108.112 241 241s-108.112 241-241 241-241-108.112-241-241c0-64.987 25.48-125.916 71.746-171.563 2.948-2.909 2.98-7.658.071-10.606-2.909-2.949-7.658-2.98-10.606-.071-49.146 48.487-76.211 113.209-76.211 182.24 0 68.38 26.629 132.668 74.98 181.02 48.353 48.351 112.64 74.98 181.02 74.98s132.667-26.629 181.02-74.98c48.351-48.352 74.98-112.64 74.98-181.02s-26.629-132.668-74.98-181.02z"/><path d="m88.281 172.094c-16.733 33.108-23.202 70.028-18.702 106.961 2.826 23.196 9.824 45.298 20.783 65.734 1.987 30.17 15.339 59.246 38.697 80.641 3.056 2.8 7.798 2.591 10.597-.465 2.798-3.054 2.589-7.798-.465-10.596-31.151-28.51-41.926-72.677-28.286-111.86l13.371 7.328c-13.266 39.609 5.473 86.51 42.587 106.015 36.55 20.806 85.704 11.208 112.232-21.165l13.38 7.333c-9.03 11.375-20.279 20.664-32.902 27.41-27.986 15.259-63.522 16.618-92.677 3.19-3.777-1.708-8.218-.027-9.922 3.748-1.705 3.774-.027 8.217 3.748 9.922 32.638 15.021 72.357 13.897 103.998-2.632 4.554-.223 9.14-.604 13.66-1.155 27.088-3.302 53.331-12.598 76.384-26.967 7.46 9.319 17.257 20.521 30.369 19.545 9.87-.402 18.962-7.434 21.906-16.913l8.853-27.563c1.102-3.43 3.629-6.217 6.934-7.648 6.792-3.546 29.484-10.923 34.119-17.193 4.34-4.834 6.539-11.069 6.189-17.557s-3.204-12.45-8.038-16.791l-3.853-3.458c-5.443-4.887-11.512-8.741-17.958-11.521 8.968-26.448 11.934-54.883 8.541-82.734-4.287-35.186-18.375-68.263-40.74-95.655-21.753-26.642-50.339-46.818-82.669-58.352-3.899-1.39-8.193.644-9.584 4.545-1.392 3.901.643 8.192 4.544 9.584 62.097 22.149 105.61 76.443 113.56 141.692 3.144 25.802.359 52.145-8.024 76.611-10.296-1.822-21.034-1.15-31.37 2.169-12.026-11.889-20.558-26.854-24.782-43.543-1.017-4.016-5.094-6.446-9.111-5.431-4.015 1.016-6.447 5.095-5.431 9.11 5.325 21.04 16.572 39.733 32.524 54.061 2.13 1.913 5.161 2.445 7.816 1.376 18.076-7.3 38.312-3.646 52.663 9.249 7.197 4.564 10.434 14.471 1.329 18.949l-25.687 11.124c-7.271 3.149-12.832 9.281-15.254 16.826l-8.853 27.563c-.404 1.258-1.056 2.394-1.996 3.439-3.435 3.825-9.341 4.142-13.165.708l-3.853-3.459c-14.525-13.042-20.249-33.555-14.581-52.26.858-2.831-.029-5.902-2.263-7.841-16.437-14.257-36.672-23.104-58.517-25.584-38.623-4.386-92.506-16.657-129.873-50.209-14.859-13.342-27.766-28.505-38.28-44.765 50.324-21.865 89.018-64.759 105.62-117.029 17.158 8.682 33.488 19.823 48.24 33.07 15.976 14.344 29.617 33.106 40.78 55.993.024.052.052.103.077.154 5.29 10.865 10.029 22.649 14.183 35.349 1.288 3.937 5.521 6.089 9.46 4.796 3.937-1.287 6.084-5.522 4.796-9.46-3.587-10.966-7.599-21.308-12.017-31.022 10.706-6.306 25.533-13.447 28.581-26.764 5.059-16.646-1.885-34.427-16.888-43.238l-50.461-29.638c-15.355-9.02-34.66-7.225-48.095 3.841-14.156-8.226-28.988-14.868-44.105-19.738 7.992-2.169 16.156-3.77 24.439-4.779 15.318-1.868 30.76-1.685 45.899.539 4.105.608 7.909-2.231 8.511-6.329.602-4.099-2.231-7.909-6.33-8.511-16.462-2.42-33.249-2.617-49.895-.59-17.034 2.076-33.616 6.447-49.33 12.987-1.613-.288-3.227-.563-4.841-.809-36.307-5.532-67.452.599-81.282 16.001-12.662 14.107-16.03 41.822-9.29 73.661zm49.438 145.111 53.203 29.158-45.349 28.808c-3.154-5.344-5.666-11.114-7.451-17.226-3.949-13.527-4.067-27.454-.403-40.74zm16.777 70.069 43.456-27.605 1.289 51.473c-8.769-1.29-17.3-4.132-25.169-8.445-7.453-4.085-14.031-9.307-19.576-15.423zm59.766 24.527-1.337-53.379 52.707 28.886c-13.186 14.438-31.782 23.376-51.37 24.493zm-55.773-122.263c40.314 36.197 97.407 49.318 138.202 53.951 17.277 1.962 33.374 8.535 46.835 19.087-2.965 13.513-1.507 27.494 3.807 39.927-17.287 10.899-36.045 18.494-55.991 22.664 6.915-6.337 13.125-13.515 18.451-21.436 1.176-1.749 1.562-3.911 1.063-5.958-.498-2.048-1.835-3.791-3.683-4.804l-26.451-14.497h-.001l-39.036-21.394-131.038-71.816c-3.706-2.136-8.843-.39-10.474 3.566-3.398 7.752-5.901 15.72-7.573 23.775-3.927-11.396-6.651-23.216-8.131-35.364-3.431-28.164.07-56.318 10.135-82.473 12.11 35.092 34.427 68.322 63.885 94.772zm136.516-170.783 50.461 29.638c9.001 5.287 13.168 15.955 10.133 25.943-1.701 8.454-14.564 13.377-20.856 17.611-11.334-21.455-24.918-39.349-40.632-53.458-8.17-7.335-16.802-14.066-25.78-20.144 8.167-4.428 18.327-4.493 26.674.41zm-186.27-10.3c8.466-9.429 32.731-16.544 67.861-11.193 15.328 2.336 30.655 6.738 45.529 12.976-15.157 49.59-51.835 90.256-99.648 110.396-7.701-14.008-13.655-28.649-17.588-43.509-9.092-34.352-4.619-59.241 3.846-68.67z"/><path d="m146.175 152.823c9.612 8.636 24.507 7.878 33.186-1.786 8.634-9.225 7.787-24.942-1.786-33.187-9.643-8.656-24.529-7.856-33.186 1.786-8.633 9.226-7.787 24.943 1.786 33.187zm9.376-23.165c3.139-3.496 8.527-3.77 12.003-.646 3.463 2.982 3.769 8.667.646 12.003-3.131 3.487-8.516 3.777-12.003.646-3.463-2.982-3.769-8.667-.646-12.003z"/></g></g></svg>