<svg height="512pt" viewBox="0 0 512 512.00055" width="512pt" xmlns="http://www.w3.org/2000/svg"><path d="m476.121094 82.476562c-2.578125-8.085937-7.175782-14.417968-12.898438-18.957031-3.539062-2.804687-5.542968-7.117187-5.542968-11.632812v-36.886719c0-4.140625-3.355469-7.5-7.5-7.5h-15c-4.140626 0-7.5 3.359375-7.5 7.5v31.285156c0 5.539063-3.03125 10.664063-7.941407 13.226563-7.070312 3.691406-13.183593 9.660156-17.160156 17.988281-16.765625 35.113281-46.519531 107.8125-107.632813 168.808594-60.996093 61.113281-133.695312 90.867187-168.808593 107.632812-32.164063 15.355469-29.324219 62.613282 4.976562 73.542969 20.035157 6.382813 42.289063 9.441406 65.585938 9.019531 67.976562-1.226562 139.472656-39.351562 194.28125-94.160156 54.8125-54.808594 92.933593-126.304688 94.164062-194.28125.417969-23.296875-2.640625-45.550781-9.023437-65.585938zm0 0" fill="#ffcf5d"/><path d="m444.578125 87.023438c1.355469 1.074218 2.324219 2.566406 2.957031 4.5625 5.414063 16.996093 7.976563 35.8125 7.613282 55.9375-1.019532 56.265624-32.9375 121.164062-85.378907 173.609374-52.445312 52.445313-117.347656 84.363282-173.613281 85.378907-15.898438.289062-28.675781 12.894531-29.414062 28.554687 9.71875 1.140625 19.738281 1.625 29.957031 1.441406 67.976562-1.230468 139.472656-39.351562 194.28125-94.160156 54.8125-54.8125 92.933593-126.308594 94.164062-194.285156.417969-23.296875-2.640625-45.550781-9.023437-65.585938-2.578125-8.085937-7.175782-14.417968-12.898438-18.957031-3.539062-2.804687-5.542968-7.117187-5.542968-11.632812v-36.886719c0-4.140625-3.355469-7.5-7.5-7.5h-15c-4.140626 0-7.5 3.359375-7.5 7.5v36.886719c0 13.8125 6.160156 26.617187 16.898437 35.136719zm0 0" fill="#ffb545"/><path d="m95.605469 227.269531-25.226563-15.972656c-6.34375-4.019531-14.316406 1.964844-12.121094 9.097656l7.402344 24.042969c5.515625 17.921875 16.9375 33.5 32.4375 44.253906l24.785156 16.308594c.003907-29.203125-1.128906-61.171875-27.277343-77.730469zm0 0" fill="#28d05b"/><path d="m164.371094 294.113281c-14.542969-.53125-28.632813 3.253907-41.488282 10.425781-12.847656-7.167968-26.941406-10.960937-41.484374-10.425781-30.410157 1.296875-52.28125 17.605469-63.945313 38.601563-11.707031 21.34375-13.203125 47.378906-3.867187 76.105468 14.277343 43.804688 52.167968 83.046876 88.164062 85.101563 3.535156.242187 6.992188.167969 10.355469-.1875 7.117187-.75 14.441406-.75 21.558593 0 3.363282.355469 6.820313.429687 10.355469.1875 35.992188-2.054687 73.886719-41.296875 88.164063-85.101563 9.335937-28.726562 7.835937-54.761718-3.867188-76.105468-11.664062-20.996094-33.535156-37.304688-63.945312-38.601563zm0 0" fill="#ff5368"/><path d="m228.316406 332.714844c-5.707031-10.277344-13.867187-19.425782-24.273437-26.242188 1.089843 1.644532 2.117187 3.324219 3.070312 5.039063 11.707031 21.34375 13.207031 47.375 3.867188 76.105469-9.585938 29.414062-29.820313 56.769531-52.976563 72.191406-12.789062 8.515625-27.878906 12.910156-43.246094 12.910156h-59.050781c14.300781 12.332031 30.351563 20.308594 46.042969 21.203125 3.535156.242187 6.992188.167969 10.359375-.1875 7.167969-.761719 14.398437-.753906 21.566406 0 3.359375.355469 6.8125.425781 10.347657.1875 35.992187-2.054687 73.886718-41.296875 88.164062-85.101563 9.335938-28.726562 7.835938-54.761718-3.871094-76.105468zm0 0" fill="#d9435b"/><path d="m434.351562 308.5c-3.152343-13.1875-15.011718-23-29.167968-23-14.160156 0-26.015625 9.8125-29.171875 23-40.996094 12.484375-70.828125 50.59375-70.828125 95.671875 0 55.230469 44.769531 100 100 100 55.226562 0 100-44.769531 100-100 0-45.078125-29.832032-83.1875-70.832032-95.671875zm0 0" fill="#ff983b"/><path d="m464.492188 323.660156c12.246093 16.59375 19.484374 37.105469 19.484374 59.3125 0 55.226563-44.769531 99.996094-100 99.996094-22.203124 0-42.714843-7.238281-59.308593-19.484375 18.210937 24.679687 47.492187 40.6875 80.515625 40.6875 55.226562 0 100-44.769531 100-100 0-33.019531-16.011719-62.300781-40.691406-80.511719zm0 0" fill="#ff7e40"/><path d="m462.308594 312.109375-7.402344-24.042969c-5.515625-17.921875-16.933594-33.503906-32.4375-44.253906l-9.785156-6.441406c-6.4375-4.234375-15 .382812-15 8.085937v10.65625c0 20.054688 9.589844 37.921875 27.277344 49.121094l25.226562 15.976563c6.34375 4.011718 14.320312-1.96875 12.121094-9.101563zm0 0" fill="#28d05b"/><path d="m336.023438 126.324219c-1.6875-3.746094-6.207032-5.300781-10-3.730469l-4.203126 1.742188 3.21875-3.21875c2.902344-2.90625 3.199219-7.675782.382813-10.664063-2.914063-3.089844-7.785156-3.148437-10.769531-.164063l-3.4375 3.4375 1.859375-4.492187c1.585937-3.828125-.230469-8.214844-4.058594-9.800781-3.828125-1.589844-8.214844.234375-9.800781 4.0625l-4.070313 9.832031c-.96875 2.335937-.664062 4.8125.519531 6.757813 2.003907 3.304687 1.683594 7.503906-1.046874 10.238281-2.902344 2.902343-3.195313 7.671875-.378907 10.660156 2.917969 3.09375 7.785157 3.144531 10.765625.164063l.144532-.144532c2.769531-2.769531 7.011718-3.070312 10.382812-1.078125 1.941406 1.148438 4.390625 1.429688 6.691406.476563l9.832032-4.070313c3.898437-1.613281 5.710937-6.132812 3.96875-10.007812zm0 0" fill="#28d05b"/><path d="m315.21875 130.9375c-5.476562-1.46875-11.175781.273438-14.921875 4.335938l-24.609375-7.679688-18.207031 19.113281-7.730469 28.832031c-.085938-.023437-.171875-.054687-.261719-.078124-8-2.152344-16.226562 2.59375-18.375 10.59375-2.148437 8 2.59375 16.230468 10.59375 18.378906 8.003907 2.148437 16.230469-2.597656 18.378907-10.597656.617187-2.304688.714843-4.671876.214843-6.996094 1.53125 4.628906 5.328125 8.472656 10.394531 9.832031 8.003907 2.144531 16.226563-2.605469 18.371094-10.605469.660156-2.457031.6875-5.035156.074219-7.5.679687 2.359375 1.949219 4.582032 3.808594 6.441406 5.855469 5.859376 15.355469 5.859376 21.210937 0 5.859375-5.859374 5.859375-15.355468 0-21.210937-1.847656-1.847656-4.109375-3.148437-6.535156-3.832031 7.949219 2.03125 16.070312-2.710938 18.199219-10.65625 2.144531-8-2.601563-16.226563-10.605469-18.371094zm0 0" fill="#d9435b"/><path d="m294.003906 109.738281c-11.15625-2.984375-21.339844 7.257813-18.371094 18.367188-1.734374-6.503907-7.648437-11.113281-14.488281-11.113281-3.835937 0-7.675781 1.464843-10.605469 4.394531-5.859374 5.859375-5.859374 15.355469 0 21.210937 2.023438 2.027344 4.472657 3.355469 7.066407 3.980469-8.167969-2.394531-16.558594 2.457031-18.714844 10.519531-2.140625 8.003906 2.609375 16.226563 10.613281 18.367188s16.226563-2.613282 18.367188-10.613282c.679687-2.542968.679687-5.214843 0-7.753906 1.695312 6.21875 7.34375 11.109375 14.488281 11.109375.023437 0 .046875-.003906.070313-.003906 13.191406-.058594 19.988281-16.152344 10.535156-25.601563-1.945313-1.949218-4.246094-3.21875-6.65625-3.871093 7.984375 2.101562 16.171875-2.644531 18.308594-10.628907 2.140624-8-2.613282-16.222656-10.613282-18.363281zm0 0" fill="#ff5368"/><path d="m295.183594 27.667969c-1.585938-3.824219-5.972656-5.640625-9.800782-4.058594l-4.496093 1.863281 3.441406-3.441406c2.929687-2.929688 2.929687-7.675781 0-10.605469-2.929687-2.929687-7.675781-2.929687-10.605469 0l-3.441406 3.441407 1.863281-4.496094c1.585938-3.824219-.230469-8.214844-4.058593-9.796875-3.824219-1.585938-8.214844.230469-9.800782 4.058593l-4.070312 9.832032 27.078125 27.074218 9.832031-4.070312c3.828125-1.585938 5.644531-5.972656 4.058594-9.800781zm0 0" fill="#28d05b"/><path d="m216.847656 22.339844c15.621094-15.621094 38.824219-13.5 54.445313 2.121094 15.621093 15.621093 17.742187 38.828124 2.121093 54.449218-15.621093 15.621094-57.210937 31.882813-72.832031 16.261719-15.621093-15.621094.644531-57.210937 16.265625-72.832031zm0 0" fill="#ff5368"/><path d="m271.292969 24.460938c-3.75-3.75-7.941407-6.710938-12.355469-8.847657 6.761719 13.972657 5.144531 30.222657-6.726562 42.09375-11.871094 11.871094-38.730469 24.09375-57.800782 22.433594.527344 6.027344 2.421875 11.28125 6.171875 15.03125 15.621094 15.621094 57.210938-.640625 72.832031-16.261719 15.621094-15.621094 13.5-38.828125-2.121093-54.449218zm0 0" fill="#d9435b"/><path d="m192 153.753906c0 27.617188-22.386719 50-50 50s-50-22.382812-50-50c0-27.613281 22.386719-50 50-50s50 22.386719 50 50zm0 0" fill="#5c87bd"/><path d="m165.125 109.425781c3.617188 6.917969 5.671875 14.78125 5.671875 23.125 0 27.617188-22.386719 50-50 50-8.347656 0-16.207031-2.054687-23.125-5.671875 8.347656 15.96875 25.058594 26.875 44.328125 26.875 27.613281 0 50-22.382812 50-50 0-19.269531-10.90625-35.980468-26.875-44.328125zm0 0" fill="#456ea2"/><path d="m469.09375 318.40625c.664062-2.664062.613281-5.519531-.242188-8.304688l-7.394531-24.054687c-5.976562-19.449219-18.507812-36.582031-35.285156-48.246094-.050781-.035156-.101563-.066406-.152344-.101562l-9.773437-6.445313c-11.394532-7.511718-26.589844.695313-26.589844 14.359375v10.664063c0 8.246094 1.464844 16.148437 4.238281 23.460937-11.210937 3.335938-20.324219 11.789063-24.417969 23.039063-20.003906 6.964844-37.886718 20.003906-50.683593 37.046875-13.566407 18.066406-20.949219 39.476562-21.46875 62.058593-21.277344 10.84375-42.554688 18.542969-63.476563 22.972657 16.703125-38.199219 17.0625-81.855469-11.414062-112.230469 12.148437-7.578125 23.726562-15.492188 34.5-23.617188 15.480468-11.667968 29.910156-24.195312 42.902344-37.234374 49.777343-49.804688 78.414062-105.144532 103.097656-158.441407 5.921875-12.789062 8.664062-21.324219 19.707031-27.125 7.371094-3.875 11.953125-11.488281 11.953125-19.894531v-31.300781h14.980469v36.90625c0 6.902343 3.058593 13.289062 8.371093 17.519531 4.882813 3.902344 8.390626 9.074219 10.40625 15.371094 16.582032 52.203125 8.441407 107.300781-14.929687 156.820312-2.332031 4.910156 1.222656 10.707032 6.761719 10.707032 2.882812 0 5.542968-1.683594 6.769531-4.285157l.011719-.007812c7.769531-16.472657 13.832031-33.113281 18.003906-49.472657 10.421875-40.789062 9.011719-82.539062-2.347656-118.316406-2.875-9.085937-8.1875-16.890625-15.367188-22.574218-1.691406-1.332032-2.699218-3.492188-2.699218-5.761719v-36.90625c0-8.273438-6.71875-15.00781275-14.980469-15.00781275h-14.980469c-8.257812.00781255-14.972656 6.73437475-14.980469 15.00781275v31.300781c0 2.769531-1.539062 5.351562-3.90625 6.582031-15.621093 8.152344-19.867187 20.109375-26.355469 34.09375-19.625 42.394531-48.097656 102.164063-100.101562 154.167969-22.464844 22.542969-48.226562 42.570312-78.621094 61.125-13.015625-9.324219-28.828125-14.738281-46.222656-15.480469-9.742188-.359375-19.355469 1.007813-28.746094 4.066407 13.992188-27.65625 34.71875-46.785157 61.847656-57.003907 8.210938 8.234375 18-3.191406 11.246094-9.957031l-3.992187-4.003906c-2.007813-2.007813-4.972657-2.710938-7.667969-1.8125-28.753906 9.605468-51.960938 28.273437-68.386719 54.707031-2.585937-19.671875-9.6875-39.316406-29.246093-51.722656l-25.191407-15.984375c-5.59375-3.546875-12.605469-3.238282-17.867187.792968-5.207032 3.984376-7.328125 10.601563-5.40625 16.859376l7.394531 24.058593c4.6875 15.253907 13.421875 29.070313 25.0625 39.953125-29.296875.171875-57.230469 14.816406-72.617187 42.566406-12.753907 23.296876-14.28125 51.679688-4.417969 82.085938 7.40625 22.761719 20.8125 44.519531 37.753906 61.261719 17.867187 17.660156 38.109375 27.980469 56.910156 29.058593 3.902344.265626 7.824219.191407 11.636719-.210937 6.621094-.703125 13.339844-.703125 19.957031-.003906 2.332031.25 4.691407.371093 7.042969.371093 1.511719 0 3.023438-.050781 4.515625-.152343 18.980469-1.085938 39.304687-11.492188 57.21875-29.308594 9.070313-9.019531 17.109375-19.472656 23.757813-30.71875 24.03125-3.796875 48.503906-11.671875 72.941406-23.480469 6.777344 52.824219 51.945312 93.777344 106.480468 93.777344 59.203126 0 107.363282-48.253906 107.363282-107.566406.003906-34.070313-15.914063-65.734375-42.902344-86.027344zm-396.386719-76.023438-7.390625-24.058593c-.058594-.183594-.09375-.304688.183594-.519531.601562-.457032-1.238281-1.300782 25.949219 15.949218v.003906c18.554687 11.769532 22.71875 32.613282 23.5625 57.386719l-12.871094-8.488281c-13.996094-9.75-24.449219-24.050781-29.433594-40.273438zm152.03125 164.371094c-12.980469 39.902344-48.089843 78.085938-81.4375 79.996094-3.03125.207031-6.074219.152344-9.046875-.160156-3.832031-.410156-7.691406-.609375-11.550781-.609375-3.863281 0-7.722656.203125-11.558594.609375-2.960937.3125-6.003906.367187-9.125.15625-15.246093-.875-32.050781-9.667969-47.328125-24.761719-15.265625-15.089844-27.351562-34.703125-34.027344-55.222656-8.550781-26.367188-7.40625-50.648438 3.289063-70.1875 11.660156-21.035157 32.664063-33.707031 57.585937-34.773438 11.53125-.421875 22.921876 2.140625 33.917969 7.605469l3.125 2.058594c2.921875 1.925781 6.960938 1.644531 9.574219-1.148438 11.546875-6.089844 23.558594-8.949218 35.660156-8.515625 46.625 1.992188 80.378906 44.976563 60.921875 104.953125zm179.898438-161.140625c0-1.738281 1.90625-2.785156 3.375-1.820312 9.003906 5.9375 20.507812 12.335937 30.640625 28.3125.222656 2.074219 1.292968 4.027343 3.078125 5.3125 2.195312 4.164062 4.023437 8.523437 5.410156 13.042969l7.394531 24.054687c.054688.183594.09375.308594-.1875.519531-.367187.28125-.589844.140625-.753906.039063l-25.195312-15.988281c-25.640626-16.265626-23.761719-39.917969-23.761719-53.472657zm0 251.378907c-50.9375 0-92.382813-41.523438-92.382813-92.558594 0-37.3125 21.75-70.117188 55.125-84.734375.570313 5.394531 2.316406 10.632812 5.191406 15.398437 1.40625 2.332032 3.882813 3.621094 6.417969 3.621094 1.320313 0 2.65625-.351562 3.867188-1.082031 3.539062-2.144531 4.675781-6.761719 2.535156-10.308594-3.0625-5.074219-3.988281-11.070313-2.601563-16.882813 1.816407-7.617187 7.320313-13.507812 14.355469-15.984374v20.929687c0 4.105469 3.164063 7.691406 7.261719 7.8125 4.242188.128906 7.722656-3.277344 7.722656-7.5v-10.0625c4.6875 4.046875 7.921875 5.917969 14.957032 10.382813-.054688 3.972656-1.144532 7.898437-3.203126 11.304687-2.140624 3.546875-1.007812 8.164063 2.535157 10.308594 1.210937.730469 2.546875 1.082031 3.867187 1.082031 2.535156 0 5.007813-1.289062 6.417969-3.621094 1.933594-3.199218 3.359375-6.671875 4.257813-10.273437l4.617187 2.929687c2.59375 1.648438 5.492187 2.460938 8.378906 2.460938 1.625 0 3.246094-.261719 4.8125-.777344 24.027344 17.417969 38.25 45.128906 38.25 74.996094 0 51.035156-41.441406 92.558594-92.382812 92.558594zm0 0"/><path d="m141.792969 211.390625c31.664062 0 57.425781-25.808594 57.425781-57.535156 0-31.726563-25.761719-57.539063-57.425781-57.539063-31.667969 0-57.425781 25.8125-57.425781 57.539063 0 31.726562 25.757812 57.535156 57.425781 57.535156zm0-100.0625c23.402343 0 42.445312 19.078125 42.445312 42.527344s-19.042969 42.527343-42.445312 42.527343c-23.40625 0-42.445313-19.078124-42.445313-42.527343s19.039063-42.527344 42.445313-42.527344zm0 0"/><path d="m126.742188 149.15625c1.460937 1.464844 3.378906 2.195312 5.296874 2.195312 1.914063 0 3.832032-.730468 5.296876-2.195312l2.191406-2.199219 2.195312 2.199219c1.460938 1.464844 3.378906 2.195312 5.296875 2.195312s3.832031-.730468 5.296875-2.195312c2.925782-2.933594 2.925782-7.683594 0-10.613281l-2.195312-2.199219 2.195312-2.199219c2.925782-2.929687 2.925782-7.683593 0-10.613281-2.925781-2.929688-7.667968-2.929688-10.59375 0l-2.195312 2.199219-2.191406-2.199219c-2.925782-2.929688-7.667969-2.929688-10.59375 0-2.925782 2.929688-2.925782 7.683594 0 10.613281l2.191406 2.199219-2.191406 2.199219c-2.925782 2.929687-2.925782 7.679687 0 10.613281zm0 0"/><path d="m278.335938 84.265625c12.507812-12.535156 15.828124-29.960937 10.1875-45.859375l2.203124-.914062c3.820313-1.585938 5.636719-5.972657 4.050782-9.804688-1.582032-3.828125-5.964844-5.644531-9.785156-4.058594l-3.621094 1.5c-.074219-.097656-.140625-.195312-.214844-.292968l2.78125-2.789063c2.925781-2.929687 2.925781-7.683594 0-10.613281-2.925781-2.929688-7.667969-2.929688-10.59375 0l-2.789062 2.796875c-.097657-.074219-.191407-.144531-.289063-.214844l1.503906-3.636719c1.582031-3.828125-.230469-8.21875-4.054687-9.804687-3.816406-1.585938-8.203125.230469-9.785156 4.058593l-.90625 2.199219c-16-5.734375-33.269532-2.316406-45.777344 10.214844-17.488282 17.523437-35.953125 63.742187-16.242188 83.492187 19.828125 19.871094 66.050782 1.042969 83.332032-16.273437zm-74.410157-23.417969c3.613281-12.734375 10.8125-26.070312 17.914063-33.183594 12.703125-12.730468 31.179687-10.507812 43.78125 2.121094 13.300781 13.324219 14.191406 31.773438 2.121094 43.867188-7.101563 7.117187-20.414063 14.328125-33.121094 17.949218-13.335938 3.796876-24.1875 3.175782-29.027344-1.675781-4.835938-4.84375-5.460938-15.714843-1.667969-29.078125zm0 0"/><path d="m244.394531 61.667969c2.925781-2.929688 2.925781-7.683594 0-10.613281-2.925781-2.929688-7.667969-2.929688-10.59375 0-2.925781 2.929687-2.925781 7.683593 0 10.613281 2.925781 2.929687 7.667969 2.929687 10.59375 0zm0 0"/><path d="m223.207031 82.894531c2.925781-2.929687 2.925781-7.683593 0-10.613281s-7.667969-2.929688-10.59375 0c-2.921875 2.929688-2.921875 7.683594 0 10.613281 2.925781 2.933594 7.667969 2.933594 10.59375 0zm0 0"/><path d="m223.207031 61.667969c2.925781-2.929688 2.925781-7.683594 0-10.613281-2.925781-2.929688-7.667969-2.929688-10.59375 0-2.921875 2.929687-2.921875 7.683593 0 10.613281 2.925781 2.929687 7.667969 2.929687 10.59375 0zm0 0"/><path d="m244.394531 82.894531c2.925781-2.929687 2.925781-7.683593 0-10.613281s-7.667969-2.929688-10.59375 0-2.925781 7.683594 0 10.613281c2.925781 2.933594 7.667969 2.933594 10.59375 0zm0 0"/><path d="m265.578125 61.667969c2.925781-2.929688 2.925781-7.683594 0-10.613281-2.921875-2.929688-7.667969-2.929688-10.589844 0-2.925781 2.929687-2.925781 7.683593 0 10.613281 2.921875 2.929687 7.667969 2.929687 10.589844 0zm0 0"/><path d="m244.394531 40.441406c2.925781-2.929687 2.925781-7.683594 0-10.613281s-7.667969-2.929687-10.59375 0c-2.925781 2.933594-2.925781 7.683594 0 10.613281 2.925781 2.929688 7.667969 2.929688 10.59375 0zm0 0"/><path d="m278.171875 104.957031c-2.929687 1.757813-5.410156 4.15625-7.261719 6.957031-8.210937-4.09375-18.703125-3.078124-26.011718 4.246094-7.203126 7.214844-8.355469 17.707032-4.167969 26.066406-4.558594 2.984376-7.953125 7.578126-9.410157 13.03125-1.441406 5.40625-.828124 11.007813 1.671876 15.957032-5.199219 3.394531-8.789063 8.824218-9.871094 14.976562-2.054688 11.65625 5.359375 22.972656 16.871094 25.765625 9.574218 2.320313 19.003906-1.820312 24.097656-9.550781 6.554687 3.3125 14.691406 3.394531 21.621094-.769531 2.949218-1.773438 5.441406-4.195313 7.300781-7.03125 8.175781 4.105469 18.667969 3.195312 26.019531-4.167969 7.160156-7.175781 8.355469-17.652344 4.171875-26.039062 4.800781-3.128907 8.28125-8.027344 9.617187-13.878907 1.101563-4.824219.503907-9.726562-1.398437-14.035156 3.757813-1.445313 5.722656-5.625 4.390625-9.460937-1.359375-3.917969-5.628906-5.980469-9.539062-4.625l-4.414063 1.539062 2.957031-2.960938c2.925782-2.929687 2.925782-7.683593 0-10.613281-2.925781-2.929687-7.667968-2.929687-10.59375 0l-2.957031 2.960938 1.535156-4.421875c1.359375-3.914063-.703125-8.191406-4.613281-9.554688-3.808594-1.324218-7.960938.613282-9.421875 4.34375-6.402344-2.816406-14.054687-2.65625-20.59375 1.265625zm18.792969 21.289063c-.148438.550781-.222656 1.105468-.246094 1.652344l-2.722656 2.730468c-6.8125 6.824219 3.132812 18.085938 11.183594 10.019532 2.597656-2.613282 5.402343-3.15625 8.136718-2.234376 6.9375 2.335938 6.726563 12.695313-.726562 14.429688-7.382813 1.714844-9.851563 10.96875-4.324219 16.175781 1.46875 1.382813 2.332031 3.371094 2.363281 5.445313.097656 6.652344-8.222656 10.265625-12.992187 5.175781-5.140625-5.5-14.414063-3.011719-16.113281 4.335937-1.324219 5.703126-8.578126 7.957032-12.796876 3.445313-5.152343-5.511719-14.402343-3.011719-16.121093 4.367187-.867188 3.722657-4.753907 6.632813-9.089844 5.578126-6.304687-1.527344-7.9375-10.097657-2.222656-13.667969 3.171875-1.980469 5.882812-.792969 6.996093-.625 9.230469 1.992187 18.265626-2.195313 23.09375-9.949219.667969.359375 1.363282.6875 2.078126.984375 15.769531 6.5 32.84375-7.027344 24.398437-15.492187-2.925781-2.929688-7.667969-2.929688-10.59375 0-4.582031 4.589843-12.136719 1.433593-12.742187-4.421876-.519532-12.035156-15.355469-10.078124-15.023438-.644531.074219 6.292969 1.5 10.242188-2.4375 13.46875-1.820312 1.492188-4.242188 1.867188-5.847656 1.328125-1.769532 0-6.921875-3.59375-5.421875-9.210937.714843-2.683594 2.84375-4.742188 5.550781-5.378907 7.351562-1.722656 9.855469-11 4.332031-16.164062-1.480469-1.382812-2.351562-3.371094-2.386719-5.453125-.113281-6.679687 8.316407-10.261719 12.984376-5.28125 5.140624 5.488281 14.382812 3.011719 16.101562-4.320313.457031-1.933593 1.726562-3.644531 3.484375-4.699218 5.640625-3.382813 12.867187 1.8125 11.105469 8.40625zm0 0"/><path d="m365.683594 354.5c0 4.144531-3.359375 7.5-7.5 7.5-4.144532 0-7.5-3.355469-7.5-7.5 0-4.140625 3.355468-7.5 7.5-7.5 4.140625 0 7.5 3.359375 7.5 7.5zm0 0"/><path d="m385.683594 382.503906c0 4.140625-3.359375 7.5-7.5 7.5s-7.5-3.359375-7.5-7.5c0-4.144531 3.359375-7.5 7.5-7.5s7.5 3.355469 7.5 7.5zm0 0"/><path d="m345.679688 404.503906c0 4.140625-3.355469 7.5-7.5 7.5-4.140626 0-7.5-3.359375-7.5-7.5s3.359374-7.5 7.5-7.5c4.144531 0 7.5 3.359375 7.5 7.5zm0 0"/></svg>