<svg height="512" viewBox="0 0 60 60" width="512" xmlns="http://www.w3.org/2000/svg"><g id="Page-1" fill="none" fill-rule="evenodd"><g id="044---Fruity-Drink" fill-rule="nonzero"><path id="Shape" d="m20.69 57.68c-1.5438291 1.1321865-3.4979081 1.5506578-5.37 1.15-.4648755-.1215602-.9119608-.3030836-1.33-.54-.422352.2352765-.872527.4166903-1.34.54-4.29 1.1-9.22-3.18-11.01-9.58-1.79-6.4.26-12.48 4.56-13.58 1.26751717-.3125298 2.60259917-.2001018 3.8.32.5000608.1985608.9790935.4464519 1.43.74 1.5594669.9900557 3.5505331.9900557 5.11 0 .5239074-.3319743 1.0800761-.6100586 1.66-.83l2.37 21.32c.0138666.1589872.054435.3144994.12.46z" fill="#f44335"/><path id="Shape" d="m20.57 57.22-2.37-21.32c-.5799239.2199414-1.1360926.4980257-1.66.83-.3686555.2351796-.7685784.4172994-1.188.541l2.218 19.949c.0138666.1589872.054435.3144994.12.46-.7543221.5098808-1.5894254.8885511-2.47 1.12.034.009.066.024.1.033 1.8720919.4006578 3.8261709-.0178135 5.37-1.15-.0658913-.1464381-.1064667-.3029918-.12-.463z" fill="#c81e1e"/><path id="Shape" d="m14.58 34.29c-.33 1.31-2.31 1.98-4.58 1.59-.21-.03-.41-.07-.62-.12-1.74-.43-4.26-2.42-5.64-3.6-.19659547-.164179-.28103703-.4269142-.21690552-.6748894.0641315-.2479751.2653634-.4368292.51690552-.4851106 1.76-.36 4.89-.87 6.63-.44 2.52.62 4.27 2.29 3.91 3.73z" fill="#60a917"/><path id="Shape" d="m47.99 16.22-.81 7.24-3.19 1.6c-2.5166743 1.2499632-5.4733257 1.2499632-7.99 0l-.01-.01c-2.5158686-1.2533919-5.4741314-1.2533919-7.99 0-2.5178251 1.2600171-5.4821749 1.2600171-8 0l-3.18-1.59h-.01l-.41-3.72-.39-3.52c-.0609714-.565307.1209419-1.129918.5004619-1.5533021.37952-.4233842.9209534-.6657227 1.4895381-.6666979h28c.5685847.0009752 1.1100181.2433137 1.4895381.6666979.37952.4233841.5614333.9879951.5004619 1.5533021z" fill="#02a9f4"/><path id="Shape" d="m46 14h-3c.5685847.0009752 1.1100181.2433137 1.4895381.6666979.37952.4233841.5614333.9879951.5004619 1.5533021l-.81 7.24-3.19 1.6c-.7868463.3876628-1.6265375.6572266-2.492.8 1.8691982.3212457 3.7921224.0411402 5.492-.8l3.19-1.6.81-7.24c.0609714-.565307-.1209419-1.129918-.5004619-1.5533021-.37952-.4233842-.9209534-.6657227-1.4895381-.6666979z" fill="#0377bc"/><path id="Shape" d="m37.63 34.17c-2.3570604 2.7191622-3.6469423 6.2014879-3.63 9.8-.0007402 6.0695609 3.6478202 11.5443736 9.25 13.88-.3313789.7000407-1.0354922 1.1474055-1.81 1.15h-18.88c-.8412345.004404-1.592443-.5258609-1.87-1.32-.065565-.1455006-.1061334-.3010128-.12-.46l-2.37-21.32-1.38-12.44 3.18 1.59c2.5178251 1.2600171 5.4821749 1.2600171 8 0 2.5158686-1.2533919 5.4741314-1.2533919 7.99 0l.01.01c2.5166743 1.2499632 5.4733257 1.2499632 7.99 0l3.19-1.6-1.87 16.83-6.2-6.2c-.200582-.1986967-.4758111-.3033438-.7577354-.2881046-.2819242.0152391-.5442695.1489443-.7222646.3681046z" fill="#ef314c"/><path id="Shape" d="m44.003 25.054-1.393 12.536 2.7 2.7 1.87-16.83z" fill="#bb193b"/><path id="Shape" d="m34 43.97c-.0107703-3.244951 1.0411411-6.4041974 2.995-8.995l-.885-.885c-.200582-.1986967-.4758111-.3033438-.7577354-.2881046-.2819242.0152391-.5442695.1489443-.7222646.3681046-2.3570604 2.7191622-3.6469423 6.2014879-3.63 9.8-.0007402 6.0695609 3.6478202 11.5443736 9.25 13.88-.3313789.7000407-1.0354922 1.1474055-1.81 1.15h3c.7745078-.0025945 1.4786211-.4499593 1.81-1.15-5.6021798-2.3356264-9.2507402-7.8104391-9.25-13.88z" fill="#bb193b"/><path id="Shape" d="m21.55 14h-3.55c-.5685847.0009752-1.1100181.2433137-1.4895381.6666979-.37952.4233841-.5614333.9879951-.5004619 1.5533021l.39 3.52c-2.4698268-.5850992-4.7573196-1.7700617-6.66-3.45-1.05022677-1.0387233-1.6713488-2.434463-1.74-3.91 1.73-1.77 1.38-4.92 1.38-4.92s3.16.34 4.92-1.4l.01.01c1.4745992.07259827 2.8689722.69311209 3.91 1.74 1.5727163 1.77877493 2.7124502 3.8973794 3.33 6.19z" fill="#f44335"/><path id="Shape" d="m18.22 7.81c-1.0410278-1.04688791-2.4354008-1.66740173-3.91-1.74l-.01-.01c-.2285007.22359433-.4829832.4189885-.758.582.6225343.28960096 1.1902467.68476668 1.678 1.168 1.5727163 1.77877493 2.7124502 3.8973794 3.33 6.19h3c-.6175498-2.2926206-1.7572837-4.41122507-3.33-6.19z" fill="#c81e1e"/><path id="Shape" d="m13.01 16.22.266 2.4c.9988895.4825359 2.046059.8579616 3.124 1.12l-.39-3.52c-.0609714-.565307.1209419-1.129918.5004619-1.5533021.37952-.4233842.9209534-.6657227 1.4895381-.6666979h-3c-.5685847.0009752-1.1100181.2433137-1.4895381.6666979-.37952.4233841-.5614333.9879951-.5004619 1.5533021z" fill="#c81e1e"/><path id="Shape" d="m15.77 2.1c.0126838 1.44433187-.4989571 2.84423828-1.44 3.94-.01.01-.02.02-.03.02-1.76 1.74-4.92 1.4-4.92 1.4s-.34-3.2 1.42-4.95c1.0957617-.94104287 2.4956681-1.45268379 3.94-1.44.2762584-.01050054.5443883.09464119.7398736.29012643.1954852.19548523.3006269.46361519.2901264.73987357z" fill="#60a917"/><path id="Shape" d="m8 12.38-.03.03c-1.09654639.9385494-2.4967368 1.4467403-3.94 1.43-.27625838.0105005-.54438834-.0946412-.73987357-.2901264-.19548524-.1954853-.30062697-.4636152-.29012643-.7398736-.01746469-1.4451525.49477382-2.84669395 1.44-3.94 1.75-1.76 4.94-1.41 4.94-1.41s.35 3.15-1.38 4.92z" fill="#60a917"/><path id="Shape" d="m58.83 55.37c-2.7191622 2.3570604-6.2014879 3.6469423-9.8 3.63-3.9867732.0018581-7.8107922-1.5810585-10.6298668-4.4001332-2.8190747-2.8190746-4.4019913-6.6430936-4.4001332-10.6298668-.0169423-3.5985121 1.2729396-7.0808378 3.63-9.8.1779951-.2191603.4403404-.3528655.7222646-.3681046.2819243-.0152392.5571534.0894079.7577354.2881046l2.1 2.1c-4.2716262 4.3139788-4.2544724 11.2687629.0383824 15.5616176 4.2928547 4.2928548 11.2476388 4.3100086 15.5616176.0383824l2.1 2.1c.1986967.200582.3033438.4758111.2881046.7577354-.0152391.2819242-.1489443.5442695-.3681046.7222646z" fill="#f57c00"/><path id="Shape" d="m56.81 51.79c-4.3139788 4.2716262-11.2687629 4.2544724-15.5616176-.0383824-4.2928548-4.2928547-4.3100086-11.2476388-.0383824-15.5616176z" fill="#ffdc00"/><path id="Shape" d="m41.21 36.19c-.5028527.504362-.9556362 1.0562757-1.352 1.648l13.952 13.952c-1.6972218 1.6945029-3.9046238 2.7837971-6.282 3.1.4941255.072738.9925836.1121603 1.492.118 2.9212163.003623 5.723904-1.1548692 7.79-3.22z" fill="#fec108"/><circle id="Oval" cx="24.5" cy="32.5" fill="#f5f5f5" r="2.5"/><path id="Shape" d="m5.5 49.177c-.44891512-.0001881-.84269078-.2995066-.963-.732-1.023-3.672-.42-6.655.486-8.222.38766547-.7894092 1.08197101-1.385406 1.921-1.649.34619036-.0893164.71373317.0128422.96417862.2679936.25044544.2551515.34574491.6245322.25.969-.09574491.3444679-.36798826.61169-.71417862.7010064-.30583649.1483534-.54923177.4002516-.687.711-.9326407 2.1128191-1.03651751 4.4991301-.291 6.685.08426526.3017023.02228759.6254579-.1674483.8747072s-.48530398.395189-.7985517.3942928z" fill="#f5f5f5"/><g fill="#000"><path id="Shape" d="m11.306 60c.5366446.0006806 1.0712204-.0665194 1.591-.2.3739244-.0967682.7383916-.2269589 1.089-.389.3497613.1624249.7135999.2926302 1.087.389 1.7974204.4097379 3.6830184.1352228 5.289-.77.5649762.6175004 1.3630393.9697364 2.2.971h18.878c.8006959-.0041283 1.5665161-.3281707 2.127-.9 1.6873768.5914015 3.4619908.895621 5.25.9h.059c3.8235465.0023746 7.5203311-1.3709197 10.415-3.869.4295498-.3703667.6862746-.9022831.709-1.469.022366-.5536496-.1892282-1.0911643-.583-1.481l-2.1-2.1-10.98-10.982 2.647-23.773c.0929666-.8478217-.1793326-1.6951372-.7488081-2.3300719s-1.3822885-.9974611-2.2351919-.9969281h-4.782l1.612-4.36 9.743-6.821c.4333537-.32308943.5315253-.93206494.2216555-1.37496779-.3098697-.44290284-.9156066-.55940024-1.3676555-.26303221l-10 7c-.1668632.11652473-.2941994.28118963-.365.472l-1.976 5.347h-16.8c-.6895787-2.1824041-1.8348503-4.19344653-3.36-5.9-.8126891-.81230854-1.8143043-1.41018522-2.915-1.74.4704641-1.01037721.7278092-2.10681696.756-3.221.0208374-.55399179-.1892076-1.09177943-.58-1.485-.391436-.39498347-.9314447-.6063386-1.487-.582-1.6964173-.01128518-3.3372977.60404497-4.608 1.728-.87429071.94426456-1.43342247 2.13696249-1.6 3.413-2.692-2.421-4.028-2.647-4.41-2.647-.56075681-.00409908-1.02257568.43953095-1.041 1-.00947313.26090453.08717224.51451423.26787791.70294558.18070567.18843136.43004967.29560307.69112209.29705442.011 0 .934.167 3.024 2.018-1.23517769.17982258-2.38626955.73164904-3.3 1.582-1.12288218 1.26987794-1.73687488 2.9099222-1.724 4.605-.02150686.5415964.17872523 1.0685515.55446657 1.4592017.37574135.3906502.8945104.6112252 1.43653343.6107983h.077c1.11445571-.0285662 2.21114666-.2858904 3.222-.756.32755765 1.1023708.92691576 2.1047396 1.743 2.915 1.8543666 1.6507409 4.0600468 2.8578806 6.45 3.53l1.05 9.445c-.6829054.506667-1.2813094 1.1182338-1.773 1.812-.1148149-.1368779-.2369957-.2674043-.366-.391-.9875149-.8881839-2.1852759-1.5097806-3.48-1.806-1.835-.453-4.862-.018-7.077.43-.62709722.1267306-1.12667666.6005871-1.2863491 1.2201162-.15967245.6195291.04862947 1.2758293.5363491 1.6898838.722.613 1.569 1.289 2.444 1.907-1.69977633.5929217-3.11673443 1.7994581-3.973 3.383-1.7 2.944-2.032 7.168-.881 11.3 1.723 6.148 6.259 10.48 10.629 10.48zm46.677-5.381c-2.5499392 2.1828713-5.7963475 3.3820526-9.153 3.381h-.009c-5.4853315-.0068649-10.4640381-3.2085157-12.7460934-8.1966148-2.2820553-4.988099-1.4492458-10.8485184 2.1320934-15.0033852l1.428 1.428c-4.0347816 4.7723913-3.7394244 11.8404579.6794485 16.2595917 4.4188729 4.4191337 11.486922 4.7149082 16.2595515.6804083l1.426 1.432zm-11.583-9.631-5.332 5.332c-1.2508878-1.522226-2.0233212-3.3805894-2.22-5.341zm-7.55-2.009c.1881298-1.9574339.9538951-3.8147628 2.2-5.336l5.35 5.345zm8.965 3.421.009 7.552c-1.9606716-.196838-3.8193111-.9692415-5.342-2.22zm2.009 7.551-.009-7.545 5.344 5.345c-1.5207217 1.2466431-3.3776979 2.0131027-5.335 2.202zm-8.1-18.467-2.1-2.1c-.3885461-.3962435-.9276506-.6079566-1.482-.582-.5662631.021655-1.0980332.2777596-1.468.707-5.4630114 6.3647694-5.10306 15.8629544.826 21.796 1.0624194 1.0610493 2.2681144 1.9681816 3.582 2.695h-18.522c-.5123746.0030519-.9441593-.3816683-1-.891l-3.548-31.935 1.541.77c2.8010446 1.3929609 6.0929554 1.3929609 8.894 0 1.8738745-.915595 4.0293048-1.0707573 6.015-.433l-10.4 28.142c-.1916428.5180431.0729569 1.0933572.591 1.285s1.0933572-.0729569 1.285-.591l10.374-28.071c2.6308894 1.0554874 5.5871876.9379776 8.126-.323l1.549-.776-1.46 13.115zm4.276-20.484c.2845045.0005144.5555154.1213525.7460391.3326433.1905237.2112907.2827791.4933151.2539609.7763567l-.746 6.7-2.707 1.356c-2.0462232 1.0075314-4.4252074 1.0937555-6.539.237l3.471-9.402zm-10.844 8.635c-1.0169045-.3436506-2.0826064-.5209299-3.156-.525-1.5437075-.0046607-3.0669344.3532822-4.447 1.045-2.2381477 1.1120359-4.8678523 1.1120359-7.106 0l-2.7-1.349-.747-6.696c-.0294427-.2832746.0625639-.5657548.2531908-.7773506.1906269-.2115959.4620086-.3324768.7468092-.3326494h20.347zm-23.65-20.422c.9224512-.74893877 2.0758092-1.15529956 3.264-1.15.0134095 1.19078038-.3910431 2.34858325-1.143 3.272-.9172834.75653265-2.0741461 1.16141686-3.263 1.142-.0196557-1.18919597.3852426-2.34645349 1.142-3.264zm-7.506 9.638-1-.04 1 .039zm0-.011c-.01234396-1.1877005.39171586-2.3422077 1.142-3.263.91580194-.7555919 2.07088299-1.16011845 3.258-1.141.01967945 1.18817609-.3828684 2.3447925-1.136 3.264-.92108006.7502363-2.07612098 1.1536513-3.264 1.14zm6.444 2.74c-.77686956-.7784524-1.26807541-1.7964537-1.394-2.889.87284988-1.2338189 1.3442435-2.70666193 1.35-4.218 1.5056219-.01155063 2.9715008-.48447108 4.2-1.355 1.0991326.1265644 2.1235674.6197586 2.908 1.4 1.1631824 1.31139226 2.0656323 2.8325583 2.659 4.482h-2.167c-.8534868-.0006274-1.6668391.3623042-2.2364195.9979286-.5695805.6356243-.8414643 1.4837637-.7475805 2.3320714l.225 2.021c-1.7679559-.5941592-3.399025-1.5363506-4.797-2.771zm6.364 16.858.316 2.843c-.3869595.1790679-.762357.3821299-1.124.608-.2723485.1714228-.5662492.3059311-.874.4.1742184-1.4199275.7587474-2.7582279 1.682-3.851zm-6.375-.91c.9558137.2157278 1.8426352.6667006 2.58 1.312.3816115.2773041.6052293.7223035.6 1.194l-.009.03c-.091.314-.49.6-1.081.769-.9536942.2262801-1.9487995.2108122-2.895-.045-1.74013883-.6787403-3.33820398-1.6765135-4.712-2.942 1.80529565-.4343285 3.67375674-.5420266 5.517-.318zm-7.143 7.693c.65665068-1.2577869 1.80023667-2.1913782 3.164-2.583 1.54421387-.3200282 3.15193154.0184768 4.436.934.6391475.4068098 1.3531142.6818569 2.1.809v1.609c0 .5522847.4477153 1 1 1s1-.4477153 1-1v-1.611c.7409145-.1255741 1.4493769-.3975366 2.084-.8.094-.059.191-.107.287-.162l2.2 19.782c-1.1954747.7291991-2.6267468.9675055-3.994.665-.3802642-.1000966-.7459701-.2490007-1.088-.443-.3001346-.1684464-.6658004-.1707129-.968-.006-.349412.1955037-.7219941.3463508-1.109.449-3.763.962-8.159-3.019-9.8-8.88-1.008-3.626-.751-7.275.688-9.763z"/><path id="Shape" d="m24.5 36c1.9329966 0 3.5-1.5670034 3.5-3.5s-1.5670034-3.5-3.5-3.5-3.5 1.5670034-3.5 3.5 1.5670034 3.5 3.5 3.5zm0-5c.8284271 0 1.5.6715729 1.5 1.5s-.6715729 1.5-1.5 1.5-1.5-.6715729-1.5-1.5.6715729-1.5 1.5-1.5z"/><circle id="Oval" cx="16" cy="11" r="1"/><circle id="Oval" cx="23" cy="40" r="1"/><circle id="Oval" cx="24" cy="45" r="1"/><circle id="Oval" cx="13" cy="14" r="1"/></g></g></g></svg>