<svg id="Capa_1" enable-background="new 0 0 512 512" height="512" viewBox="0 0 512 512" width="512" xmlns="http://www.w3.org/2000/svg"><g><g><path clip-rule="evenodd" d="m200.995 10c-10.119 0-25.88 31.124-25.88 45.098s11.593 25.313 25.88 25.313c14.286 0 25.88-11.338 25.88-25.313s-15.761-45.098-25.88-45.098z" fill="#ffe6b4" fill-rule="evenodd"/></g><g><path clip-rule="evenodd" d="m311.005 10c-10.119 0-25.88 31.124-25.88 45.098s11.565 25.313 25.88 25.313c14.286 0 25.852-11.338 25.852-25.313s-15.761-45.098-25.852-45.098z" fill="#ffe6b4" fill-rule="evenodd"/></g><g><path clip-rule="evenodd" d="m311.005 124.914h-110.01-63.608c-12.926 0-23.47 10.573-23.47 23.499v31.889h56.663c8.674 0 15.789 7.115 15.789 15.817v29.933c0 11.877 9.723 21.6 21.6 21.6s21.6-9.723 21.6-21.6v-24.122-4.819-.992c0-11.877 9.723-21.6 21.6-21.6s21.6 9.723 21.6 21.6 9.723 21.6 21.6 21.6 21.6-9.723 21.6-21.6c0-8.702 7.115-15.817 15.817-15.817h66.301v-31.889c0-12.926-10.573-23.499-23.499-23.499z" fill="#ff7b79" fill-rule="evenodd"/></g><g><path clip-rule="evenodd" d="m272.767 196.119c0-11.877-9.723-21.6-21.6-21.6s-21.6 9.723-21.6 21.6v29.933c0 11.877-9.723 21.6-21.6 21.6s-21.6-9.723-21.6-21.6v-29.933c0-8.702-7.115-15.817-15.789-15.817h-56.663v109.699h284.168v-109.699h-66.301c-8.702 0-15.817 7.115-15.817 15.817 0 11.877-9.723 21.6-21.6 21.6-11.876 0-21.598-9.723-21.598-21.6z" fill="#ffbdbc" fill-rule="evenodd"/></g><g><path clip-rule="evenodd" d="m398.084 290.001h-284.168-22.932c-14.173 0-25.795 11.593-25.795 25.795v36.254l8.957 9.638c4.479 4.847 9.949 9.468 22.138 9.468s17.66-4.62 22.138-9.468l8.957-9.638c4.479-4.819 9.949-9.439 22.138-9.439s17.66 4.62 22.138 9.439l8.957 9.638c4.479 4.847 9.949 9.468 22.138 9.468s17.66-4.62 22.138-9.468l8.957-9.638c4.479-4.819 9.978-9.439 22.138-9.439 12.189 0 17.66 4.62 22.138 9.439l8.957 9.638c4.479 4.847 9.978 9.468 22.138 9.468 12.189 0 17.659-4.62 22.167-9.468l8.929-9.638c4.479-4.819 9.978-9.439 22.138-9.439 12.189 0 17.66 4.62 22.167 9.439l8.929 9.638c4.479 4.847 9.978 9.468 22.167 9.468 12.16 0 17.66-4.62 22.138-9.468l8.929-9.638v-36.254c0-14.201-11.594-25.795-25.766-25.795z" fill="#ff7b79" fill-rule="evenodd"/></g><g><path clip-rule="evenodd" d="m151.191 455.087c-13.663 0-24.746-11.083-24.746-24.774 0-13.663 11.083-24.746 24.746-24.746s24.746 11.083 24.746 24.746c0 13.691-11.083 24.774-24.746 24.774zm104.795 0c-13.663 0-24.746-11.083-24.746-24.774 0-13.663 11.083-24.746 24.746-24.746s24.746 11.083 24.746 24.746c0 13.691-11.083 24.774-24.746 24.774zm53.233-83.932c-12.16 0-17.66-4.62-22.138-9.468l-8.957-9.638c-4.479-4.819-9.949-9.439-22.138-9.439-12.16 0-17.66 4.62-22.138 9.439l-8.957 9.638c-4.479 4.847-9.949 9.468-22.138 9.468s-17.66-4.62-22.138-9.468l-8.957-9.638c-4.479-4.819-9.949-9.439-22.138-9.439s-17.66 4.62-22.138 9.439l-8.957 9.638c-4.479 4.847-9.949 9.468-22.138 9.468s-17.66-4.62-22.138-9.468l-8.957-9.638v103.037h86.002 104.795 103.831c-13.209-.51-23.754-11.395-23.754-24.746 0-13.663 11.055-24.746 24.746-24.746 13.663 0 24.746 11.083 24.746 24.746 0 13.351-10.573 24.236-23.782 24.746h85.009v-103.036l-8.929 9.638c-4.479 4.847-9.978 9.468-22.138 9.468-12.189 0-17.688-4.62-22.167-9.468l-8.929-9.638c-4.507-4.819-9.978-9.439-22.167-9.439-12.16 0-17.66 4.62-22.138 9.439l-8.929 9.638c-4.509 4.847-9.98 9.467-22.169 9.467z" fill="#ffbdbc" fill-rule="evenodd"/></g><g><path clip-rule="evenodd" d="m151.191 405.567c-13.663 0-24.746 11.083-24.746 24.746 0 13.691 11.083 24.774 24.746 24.774s24.746-11.083 24.746-24.774c0-13.663-11.083-24.746-24.746-24.746z" fill="#ff7b79" fill-rule="evenodd"/></g><g><path clip-rule="evenodd" d="m255.986 405.567c-13.663 0-24.746 11.083-24.746 24.746 0 13.691 11.083 24.774 24.746 24.774s24.746-11.083 24.746-24.774c0-13.663-11.083-24.746-24.746-24.746z" fill="#ff7b79" fill-rule="evenodd"/></g><g><path clip-rule="evenodd" d="m360.809 405.596c-13.691 0-24.746 11.083-24.746 24.746 0 13.351 10.545 24.236 23.754 24.746h1.956c13.209-.51 23.782-11.395 23.782-24.746 0-13.663-11.083-24.746-24.746-24.746z" fill="#ff7b79" fill-rule="evenodd"/></g><g><path clip-rule="evenodd" d="m359.817 455.087h-103.831-104.795-86.002-27.268l25.058 46.913h386.015l25.086-46.913h-27.297-85.009c-.312 0-.652 0-.964 0-.341 0-.653 0-.993 0z" fill="#fff" fill-rule="evenodd"/></g><g><path d="m502 445.088h-45.218v-129.292c0-19.737-16.045-35.795-35.767-35.795h-12.932v-131.588c0-18.472-15.027-33.499-33.499-33.499h-53.58v-25.911c14.916-4.275 25.852-17.851 25.852-33.904 0-10.024-5.354-23.403-10.365-32.582-8.156-14.941-16.731-22.517-25.486-22.517-8.766 0-17.349 7.575-25.511 22.515-5.013 9.176-10.369 22.555-10.369 32.584 0 16.056 10.948 29.634 25.88 33.906v25.909h-90.011v-25.909c14.932-4.273 25.88-17.851 25.88-33.906 0-10.029-5.356-23.408-10.369-32.584-8.161-14.94-16.744-22.515-25.51-22.515s-17.349 7.575-25.51 22.515c-5.013 9.176-10.37 22.555-10.37 32.584 0 16.056 10.948 29.634 25.88 33.906v25.909h-53.608c-18.456 0-33.471 15.027-33.471 33.499v131.588h-12.932c-19.737 0-35.795 16.058-35.795 35.795v129.292h-45.189c-5.523 0-10 4.478-10 10s4.477 10 10 10h21.925l22.233 41.623c1.739 3.256 5.13 5.289 8.821 5.289h386.015c3.689 0 7.079-2.031 8.818-5.284l22.26-41.628h21.928c5.523 0 10-4.478 10-10s-4.477-10-10-10zm-206.875-389.989c0-9.21 9.978-29.091 15.873-34.324 5.89 5.244 15.859 25.125 15.859 34.324 0 8.443-7.111 15.312-15.852 15.312-8.756 0-15.88-6.869-15.88-15.312zm-110.01 0c0-9.214 9.986-29.106 15.88-34.331 5.894 5.225 15.88 25.117 15.88 34.331 0 8.443-7.124 15.312-15.88 15.312s-15.88-6.869-15.88-15.312zm-61.199 93.314c0-7.443 6.043-13.499 13.471-13.499h237.198c7.443 0 13.499 6.056 13.499 13.499v21.89h-56.301c-14.235 0-25.817 11.581-25.817 25.816 0 6.396-5.204 11.6-11.6 11.6s-11.6-5.203-11.6-11.6c0-17.424-14.175-31.6-31.6-31.6s-31.6 14.176-31.6 31.6v29.934c0 6.396-5.204 11.6-11.6 11.6s-11.6-5.203-11.6-11.6v-29.934c0-14.235-11.569-25.816-25.789-25.816h-46.664v-21.89zm-48.727 167.383c0-8.709 7.085-15.795 15.795-15.795h120.102c5.523 0 10-4.478 10-10s-4.477-10-10-10h-87.17v-89.698h46.664c3.138 0 5.789 2.663 5.789 5.816v29.934c0 17.424 14.175 31.6 31.6 31.6s31.6-14.176 31.6-31.6v-29.934c0-6.396 5.204-11.6 11.6-11.6s11.6 5.203 11.6 11.6c0 17.424 14.175 31.6 31.6 31.6s31.6-14.176 31.6-31.6c0-3.152 2.664-5.816 5.817-5.816h56.301v89.698h-87.198c-5.523 0-10 4.478-10 10s4.477 10 10 10h120.13c8.694 0 15.767 7.086 15.767 15.795v32.334l-6.274 6.772c-3.383 3.662-6.424 6.254-14.793 6.254-8.395 0-11.438-2.592-14.831-6.264l-8.961-9.673c-5.831-6.234-13.893-12.607-29.47-12.607-15.618 0-23.658 6.385-29.474 12.643l-8.917 9.625c-3.417 3.675-6.481 6.276-14.843 6.276-8.368 0-11.41-2.592-14.813-6.275l-8.958-9.638c-5.805-6.246-13.845-12.631-29.463-12.631s-23.658 6.385-29.463 12.631l-8.978 9.659c-3.383 3.662-6.424 6.254-14.792 6.254-8.369 0-11.41-2.592-14.813-6.275l-8.958-9.638c-5.805-6.246-13.845-12.631-29.463-12.631s-23.658 6.385-29.463 12.631l-8.977 9.659c-3.384 3.662-6.425 6.254-14.793 6.254-8.369 0-11.41-2.592-14.813-6.275l-6.282-6.759v-32.326zm0 59.845c5.068 3.2 11.704 5.514 21.096 5.514 15.655 0 23.689-6.41 29.463-12.66l8.957-9.638c3.399-3.657 6.452-6.246 14.813-6.246s11.414 2.589 14.813 6.246l8.937 9.616c5.793 6.271 13.827 12.682 29.483 12.682s23.689-6.411 29.462-12.66l8.958-9.638c3.399-3.657 6.452-6.246 14.813-6.246s11.414 2.589 14.813 6.246l8.938 9.616c5.794 6.271 13.828 12.682 29.483 12.682 15.616 0 23.671-6.399 29.502-12.672l8.918-9.626c3.399-3.657 6.452-6.246 14.813-6.246 8.354 0 11.43 2.599 14.831 6.234l8.92 9.628c5.794 6.271 13.831 12.682 29.511 12.682 9.376 0 16.005-2.306 21.067-5.495v69.428h-44.521c2.109-4.479 3.294-9.476 3.294-14.746 0-19.159-15.587-34.746-34.746-34.746s-34.746 15.587-34.746 34.746c0 5.27 1.185 10.267 3.294 14.746h-41.926c2.113-4.487 3.301-9.494 3.301-14.774 0-19.159-15.587-34.746-34.746-34.746s-34.746 15.587-34.746 34.746c0 5.281 1.188 10.287 3.301 14.774h-41.905c2.113-4.487 3.301-9.494 3.301-14.774 0-19.159-15.587-34.746-34.746-34.746s-34.746 15.587-34.746 34.746c0 5.281 1.188 10.287 3.301 14.774h-44.555zm300.366 54.701c0 8.131-6.615 14.746-14.746 14.746s-14.746-6.615-14.746-14.746 6.615-14.746 14.746-14.746 14.746 6.615 14.746 14.746zm-104.823-.029c0 8.146-6.615 14.774-14.746 14.774s-14.746-6.628-14.746-14.774c0-8.131 6.615-14.746 14.746-14.746s14.746 6.616 14.746 14.746zm-104.795 0c0 8.146-6.615 14.774-14.746 14.774s-14.746-6.628-14.746-14.774c0-8.131 6.615-14.746 14.746-14.746s14.746 6.616 14.746 14.746zm277.063 61.687h-374.026l-14.374-26.912h402.792z"/><path d="m255.986 300.001h.057c5.523 0 9.972-4.478 9.972-10s-4.505-10-10.028-10-10 4.478-10 10 4.476 10 9.999 10z"/></g></g></svg>