<svg id="Capa_1" enable-background="new 0 0 512 512" height="512" viewBox="0 0 512 512" width="512" xmlns="http://www.w3.org/2000/svg"><g><path d="m151 7.5h-30l-11.75 90 26.75 30 26.75-30z" fill="#ffba48"/><path d="m181 97.5-30 90h60v-60c0-16.569-13.431-30-30-30z" fill="#ff5a35"/><path d="m151 97.5-30 90h60v-90z" fill="#ff7a3c"/><path d="m121 97.5-30 90h60v-90z" fill="#ff9a42"/><path d="m91 97.5-30 90h60v-90z" fill="#ff7a3c"/><path d="m61 127.5v60h30v-90c-16.569 0-30 13.431-30 30z" fill="#ff9a42"/><path d="m211 157.5h-30v347h30c16.569 0 30-13.431 30-30v-287c0-16.569-13.431-30-30-30z" fill="#ff9a42"/><path d="m211 474.5v-287c0-16.569-13.431-30-30-30h-120c-16.569 0-30 13.431-30 30v287c0 16.569 13.431 30 30 30h120c16.569 0 30-13.431 30-30z" fill="#ffba48"/><path d="m391 7.5h-30l-11.75 90 26.75 30 26.75-30z" fill="#ff3a2f"/><path d="m421 97.5-30 90h60v-60c0-16.569-13.431-30-30-30z" fill="#ff3a2f"/><path d="m391 97.5-30 90h60v-90z" fill="#ff5a35"/><path d="m361 97.5-30 90h60v-90z" fill="#ff7a3c"/><path d="m331 97.5-30 90h60v-90z" fill="#ff5a35"/><path d="m301 127.5v60h30v-90c-16.569 0-30 13.431-30 30z" fill="#ff7a3c"/><path d="m451 157.5h-30v347h30c16.569 0 30-13.431 30-30v-287c0-16.569-13.431-30-30-30z" fill="#db2116"/><path d="m451 474.5v-287c0-16.569-13.431-30-30-30h-120c-16.569 0-30 13.431-30 30v287c0 16.569 13.431 30 30 30h120c16.569 0 30-13.431 30-30z" fill="#ff3a2f"/><path d="m218.5 150.753v-23.253c0-20.678-16.822-37.5-37.5-37.5h-11.665l-10.898-83.471c-.488-3.735-3.67-6.529-7.437-6.529h-30c-3.767 0-6.949 2.794-7.437 6.529l-10.898 83.471h-11.665c-20.678 0-37.5 16.822-37.5 37.5v23.253c-17.095 3.485-30 18.637-30 36.747v287c0 20.678 16.822 37.5 37.5 37.5h150c20.678 0 37.5-16.822 37.5-37.5v-287c0-18.109-12.905-33.262-30-36.747zm-90.916-135.753h16.831l9.792 75h-36.414zm105.916 459.5c0 12.407-10.093 22.5-22.5 22.5h-150c-12.407 0-22.5-10.093-22.5-22.5v-287c0-12.407 10.093-22.5 22.5-22.5 4.142 0 7.5-3.358 7.5-7.5v-30c0-12.407 10.093-22.5 22.5-22.5h90c12.407 0 22.5 10.093 22.5 22.5v22.5h-15v-22.5c0-4.142-3.358-7.5-7.5-7.5s-7.5 3.358-7.5 7.5v22.5h-15v-22.5c0-4.142-3.358-7.5-7.5-7.5s-7.5 3.358-7.5 7.5v22.5h-15v-22.5c0-4.142-3.358-7.5-7.5-7.5s-7.5 3.358-7.5 7.5v22.5h-15v-22.5c0-4.142-3.358-7.5-7.5-7.5s-7.5 3.358-7.5 7.5v30c0 4.142 3.358 7.5 7.5 7.5h120c12.407 0 22.5 10.093 22.5 22.5z"/><path d="m458.5 150.753v-23.253c0-20.678-16.822-37.5-37.5-37.5h-11.666l-10.897-83.471c-.488-3.735-3.67-6.529-7.437-6.529h-30c-3.767 0-6.949 2.794-7.437 6.529l-10.897 83.471h-11.666c-20.678 0-37.5 16.822-37.5 37.5v23.253c-17.096 3.485-30 18.637-30 36.747v287c0 20.678 16.822 37.5 37.5 37.5h150c20.678 0 37.5-16.822 37.5-37.5v-287c0-18.109-12.904-33.262-30-36.747zm-90.915-135.753h16.83l9.792 75h-36.415zm105.915 459.5c0 12.407-10.094 22.5-22.5 22.5h-150c-12.406 0-22.5-10.093-22.5-22.5v-287c0-12.407 10.094-22.5 22.5-22.5 4.143 0 7.5-3.358 7.5-7.5v-30c0-12.407 10.094-22.5 22.5-22.5h90c12.406 0 22.5 10.093 22.5 22.5v22.5h-15v-22.5c0-4.142-3.357-7.5-7.5-7.5s-7.5 3.358-7.5 7.5v22.5h-15v-22.5c0-4.142-3.357-7.5-7.5-7.5s-7.5 3.358-7.5 7.5v22.5h-15v-22.5c0-4.142-3.357-7.5-7.5-7.5s-7.5 3.358-7.5 7.5v22.5h-15v-22.5c0-4.142-3.357-7.5-7.5-7.5s-7.5 3.358-7.5 7.5v30c0 4.142 3.357 7.5 7.5 7.5h120c12.406 0 22.5 10.093 22.5 22.5z"/></g></svg>