<?xml version="1.0" encoding="iso-8859-1"?>
<!-- Generator: Adobe Illustrator 19.0.0, SVG Export Plug-In . SVG Version: 6.00 Build 0)  -->
<svg version="1.1" id="Capa_1" xmlns="http://www.w3.org/2000/svg" xmlns:xlink="http://www.w3.org/1999/xlink" x="0px" y="0px"
	 viewBox="0 0 511.999 511.999" style="enable-background:new 0 0 511.999 511.999;" xml:space="preserve">
<path style="fill:#A78966;" d="M455.135,451.915c0,2.135-0.531,4.24-1.574,6.304c-13.049,26.089-106.118,46.314-219.002,46.314
	c-121.824,0-220.585-23.553-220.585-52.618c0-10.153,12.067-19.644,32.984-27.692c38.897-14.954,108.373-24.916,187.601-24.916
	C356.383,399.307,455.135,422.86,455.135,451.915z"/>
<path style="fill:#B39A7C;" d="M455.135,451.915c0,2.135-0.531,4.24-1.574,6.304c-38.887,14.964-108.363,24.936-187.601,24.936
	c-121.824,0-220.575-23.563-220.575-52.618c0-2.135,0.531-4.24,1.574-6.314c38.897-14.954,108.373-24.916,187.601-24.916
	C356.383,399.307,455.135,422.86,455.135,451.915z"/>
<path style="fill:#C0AB91;" d="M408.55,196.752v25.487c0,42.716-7.868,83.668-22.009,118.897
	c-14.152,35.219-34.578,64.725-59.694,84.55c-21.829,17.229-46.114,26.229-70.759,26.229h-46.745
	c-12.328,0-24.555-2.255-36.432-6.655c-11.887-4.4-23.413-10.955-34.327-19.574C88.351,386.037,56.88,307.671,56.88,222.239v-25.487
	H408.55z"/>
<path style="fill:#D9CCBC;" d="M408.55,196.752v25.487c0,42.716-7.868,83.668-22.009,118.897
	c-14.152,35.219-34.578,64.725-59.694,84.55c-21.829,17.229-46.114,26.229-70.759,26.229h-12.668
	c-12.328,0-24.555-2.255-36.432-6.655c-11.887-4.4-23.413-10.955-34.327-19.574c-50.233-39.649-81.704-118.015-81.704-203.447
	v-25.487H408.55z"/>
<path style="fill:#EBE5DD;" d="M408.55,196.752c0,6.865-4.971,13.39-13.951,19.323c-2.516,1.664-5.342,3.267-8.459,4.831
	c-19.764,9.902-51.295,17.68-89.26,21.869c-14.613,1.614-30.168,2.676-46.364,3.137c-5.853,0.16-11.786,0.251-17.8,0.251
	c-4.46,0-8.88-0.04-13.26-0.14c-17.84-0.371-34.938-1.483-50.894-3.257c-35.349-3.889-65.116-10.905-85.001-19.845
	c-4.861-2.175-9.12-4.47-12.739-6.855c-8.98-5.923-13.941-12.458-13.941-19.313c0-12.849,17.449-24.545,46.053-33.335
	c13.089-4.019,28.524-7.437,45.673-10.073c21.057-3.217,44.74-5.282,69.907-5.843c4.681-0.11,9.421-0.16,14.202-0.16
	c6.304,0,12.518,0.09,18.642,0.281c23.513,0.692,45.643,2.686,65.467,5.723c19.654,3.017,37.043,7.046,51.245,11.857
	C393.356,173.77,408.55,184.765,408.55,196.752z"/>
<path style="fill:#554431;" d="M394.599,216.075c-2.516,1.664-5.342,3.267-8.459,4.831c-19.764,9.902-51.295,17.68-89.26,21.869
	c-13.661,1.513-28.143,2.536-43.207,3.037c-1.052,0.04-2.105,0.07-3.157,0.1c-5.853,0.16-11.786,0.251-17.8,0.251
	c-4.46,0-8.88-0.04-13.26-0.14c-17.84-0.371-34.938-1.483-50.894-3.257c-35.349-3.889-65.116-10.905-85.001-19.845
	c-4.861-2.175-9.12-4.47-12.739-6.855c7.848-5.182,18.762-9.902,32.112-14.011c13.089-4.019,28.524-7.437,45.673-10.063
	c21.057-3.227,44.74-5.282,69.907-5.853c4.681-0.11,9.421-0.16,14.202-0.16c6.304,0,12.518,0.1,18.642,0.281
	c0.802,0.02,1.614,0.05,2.415,0.08c22.611,0.752,43.909,2.706,63.052,5.653c19.654,3.007,37.043,7.046,51.245,11.857
	C378.894,207.516,387.864,211.625,394.599,216.075z"/>
<path style="fill:#6A563D;" d="M394.599,216.075c-2.516,1.664-5.342,3.267-8.459,4.831c-19.764,9.902-51.295,17.68-89.26,21.869
	c-13.661,1.513-28.143,2.536-43.207,3.037c-14.964-0.511-29.346-1.543-42.896-3.047c-35.349-3.889-65.116-10.905-85.001-19.845
	c-0.049-0.022-0.097-0.043-0.145-0.065c-5.861-2.632-5.79-10.979,0.071-13.611c5.702-2.561,12.217-4.965,19.448-7.191
	c13.089-4.019,28.524-7.437,45.673-10.063c19.103-2.927,40.371-4.891,62.951-5.653c22.611,0.752,43.909,2.706,63.052,5.653
	c19.654,3.007,37.043,7.046,51.245,11.857C378.894,207.516,387.864,211.625,394.599,216.075z"/>
<path d="M416.057,223.943c0.017-0.972,0.01,0.75,0.01-27.191c0-47.523-149.228-66.148-256.516-52.518
	c-4.119,0.521-7.036,4.28-6.515,8.399s4.29,7.046,8.399,6.515c63.765-8.077,150.325-5.082,204.219,13.18
	c26.089,8.83,35.379,18.411,35.379,24.425c0,5.282-6.655,11.636-18.261,17.439c-19.083,9.551-49.882,17.048-86.715,21.117
	c-115.37,12.67-231.66-13.112-231.66-38.557c0-6.585,10.704-16.918,40.742-26.149c8.158-2.506,17.299-4.781,27.161-6.755
	c4.069-0.812,6.705-4.771,5.893-8.84c-0.822-4.079-4.781-6.715-8.85-5.893c-27.7,5.524-79.98,19.485-79.98,47.637
	c1.105,8.637-10.068,121.356,55.234,205.021c-30.522,5.222-98.14,19.275-98.14,50.143c0,58.735,253.298,76.14,385.817,44.52
	c46.695-11.135,70.378-26.119,70.378-44.52c0-31.5-70.31-45.528-101.358-50.694c3.097-3.999,6.094-8.188,8.97-12.548
	c66.909-3.463,115.148-32.904,132.718-98.12C519.249,230.14,454.151,191.615,416.057,223.943z M488.47,286.634
	c-5.302,19.674-20.917,77.564-108.664,86.254c0.882-1.584,1.744-3.187,2.596-4.811c1.924-3.678,0.511-8.218-3.167-10.143
	c-3.678-1.934-8.218-0.511-10.153,3.167c-23.196,44.32-62.785,83.297-112.994,83.297h-46.745c-14.623,0-29.135-3.408-43.137-10.143
	c-3.738-1.804-8.229-0.231-10.033,3.508c-1.794,3.748-0.221,8.238,3.518,10.033c21.702,10.451,39.174,11.86,57.65,11.741h38.746
	c36.454,0,69.001-18.365,93.781-44.896c13.961,2.075,27.011,4.55,38.917,7.387c46.444,11.075,58.832,24.004,58.832,29.887
	c0,5.893-12.388,18.822-58.832,29.897c-85.073,20.283-223.341,20.295-308.463,0c-46.434-11.075-58.832-24.004-58.832-29.897
	c0-5.883,12.398-18.812,58.832-29.887c10.995-2.626,22.962-4.931,35.72-6.895c5.362,5.693,10.995,10.925,16.888,15.655
	c1.383,1.112,3.047,1.654,4.701,1.654c7.065,0,10.244-8.933,4.711-13.37c-81.047-65.274-77.465-195.257-77.945-198.305
	c60.866,43.951,276.191,43.422,336.636,0.01c-0.251,2.891,2.101,56.206-19.965,113.715c-1.483,3.879,0.451,8.228,4.32,9.712
	c3.894,1.488,8.233-0.454,9.712-4.32c10.283-26.79,16.928-56.347,19.614-86.815c4.731-18.341,23.453-29.506,41.854-24.896
	C479.193,233.824,496.63,256.412,488.47,286.634z"/>
<path d="M185.585,127.786C185.586,127.786,185.586,127.786,185.585,127.786c4.151,0,7.517-3.365,7.517-7.517
	c0-10.281,9.849-11.909,9.849-28.209c0-9.417-3.628-14.614-6.278-18.408c-2.227-3.19-3.571-5.115-3.571-9.804
	c0-10.293,9.849-11.91,9.849-28.212c0-4.152-3.366-7.517-7.517-7.517s-7.517,3.365-7.517,7.517c0,10.293-9.848,11.91-9.849,28.212
	c0,9.417,3.629,14.615,6.278,18.41c2.227,3.189,3.571,5.114,3.571,9.802c0,10.292-9.848,11.909-9.849,28.209
	C178.069,124.42,181.434,127.786,185.585,127.786z"/>
<path d="M269.998,127.786c4.152,0,7.517-3.365,7.517-7.517c0-10.292,9.848-11.909,9.848-28.209c0-9.417-3.628-14.614-6.278-18.408
	c-2.227-3.19-3.571-5.115-3.571-9.804c0-10.293,9.848-11.91,9.848-28.212c0-4.152-3.365-7.517-7.517-7.517
	c-4.152,0-7.517,3.365-7.517,7.517c0,10.293-9.848,11.91-9.848,28.212c0,9.417,3.628,14.615,6.278,18.409
	c2.227,3.19,3.571,5.115,3.571,9.803c0,10.292-9.848,11.909-9.848,28.209C262.481,124.421,265.847,127.786,269.998,127.786z"/>
<path d="M227.792,126.753c4.151,0,7.517-3.365,7.517-7.517c0-15.636,9.849-16.821,9.849-37.237c0-20.157-9.849-21.873-9.849-37.242
	c0-15.639,9.849-16.821,9.849-37.241c0-4.152-3.366-7.517-7.517-7.517s-7.517,3.365-7.517,7.517c0,15.637-9.849,16.823-9.849,37.241
	c0,20.157,9.849,21.873,9.849,37.242c0,15.493-9.849,16.904-9.849,37.237C220.275,123.387,223.641,126.753,227.792,126.753z"/>
<g>
</g>
<g>
</g>
<g>
</g>
<g>
</g>
<g>
</g>
<g>
</g>
<g>
</g>
<g>
</g>
<g>
</g>
<g>
</g>
<g>
</g>
<g>
</g>
<g>
</g>
<g>
</g>
<g>
</g>
</svg>
