<?xml version="1.0" encoding="iso-8859-1"?>
<!-- Generator: Adobe Illustrator 19.0.0, SVG Export Plug-In . SVG Version: 6.00 Build 0)  -->
<svg version="1.1" id="Capa_1" xmlns="http://www.w3.org/2000/svg" xmlns:xlink="http://www.w3.org/1999/xlink" x="0px" y="0px"
	 viewBox="0 0 512 512" style="enable-background:new 0 0 512 512;" xml:space="preserve">
<polygon style="fill:#4DBAF6;" points="436.424,63.997 502,167.997 502,502 370.849,502 370.849,167.997 "/>
<polygon style="fill:#C9F3FF;" points="436.424,63.997 188.424,63.997 122.849,167.997 370.849,167.997 "/>
<g>
	<path style="fill:#72D8FF;" d="M436.424,63.997h-248V36.728c0-14.762,11.967-26.728,26.728-26.728h194.544
		c14.762,0,26.728,11.967,26.728,26.728V63.997z"/>
	<polygon style="fill:#72D8FF;" points="122.849,256 122.849,167.997 370.849,167.997 370.849,502 122.849,502 122.849,502 	"/>
</g>
<rect x="174" y="275" style="fill:#FFFFFF;" width="196.85" height="120"/>
<path style="fill:#C9F3FF;" d="M174,256H10v193.556C10,478.52,33.48,502,62.444,502h59.111C150.52,502,174,478.52,174,449.556V256z"
	/>
<path style="fill:#FFFFFF;" d="M10,343.95v105.606C10,478.52,33.48,502,62.444,502h59.111C150.52,502,174,478.52,174,449.556V343.95
	H10z"/>
<path d="M133.399,351.02c1.87-1.859,2.931-4.439,2.931-7.069c0-2.631-1.061-5.21-2.931-7.07c-1.859-1.86-4.43-2.93-7.069-2.93
	c-2.63,0-5.21,1.069-7.07,2.93s-2.93,4.43-2.93,7.07c0,2.63,1.069,5.21,2.93,7.069c1.86,1.86,4.44,2.931,7.07,2.931
	C128.97,353.95,131.54,352.88,133.399,351.02z"/>
<path d="M510.459,162.663L446.424,61.107V36.729C446.424,16.477,429.948,0,409.696,0H215.152c-20.252,0-36.729,16.477-36.729,36.729
	v24.379L114.39,162.663c-1.025,1.626-1.526,3.479-1.526,5.335c-0.005-0.001-0.01,0-0.015-0.001V246H10c-5.522,0-10,4.478-10,10
	v193.556C0,483.987,28.013,512,62.444,512H502c5.522,0,10-4.478,10-10V167.997C512,166.109,511.466,164.26,510.459,162.663z
	 M198.424,36.729c0-9.225,7.504-16.729,16.729-16.729h194.544c9.224,0,16.728,7.504,16.728,16.729v17.269h-228V36.729H198.424z
	 M193.94,73.997h224.356L405.684,94H299.813c-5.522,0-10,4.478-10,10s4.478,10,10,10h93.261l-27.742,43.997H140.976L193.94,73.997z
	 M360.849,384.999H184V336.31c1.359,0.67,2.869,1.033,4.424,1.033c2.081,0,4.083-0.647,5.747-1.816V363c0,5.522,4.478,10,10,10
	s10-4.478,10-10v-56c0-4.276-2.719-8.079-6.766-9.463c-4.049-1.383-8.525-0.039-11.143,3.342l-7.854,10.148
	c-1.224-1.369-2.757-2.319-4.408-2.845V285h176.849L360.849,384.999L360.849,384.999z M184,449.556v-44.557h176.849V492H167.301
	C177.653,480.851,184,465.934,184,449.556z M132.849,177.997h228v87.002H184V256c0-5.522-4.478-10-10-10h-41.151V177.997z
	 M20,449.556V353.95h61c5.522,0,10-4.478,10-10s-4.478-10-10-10H20V266h144v183.556C164,472.96,144.96,492,121.556,492H62.444
	C39.04,492,20,472.96,20,449.556z M492,492h-22v-82.475c0-5.522-4.478-10-10-10s-10,4.478-10,10V492h-69.151v-97.001v-120V170.887
	l55.575-88.141L492,170.887V492z"/>
<path d="M318.758,372.999c5.522,0,10-4.478,10-10v-0.794l5.872,7.144c1.978,2.405,4.843,3.65,7.731,3.65
	c2.234,0,4.483-0.745,6.344-2.274c4.267-3.508,4.883-9.81,1.376-14.075L332.284,335l17.797-21.65
	c3.507-4.266,2.891-10.567-1.376-14.075c-4.267-3.505-10.567-2.892-14.075,1.376l-5.872,7.144v-0.794c0-5.522-4.478-10-10-10
	s-10,4.478-10,10v56C308.758,368.521,313.235,372.999,318.758,372.999z"/>
<path d="M239,372.999c5.522,0,10-4.478,10-10v-56c0-5.522-4.478-10-10-10s-10,4.478-10,10v56
	C229,368.521,233.478,372.999,239,372.999z"/>
<path d="M271.455,372.999h16.363c5.522,0,10-4.478,10-10s-4.478-10-10-10h-6.363v-46c0-5.522-4.478-10-10-10s-10,4.478-10,10v56
	C261.455,368.521,265.933,372.999,271.455,372.999z"/>
<path d="M460,383.18c2.63,0,5.21-1.07,7.069-2.939c1.86-1.86,2.931-4.431,2.931-7.07c0-2.63-1.07-5.21-2.931-7.07
	c-1.859-1.859-4.439-2.92-7.069-2.92s-5.21,1.061-7.07,2.92c-1.86,1.87-2.93,4.44-2.93,7.07c0,2.64,1.069,5.21,2.93,7.07
	C454.79,382.109,457.37,383.18,460,383.18z"/>
<g>
</g>
<g>
</g>
<g>
</g>
<g>
</g>
<g>
</g>
<g>
</g>
<g>
</g>
<g>
</g>
<g>
</g>
<g>
</g>
<g>
</g>
<g>
</g>
<g>
</g>
<g>
</g>
<g>
</g>
</svg>
