<svg height="512" viewBox="0 0 128 128" width="512" xmlns="http://www.w3.org/2000/svg"><g><path d="m36.803 110.886h54.393v10.808h-54.393z" fill="#ef3829"/><g fill="#f2e7cb"><path d="m29.7 13.49h-8.232a3.5 3.5 0 0 0 0 7.005h8.232z"/><path d="m66.107 13.49h55.586v7.005h-55.586z"/><path d="m29.7 29.49h-8.232a3.5 3.5 0 0 0 0 7h8.232z"/><path d="m66.107 29.49h55.586v7.005h-55.586z"/></g><path d="m29.7 60v-47.963a5.73 5.73 0 0 1 5.73-5.731h24.947a5.73 5.73 0 0 1 5.73 5.731v47.963z" fill="#ffde3e"/><path d="m6.306 60a57.678 57.678 0 0 0 30.5 50.886h54.394a57.678 57.678 0 0 0 30.494-50.886z" fill="#ef3829"/><g fill="#422002"><path d="m96.231 15.24h4.5a1.75 1.75 0 0 0 0-3.5h-4.5a1.75 1.75 0 0 0 0 3.5z"/><path d="m121.693 22.245a1.75 1.75 0 0 0 1.75-1.75v-7.005a1.749 1.749 0 0 0 -1.75-1.75h-12.725a1.75 1.75 0 0 0 0 3.5h10.975v3.505h-52.086v-3.505h19.718a1.75 1.75 0 0 0 0-3.5h-19.733a7.482 7.482 0 0 0 -7.465-7.183h-24.944a7.482 7.482 0 0 0 -7.465 7.183h-6.5a5.253 5.253 0 0 0 0 10.505h6.485v5.495h-6.485a5.253 5.253 0 0 0 0 10.505h6.485v20.005h-21.646a1.75 1.75 0 0 0 -1.75 1.75 59.554 59.554 0 0 0 13.288 37.456 1.75 1.75 0 0 0 2.716-2.208 56.051 56.051 0 0 1 -12.477-33.498h111.832a55.9 55.9 0 0 1 -29.163 47.386h-53.506a56.137 56.137 0 0 1 -11.176-8.021 1.75 1.75 0 1 0 -2.373 2.572 59.594 59.594 0 0 0 11.356 8.213v9.8a1.749 1.749 0 0 0 1.75 1.75h54.396a1.749 1.749 0 0 0 1.75-1.75v-9.78a59.382 59.382 0 0 0 30.493-51.92 1.75 1.75 0 0 0 -1.75-1.75h-53.836v-20.005h53.836a1.75 1.75 0 0 0 1.75-1.75v-7a1.749 1.749 0 0 0 -1.75-1.75h-53.836v-5.5zm-83.139 97.7v-7.307h50.892v7.307zm10.872-111.888h5.725v50.193h-5.725zm-3.5 50.193h-5.726v-50.193h5.724zm-24.458-39.5a1.753 1.753 0 0 1 0-3.505h6.485v3.505zm0 16a1.753 1.753 0 0 1 0-3.5h6.485v3.5zm9.985-22.708a3.984 3.984 0 0 1 3.98-3.98h1.267v50.188h-5.247zm27.2 46.213v-50.198h1.726a3.984 3.984 0 0 1 3.98 3.98v46.213zm61.292-27.01v3.5h-52.088v-3.5z"/><path d="m105.6 80.179a1.749 1.749 0 0 0 -2.368.719 44.522 44.522 0 0 1 -17.39 17.812 1.75 1.75 0 1 0 1.722 3.047 48.013 48.013 0 0 0 18.752-19.21 1.75 1.75 0 0 0 -.716-2.368z"/><path d="m107.472 75.745a1.75 1.75 0 0 0 2.2-1.135 47.626 47.626 0 0 0 1.344-5.2 1.75 1.75 0 1 0 -3.433-.683 44.058 44.058 0 0 1 -1.245 4.821 1.751 1.751 0 0 0 1.134 2.197z"/></g></g></svg>