<svg id="Layer_1" enable-background="new 0 0 512 512" height="512" viewBox="0 0 512 512" width="512" xmlns="http://www.w3.org/2000/svg"><g><path d="m349.5 178c-34.794 0-63 28.206-63 63s28.206 63 63 63 63-28.206 63-63-28.206-63-63-63zm0 96c-18.196 0-33-14.804-33-33s14.804-33 33-33 33 14.804 33 33-14.804 33-33 33z" fill="#8bf0ff"/><path d="m401.5 387.09c0 27.659-12.3 53.084-32.888 73.149-4.201 4.094-6.651 9.654-6.651 15.52v16.741c0 6.627-5.373 12-12 12h-198.921c-6.627 0-12-5.373-12-12v-16.742c0-5.865-2.451-11.426-6.651-15.52-20.589-20.064-32.889-45.489-32.889-73.148 0-40.252 26.039-75.769 65.737-96.923 21.86-11.648 35.277-34.65 35.277-59.419v-132.398h99.974v132.398c0 24.769 13.417 47.771 35.277 59.419 39.696 21.154 65.735 56.671 65.735 96.923z" fill="#bbf7ff"/><path d="m335.763 290.167c-21.859-11.648-35.277-34.65-35.277-59.419v-132.398h-30v145.526c0 24.769 13.417 47.771 35.277 59.419 39.698 21.154 65.737 56.671 65.737 96.923 0 27.659-12.3 53.084-32.888 73.149-4.201 4.094-6.651 9.654-6.651 15.52v15.613h18c6.627 0 12-5.373 12-12v-16.742c0-5.865 2.451-11.426 6.651-15.52 20.589-20.065 32.888-45.49 32.888-73.149 0-40.251-26.039-75.768-65.737-96.922z" fill="#8bf0ff"/><path d="m363.136 308.89h-225.272c-23.857 20.763-38.364 48.161-38.364 78.2 0 27.659 12.3 53.084 32.888 73.149 4.201 4.094 6.651 9.654 6.651 15.52v16.741c0 6.627 5.373 12 12 12h198.921c6.627 0 12-5.373 12-12v-16.742c0-5.865 2.451-11.426 6.651-15.52 20.589-20.065 32.888-45.49 32.888-73.149.001-30.038-14.506-57.436-38.363-78.199z" fill="#ffc808"/><path d="m363.136 308.89h-30c23.857 20.763 38.364 48.161 38.364 78.2 0 27.659-12.3 53.084-32.888 73.149-4.201 4.094-6.651 9.654-6.651 15.52v16.741c0 6.627-5.373 12-12 12h30c6.627 0 12-5.373 12-12v-16.742c0-5.865 2.451-11.426 6.651-15.52 20.589-20.065 32.888-45.49 32.888-73.149 0-30.038-14.507-57.436-38.364-78.199z" fill="#ffae08"/><path d="m300.5 98.346h-100c-8.284 0-15-6.716-15-15 0-8.284 6.716-15 15-15h100c8.284 0 15 6.716 15 15 0 8.284-6.716 15-15 15z" fill="#8bf0ff"/><path d="m300.5 68.346h-30c8.284 0 15 6.716 15 15s-6.716 15-15 15h30c8.284 0 15-6.716 15-15s-6.716-15-15-15z" fill="#63e7ff"/><path d="m214.5 7.5h72v60.846h-72z" fill="#d67b42"/><path d="m256.5 7.5h30v60.846h-30z" fill="#be652b"/><path d="m349.5 170.5c-15.092 0-29.566 4.826-41.513 13.541v-79.481c8.736-3.092 15.013-11.432 15.013-21.214 0-12.407-10.093-22.5-22.5-22.5h-6.5v-53.346c0-4.142-3.358-7.5-7.5-7.5h-72c-4.142 0-7.5 3.358-7.5 7.5v53.346h-6.5c-12.407 0-22.5 10.093-22.5 22.5 0 9.782 6.277 18.122 15.013 21.214v21.822c0 4.142 3.358 7.5 7.5 7.5s7.5-3.358 7.5-7.5v-20.532h84.974v124.898c0 27.833 15.04 53.138 39.25 66.038 2.74 1.46 5.403 3.002 8.002 4.604h-179.485c2.592-1.596 5.257-3.137 8.01-4.604 24.21-12.9 39.25-38.205 39.25-66.038v-70.134c0-4.142-3.358-7.5-7.5-7.5s-7.5 3.358-7.5 7.5v70.134c0 22.279-11.995 42.511-31.303 52.8-43.651 23.26-69.711 61.967-69.711 103.542 0 16.763 4.129 33.027 12.271 48.34 1.348 2.536 3.944 3.98 6.628 3.98 1.188 0 2.393-.283 3.515-.879 3.657-1.945 5.046-6.486 3.101-10.143-6.977-13.122-10.515-27.017-10.515-41.298 0-26.125 12.212-51.093 33.733-70.7h219.533c6.564 5.969 12.313 12.458 17.087 19.348 10.891 15.716 16.647 33.473 16.647 51.352 0 24.816-10.589 48.253-30.623 67.777-5.667 5.522-8.917 13.137-8.917 20.891v16.742c0 2.481-2.019 4.5-4.5 4.5h-198.92c-2.481 0-4.5-2.019-4.5-4.5v-16.742c0-7.754-3.25-15.369-8.917-20.892-.826-.805-1.638-1.619-2.436-2.442-2.881-2.975-7.629-3.051-10.605-.168-2.975 2.882-3.051 7.63-.168 10.605.897.926 1.811 1.843 2.74 2.748 2.828 2.756 4.386 6.361 4.386 10.149v16.742c0 10.752 8.748 19.5 19.5 19.5h198.92c10.752 0 19.5-8.748 19.5-19.5v-16.742c0-3.788 1.558-7.393 4.386-10.149 22.67-22.092 35.154-49.978 35.154-78.519 0-29.44-13.081-57.435-36.209-79.533 8.64-3.022 16.646-7.72 23.575-13.89 3.094-2.754 3.369-7.495.614-10.588-2.754-3.095-7.496-3.368-10.588-.614-7.832 6.974-17.404 11.56-27.69 13.274-6.006-4.418-12.485-8.5-19.411-12.191-4.746-2.529-9.047-5.661-12.839-9.274 6.548 4.55 14.49 7.226 23.049 7.226 22.332 0 40.5-18.168 40.5-40.5s-18.168-40.5-40.5-40.5-40.501 18.168-40.501 40.5c0 .322.017.639.024.959-.678-3.651-1.037-7.4-1.037-11.211v-26.555c10.547-11.886 25.597-18.693 41.513-18.693 30.603 0 55.5 24.897 55.5 55.5 0 6.215-1.018 12.313-3.025 18.125-1.352 3.915.726 8.185 4.641 9.538.811.28 1.636.413 2.449.413 3.109 0 6.017-1.949 7.089-5.054 2.552-7.392 3.846-15.137 3.846-23.022 0-38.874-31.626-70.5-70.5-70.5zm0 45c14.061 0 25.5 11.439 25.5 25.5s-11.439 25.5-25.5 25.5-25.5-11.439-25.5-25.5 11.439-25.5 25.5-25.5zm-127.5-200.5h57v45.846h-57zm-21.5 60.846h100c4.136 0 7.5 3.364 7.5 7.5s-3.364 7.5-7.5 7.5h-100c-4.136 0-7.5-3.364-7.5-7.5s3.364-7.5 7.5-7.5z"/></g></svg>