<svg height="511pt" viewBox="0 -3 511.9992 511" width="511pt" xmlns="http://www.w3.org/2000/svg"><path d="m504.3125 207.722656c-9.242188 155.796875-135.214844 281.773438-291.011719 291.011719-33.054687 1.960937-59.566406-26.96875-54.898437-59.75.046875-.351563.097656-.699219.148437-1.046875 3.507813-24.648438 23.859375-43.414062 48.707031-44.953125 102.300782-6.328125 184.972657-89 191.304688-191.300781 1.535156-24.847656 20.300781-45.203125 44.949219-48.710938.347656-.046875.699219-.097656 1.046875-.148437 32.78125-4.664063 61.714844 21.847656 59.753906 54.898437zm0 0" fill="#f25f50"/><path d="m479.363281 311.996094c-45.476562 104.53125-147.074219 179.679687-266.0625 186.738281-33.054687 1.960937-59.558593-26.980469-54.898437-59.75.046875-.351563.097656-.703125.148437-1.054687 2.050781-14.390626 9.839844-26.78125 20.925781-34.898438-1.492187 30.703125 23.984376 56.695312 55.371094 54.824219 102.816406-6.097657 192.660156-63.042969 244.515625-145.859375zm0 0" fill="#d8352e"/><g fill="#f25f50"><path d="m158.402344 438.984375-36.164063-28.53125v57.0625zm0 0"/><path d="m444.558594 152.824219-28.53125-36.164063h57.0625zm0 0"/><path d="m389.667969 99.15625c-9.238281 155.796875-135.210938 281.773438-291.011719 291.011719-33.050781 1.960937-59.5625-26.96875-54.898438-59.75.050782-.351563.097657-.699219.148438-1.050781 3.507812-24.644532 23.863281-43.410157 48.710938-44.949219 102.296874-6.328125 184.972656-89 191.300781-191.300781 1.539062-24.847657 20.304687-45.203126 44.949219-48.710938.351562-.046875.699218-.097656 1.050781-.148438 32.777343-4.664062 61.710937 21.847657 59.75 54.898438zm0 0"/></g><path d="m364.71875 203.429688c-45.472656 104.53125-147.070312 179.679687-266.0625 186.738281-33.050781 1.960937-59.558594-26.980469-54.898438-59.75.050782-.351563.101563-.703125.152344-1.054688 2.046875-14.394531 9.839844-26.78125 20.921875-34.898437-1.488281 30.703125 23.988281 56.695312 55.371094 54.824218 102.820313-6.097656 192.660156-63.042968 244.515625-145.859374zm0 0" fill="#d8352e"/><path d="m43.757812 330.417969-36.164062-28.535157v57.066407zm0 0" fill="#f25f50"/><path d="m329.917969 44.257812-28.53125-36.164062h57.0625zm0 0" fill="#f25f50"/><path d="m254.101562 451.894531c-6.359374-2.546875-12.800781 4.222657-9.683593 10.429688 1.359375 2.707031 4.308593 4.390625 7.335937 4.15625 3.367188-.257813 6.222656-2.765625 6.882813-6.082031.703125-3.523438-1.234375-7.113282-4.535157-8.503907zm0 0"/><path d="m226.628906 476.652344c2.441406 6.109375 11.359375 6.078125 13.957032.136718 1.257812-2.871093.585937-6.34375-1.683594-8.523437-2.394532-2.296875-6.117188-2.761719-9.007813-1.128906-3.300781 1.867187-4.714843 6.011719-3.265625 9.515625zm0 0"/><path d="m228.257812 457.058594c4.800782-4.800782 1.046876-13.308594-5.742187-12.964844-3.035156.15625-5.753906 2.171875-6.777344 5.03125-1.132812 3.167969.019531 6.839844 2.777344 8.765625 3.011719 2.109375 7.121094 1.714844 9.742187-.832031zm0 0"/><path d="m397.25 99.605469c1.066406-17.996094-5.9375-35.335938-19.21875-47.570313-9.148438-8.425781-20.472656-13.695312-32.472656-15.34375l18.851562-23.894531c1.804688-2.285156 2.140625-5.398437.871094-8.015625s-3.921875-4.28125-6.832031-4.28125h-57.0625c-2.910157 0-5.566407 1.664062-6.835938 4.28125s-.929687 5.730469.871094 8.015625l21.167969 26.828125c-22.445313 7.832031-38.742188 28.613281-40.253906 53.023438-1.007813 16.300781-4.066407 32.425781-9.085938 47.929687-1.292969 3.988281.894531 8.269531 4.886719 9.5625 3.992187 1.292969 8.273437-.894531 9.566406-4.882813 5.410156-16.71875 8.707031-34.101562 9.792969-51.671874 1.308594-21.15625 17.476562-38.675782 38.433594-41.660157l1.058593-.148437c13.398438-1.910156 26.792969 2.257812 36.753907 11.429687 9.914062 9.132813 15.140624 22.070313 14.34375 35.5-4.355469 73.492188-35.730469 142.9375-88.335938 195.542969s-122.050781 83.980469-195.542969 88.335938c-13.425781.792968-26.367187-4.433594-35.496093-14.34375-9.175782-9.960938-13.339844-23.355469-11.433594-36.761719l.148437-1.042969c2.984375-20.964844 20.503907-37.128906 41.660157-38.441406 75.019531-4.640625 142.683593-49.609375 176.585937-117.363282 1.878906-3.75.359375-8.3125-3.394531-10.191406-3.75-1.875-8.3125-.355468-10.1875 3.394532-31.488282 62.925781-94.308594 104.695312-163.941406 109-24.40625 1.511718-45.1875 17.804687-53.019532 40.253906l-26.832031-21.167969c-2.28125-1.800781-5.398437-2.140625-8.015625-.871094s-4.28125 3.921875-4.28125 6.832031v57.066407c0 2.910156 1.664062 5.5625 4.28125 6.832031 1.054688.511719 2.183594.761719 3.3125.761719 1.675781 0 3.339844-.554688 4.703125-1.632813l23.894531-18.851562c1.648438 12.003906 6.917969 23.324218 15.34375 32.472656 11.421875 12.398438 27.285156 19.324219 43.984375 19.324219 1.191407 0 2.386719-.035157 3.585938-.105469 77.210937-4.578125 150.148437-37.519531 205.386719-92.757812 55.238281-55.238282 88.179687-128.179688 92.757812-205.386719zm-54.46875-83.917969-12.863281 16.308594-12.867188-16.308594zm-327.59375 327.59375v-25.730469l16.308594 12.867188zm0 0"/><path d="m330.664062 79.828125c-2.476562-6.175781-11.507812-6.0625-14.023437 0-2.695313 6.492187 4.5 12.890625 10.625 9.582031 3.363281-1.816406 4.890625-6.046875 3.398437-9.582031zm0 0"/><path d="m330.167969 99.503906c-.527344 2.878906.589843 5.902344 2.984375 7.628906 2.734375 1.96875 6.511718 1.894532 9.164062-.179687 5.261719-4.117187 2.691406-12.878906-3.957031-13.523437-3.859375-.375-7.402344 2.296874-8.191406 6.074218zm0 0"/><path d="m313.582031 103.210938c-6.585937 1.363281-8.289062 10.386718-2.484375 13.917968 2.792969 1.699219 6.441406 1.40625 8.925782-.722656 2.300781-1.976562 3.195312-5.257812 2.246093-8.132812-1.1875-3.597657-4.972656-5.792969-8.6875-5.0625zm0 0"/><path d="m492.675781 160.605469c-9.152343-8.429688-20.472656-13.699219-32.472656-15.347657l18.851563-23.890624c1.800781-2.285157 2.140624-5.398438.871093-8.019532-1.269531-2.617187-3.925781-4.28125-6.835937-4.28125h-57.0625c-2.910156 0-5.5625 1.664063-6.835938 4.28125-1.269531 2.621094-.929687 5.734375.871094 8.019532l21.167969 26.828124c-22.445313 7.832032-38.742188 28.613282-40.25 53.019532-2.945313 47.625-23.351563 92.636718-57.453125 126.738281-34.101563 34.101563-79.113282 54.507813-126.738282 57.453125-24.410156 1.507812-45.191406 17.808594-53.019531 40.25l-26.828125-21.167969c-2.289062-1.800781-5.402344-2.140625-8.019531-.871093-2.617187 1.269531-4.28125 3.925781-4.28125 6.835937v57.0625c0 2.910156 1.664063 5.5625 4.28125 6.832031 1.054687.511719 2.1875.761719 3.3125.761719 1.675781 0 3.339844-.554687 4.707031-1.632813l23.890625-18.847656c1.648438 12 6.917969 23.320313 15.347657 32.46875 11.417968 12.398438 27.285156 19.328125 43.984374 19.328125 1.191407 0 2.386719-.035156 3.585938-.105469 30.046875-1.785156 59.621094-7.851562 87.902344-18.039062 3.945312-1.417969 5.992187-5.769531 4.570312-9.71875-1.421875-3.945312-5.769531-5.992188-9.71875-4.570312-26.910156 9.691406-55.058594 15.46875-83.652344 17.164062-13.4375.796875-26.367187-4.433594-35.5-14.347656-9.171874-9.957032-13.339843-23.355469-11.433593-36.75l.148437-1.050782c2.984375-20.964843 20.507813-37.132812 41.660156-38.441406 51.328126-3.175781 99.816407-25.148437 136.539063-61.871094 36.726563-36.722656 58.699219-85.214843 61.875-136.539062 1.308594-21.15625 17.472656-38.675781 38.433594-41.660156l1.054687-.148438c13.402344-1.910156 26.796875 2.257813 36.753906 11.429688 9.914063 9.132812 15.144532 22.070312 14.347657 35.5-3.238281 54.597656-21.457031 107.414062-52.6875 152.738281-30.546875 44.332031-72.296875 79.890625-120.742188 102.835937-3.789062 1.796876-5.40625 6.324219-3.613281 10.113282 1.796875 3.792968 6.324219 5.410156 10.113281 3.613281 50.859375-24.085937 94.691407-61.414063 126.75-107.945313 32.804688-47.605468 51.941407-103.089843 55.34375-160.457031 1.066407-18-5.9375-35.339843-19.21875-47.570312zm-362.84375 291.242187v-25.730468l16.308594 12.867187zm327.59375-327.59375-12.867187 16.308594-12.867188-16.308594zm0 0"/></svg>