<svg height="512" viewBox="0 0 512 512" width="512" xmlns="http://www.w3.org/2000/svg"><g id="Filled_outline" data-name="Filled outline"><path d="m482.76 343.72a102.047 102.047 0 0 0 0 64.56 102.1 102.1 0 0 1 5.24 32.29v19.15a28.284 28.284 0 0 1 -48.28 20l-7.72-7.72-4.69 4.69a38.627 38.627 0 0 1 -54.62 0l-4.69-4.69-7.72 7.72a28.284 28.284 0 0 1 -48.28-20v-19.15a102.175 102.175 0 0 1 5.24-32.29 102.047 102.047 0 0 0 0-64.56 101.775 101.775 0 0 1 -5.23-31.72c-.01-.19-.01-.38-.01-.57v-111.43a77.257 77.257 0 0 1 22.63-54.63l10.74-10.74a77.376 77.376 0 0 0 22.21-46.63 75.989 75.989 0 0 0 .42-8v-16h64v16a75.989 75.989 0 0 0 .42 8 77.376 77.376 0 0 0 22.21 46.63l10.74 10.74a77.267 77.267 0 0 1 22.63 54.63v111.43c0 .19 0 .38-.01.57a100.42 100.42 0 0 1 -1.31 15.79 101.777 101.777 0 0 1 -3.92 15.93z" fill="#ebebe9"/><path d="m482.76 343.72a102.047 102.047 0 0 0 0 64.56 102.1 102.1 0 0 1 5.24 32.29v19.15a28.284 28.284 0 0 1 -48.28 20l-7.72-7.72-4.69 4.69a38.627 38.627 0 0 1 -54.62 0l-4.69-4.69-7.72 7.72a28.284 28.284 0 0 1 -48.28-20v-19.15a102.175 102.175 0 0 1 5.24-32.29 102.185 102.185 0 0 0 0-64.56 101.775 101.775 0 0 1 -5.23-31.72h-.01v-112a77.257 77.257 0 0 1 22.63-54.63l10.74-10.74a76.975 76.975 0 0 0 15.68-22.63h77.9a76.975 76.975 0 0 0 15.68 22.63l10.74 10.74a77.191 77.191 0 0 1 22.1 45.66 76.452 76.452 0 0 1 .53 8.97v112h-.01a100.42 100.42 0 0 1 -1.31 15.79 101.777 101.777 0 0 1 -3.92 15.93z" fill="#7eb457"/><path d="m482.76 343.72a102.047 102.047 0 0 0 0 64.56 102.1 102.1 0 0 1 5.24 32.29v19.15a28.284 28.284 0 0 1 -48.28 20l-7.72-7.72-4.69 4.69a38.627 38.627 0 0 1 -54.62 0l-4.69-4.69-7.72 7.72a28.284 28.284 0 0 1 -48.28-20v-19.15a102.175 102.175 0 0 1 5.24-32.29 101.849 101.849 0 0 0 4.31-45.98c63.25-36.99 120.79-92.21 165.92-171.27a76.452 76.452 0 0 1 .53 8.97v112h-.01a100.42 100.42 0 0 1 -1.31 15.79 101.777 101.777 0 0 1 -3.92 15.93z" fill="#79ad54"/><path d="m312 200h176v112h-176z" fill="#d0d24b"/><path d="m488 200v112h-97.27c33.74-30.06 64.68-67.02 91.52-112z" fill="#c7c934"/><path d="m336 224h16v16h-16z" fill="#dee051"/><path d="m336 256h16v32h-16z" fill="#dee051"/><path d="m432.42 88h-64.84a75.989 75.989 0 0 0 .42-8v-16h64v16a75.989 75.989 0 0 0 .42 8z" fill="#e0e0de"/><path d="m376 24h48a8 8 0 0 1 8 8v32a0 0 0 0 1 0 0h-64a0 0 0 0 1 0 0v-32a8 8 0 0 1 8-8z" fill="#7eb457"/><path d="m360 56h80v16h-80z" fill="#ebebe9"/><path d="m194.76 343.72a102.047 102.047 0 0 0 0 64.56 102.1 102.1 0 0 1 5.24 32.29v19.15a28.284 28.284 0 0 1 -48.28 20l-7.72-7.72-4.69 4.69a38.627 38.627 0 0 1 -54.62 0l-4.69-4.69-7.72 7.72a28.284 28.284 0 0 1 -48.28-20v-19.15a102.175 102.175 0 0 1 5.24-32.29 102.156 102.156 0 0 0 5.24-32.28 102.156 102.156 0 0 0 -5.24-32.28 101.775 101.775 0 0 1 -5.23-31.72c-.01-.19-.01-.38-.01-.57v-111.43a77.257 77.257 0 0 1 22.63-54.63l10.74-10.74a76.975 76.975 0 0 0 15.68-22.63 76.771 76.771 0 0 0 6.53-24 75.989 75.989 0 0 0 .42-8v-16h64v16a75.989 75.989 0 0 0 .42 8 77.376 77.376 0 0 0 22.21 46.63l10.74 10.74a77.267 77.267 0 0 1 22.63 54.63v111.43c0 .19 0 .38-.01.57a100.42 100.42 0 0 1 -1.31 15.79 101.777 101.777 0 0 1 -3.92 15.93z" fill="#ebebe9"/><path d="m194.76 343.72a102.047 102.047 0 0 0 0 64.56 102.1 102.1 0 0 1 5.24 32.29v19.15a28.284 28.284 0 0 1 -48.28 20l-7.72-7.72-4.69 4.69a38.627 38.627 0 0 1 -54.62 0l-4.69-4.69-7.72 7.72a28.284 28.284 0 0 1 -48.28-20v-19.15a102.175 102.175 0 0 1 5.24-32.29 102.156 102.156 0 0 0 5.24-32.28 101.391 101.391 0 0 0 -.93-13.7 102.56 102.56 0 0 0 -4.31-18.58 101.775 101.775 0 0 1 -5.23-31.72h-.01v-112a77.257 77.257 0 0 1 22.63-54.63l10.74-10.74a76.975 76.975 0 0 0 15.68-22.63h77.9a76.975 76.975 0 0 0 15.68 22.63l10.74 10.74a77.191 77.191 0 0 1 22.1 45.66 76.452 76.452 0 0 1 .53 8.97v112h-.01a100.42 100.42 0 0 1 -1.31 15.79 101.777 101.777 0 0 1 -3.92 15.93z" fill="#fa6d00"/><path d="m194.76 343.72a102.047 102.047 0 0 0 0 64.56 102.1 102.1 0 0 1 5.24 32.29v19.15a28.284 28.284 0 0 1 -48.28 20l-7.72-7.72-4.69 4.69a38.627 38.627 0 0 1 -54.62 0l-4.69-4.69-7.72 7.72a28.284 28.284 0 0 1 -48.28-20v-19.15a102.175 102.175 0 0 1 5.24-32.29 102.156 102.156 0 0 0 5.24-32.28 101.391 101.391 0 0 0 -.93-13.7c63.25-36.99 120.79-92.21 165.92-171.27a76.452 76.452 0 0 1 .53 8.97v112h-.01a100.42 100.42 0 0 1 -1.31 15.79 101.777 101.777 0 0 1 -3.92 15.93z" fill="#f86400"/><path d="m24 200h176v112h-176z" fill="#f98500"/><path d="m200 200v112h-97.27c33.74-30.06 64.68-67.02 91.52-112z" fill="#f77c00"/><path d="m144.42 88h-64.84a75.989 75.989 0 0 0 .42-8v-16h64v16a75.989 75.989 0 0 0 .42 8z" fill="#e0e0de"/><path d="m88 24h48a8 8 0 0 1 8 8v32a0 0 0 0 1 0 0h-64a0 0 0 0 1 0 0v-32a8 8 0 0 1 8-8z" fill="#fa6d00"/><path d="m72 56h80v16h-80z" fill="#ebebe9"/><path d="m338.76 343.72a102.047 102.047 0 0 0 0 64.56 102.1 102.1 0 0 1 5.24 32.29v19.15a28.284 28.284 0 0 1 -48.28 20l-7.72-7.72-4.69 4.69a38.627 38.627 0 0 1 -54.62 0l-4.69-4.69-7.72 7.72a28.284 28.284 0 0 1 -48.28-20v-19.15a102.175 102.175 0 0 1 5.24-32.29 102.047 102.047 0 0 0 0-64.56 101.775 101.775 0 0 1 -5.23-31.72c-.01-.19-.01-.38-.01-.57v-111.43a77.257 77.257 0 0 1 22.63-54.63l10.74-10.74a77.376 77.376 0 0 0 22.21-46.63 75.989 75.989 0 0 0 .42-8v-16h64v16a75.989 75.989 0 0 0 .42 8 77.376 77.376 0 0 0 22.21 46.63l10.74 10.74a77.267 77.267 0 0 1 22.63 54.63v111.43c0 .19 0 .38-.01.57a100.42 100.42 0 0 1 -1.31 15.79 101.777 101.777 0 0 1 -3.92 15.93z" fill="#ebebe9"/><path d="m338.76 343.72a102.047 102.047 0 0 0 0 64.56 102.1 102.1 0 0 1 5.24 32.29v19.15a28.284 28.284 0 0 1 -48.28 20l-7.72-7.72-4.69 4.69a38.627 38.627 0 0 1 -54.62 0l-4.69-4.69-7.72 7.72a28.284 28.284 0 0 1 -48.28-20v-19.15a102.175 102.175 0 0 1 5.24-32.29 102.185 102.185 0 0 0 0-64.56 101.775 101.775 0 0 1 -5.23-31.72h-.01v-112a77.257 77.257 0 0 1 22.63-54.63l10.74-10.74a76.975 76.975 0 0 0 15.68-22.63h77.9a76.975 76.975 0 0 0 15.68 22.63l10.74 10.74a77.191 77.191 0 0 1 22.1 45.66 76.452 76.452 0 0 1 .53 8.97v112h-.01a100.42 100.42 0 0 1 -1.31 15.79 101.777 101.777 0 0 1 -3.92 15.93z" fill="#693924"/><path d="m338.76 343.72a102.047 102.047 0 0 0 0 64.56 102.1 102.1 0 0 1 5.24 32.29v19.15a28.284 28.284 0 0 1 -48.28 20l-7.72-7.72-4.69 4.69a38.627 38.627 0 0 1 -54.62 0l-4.69-4.69-7.72 7.72a28.284 28.284 0 0 1 -48.28-20v-19.15a102.175 102.175 0 0 1 5.24-32.29 101.849 101.849 0 0 0 4.31-45.98c63.25-36.99 120.79-92.21 165.92-171.27a76.452 76.452 0 0 1 .53 8.97v112h-.01a100.42 100.42 0 0 1 -1.31 15.79 101.777 101.777 0 0 1 -3.92 15.93z" fill="#5c2e1a"/><path d="m168 200h176v112h-176z" fill="#f35244"/><path d="m344 200v112h-97.27c33.74-30.06 64.68-67.02 91.52-112z" fill="#e64c3f"/><path d="m288.42 88h-64.84a75.989 75.989 0 0 0 .42-8v-16h64v16a75.989 75.989 0 0 0 .42 8z" fill="#e0e0de"/><path d="m232 24h48a8 8 0 0 1 8 8v32a0 0 0 0 1 0 0h-64a0 0 0 0 1 0 0v-32a8 8 0 0 1 8-8z" fill="#f35244"/><path d="m216 56h80v16h-80z" fill="#ebebe9"/><path d="m424 248v58.67a124.167 124.167 0 0 1 -13.12 55.56 124.666 124.666 0 0 0 -12.75 46.04l-6.13 79.73h-96l-6.13-79.73a124.556 124.556 0 0 0 -12.75-46.04 123.993 123.993 0 0 1 -13.12-55.56v-58.67z" fill="#ebebe9"/><path d="m424 288v18.67c0 3.59-.16 7.17-.46 10.73a124.22 124.22 0 0 1 -12.66 44.83 124.666 124.666 0 0 0 -12.75 46.04l-6.13 79.73h-96l-3.15-40.96-2.98-38.77a124.556 124.556 0 0 0 -12.75-46.04 123.993 123.993 0 0 1 -13.12-55.56v-18.67z" fill="#f98500"/><path d="m423.54 317.4a124.22 124.22 0 0 1 -12.66 44.83 124.666 124.666 0 0 0 -12.75 46.04l-6.13 79.73h-96l-3.15-40.96c47.3-30.58 91.76-72.89 130.69-129.64z" fill="#f77c00"/><path d="m489.511 167.377a84.923 84.923 0 0 0 -18.484-27.664l-10.74-10.74a69.385 69.385 0 0 1 -20.287-48.973v-8h8v-16h-8v-24a16.019 16.019 0 0 0 -16-16h-48a16.019 16.019 0 0 0 -16 16v24h-8v16h8v8a69.381 69.381 0 0 1 -20.287 48.973l11.314 11.314a85.38 85.38 0 0 0 24.973-60.287v-8h48v8a85.384 85.384 0 0 0 24.973 60.287l10.74 10.74a69.088 69.088 0 0 1 19.808 40.973h-111.521v16h112v96h-32v16h31.6c-.2 2.179-.462 4.352-.813 6.5a94.065 94.065 0 0 1 -3.614 14.688 110.046 110.046 0 0 0 0 69.619 93.939 93.939 0 0 1 4.827 29.763v19.15a20.283 20.283 0 0 1 -34.623 14.342l-7.72-7.719a8 8 0 0 0 -11.314 0l-4.691 4.69a30.392 30.392 0 0 1 -2.989 2.625l9.75 12.686a46.738 46.738 0 0 0 3.572-3.044l2.077 2.077a36.281 36.281 0 0 0 61.938-25.657v-19.15a109.878 109.878 0 0 0 -5.65-34.817 94.046 94.046 0 0 1 0-59.494 110.228 110.228 0 0 0 4.228-17.18 108.678 108.678 0 0 0 1.413-16.834c0-.082.012-.162.012-.245v-112a84.914 84.914 0 0 0 -6.492-32.623zm-113.511-111.377v-24h48v24z"/><path d="m133.652 471.033a30.627 30.627 0 0 1 -21.652 8.967 30.833 30.833 0 0 1 -21.652-8.967l-4.691-4.69a8 8 0 0 0 -11.314 0l-7.72 7.719a20.283 20.283 0 0 1 -34.623-14.342v-19.15a94.18 94.18 0 0 1 4.83-29.762 109.974 109.974 0 0 0 5.65-34.808 110.006 110.006 0 0 0 -5.65-34.811 93.69 93.69 0 0 1 -4.43-21.189h111.6v-16h-112v-96h112v-16h-111.527a68.728 68.728 0 0 1 19.814-40.973l10.74-10.74a84.729 84.729 0 0 0 14.98-20.287h67.987a84.721 84.721 0 0 0 14.979 20.287l11.314-11.314a69.385 69.385 0 0 1 -20.287-48.973v-8h8v-16h-8v-24a16.019 16.019 0 0 0 -16-16h-48a16.019 16.019 0 0 0 -16 16v24h-8v16h8v8a68.654 68.654 0 0 1 -6.234 28.693 68.8 68.8 0 0 1 -14.053 20.28l-10.74 10.74a84.7 84.7 0 0 0 -24.973 60.287v112c0 .082.01.161.012.242a109.569 109.569 0 0 0 5.638 34 94.008 94.008 0 0 1 4.83 29.758 93.961 93.961 0 0 1 -4.827 29.741 110.269 110.269 0 0 0 -5.653 34.829v19.15a36.282 36.282 0 0 0 61.938 25.657l2.077-2.078a46.965 46.965 0 0 0 31.985 12.701 46.651 46.651 0 0 0 32.967-13.652l4.69-4.691-11.314-11.314zm-45.652-399.033h48v8a84.649 84.649 0 0 0 3.446 24h-54.892a84.639 84.639 0 0 0 3.446-24zm0-40h48v24h-48z"/><path d="m48 224h16v16h-16z"/><path d="m48 256h16v32h-16z"/><path d="m256 480a30.833 30.833 0 0 1 -21.652-8.967l-4.691-4.69a8 8 0 0 0 -11.314 0l-7.72 7.719a20.28 20.28 0 0 1 -34.623-14.342v-19.15a94.18 94.18 0 0 1 4.83-29.762 110.055 110.055 0 0 0 0-69.619 93.69 93.69 0 0 1 -4.43-21.189h63.6v-16h-64v-96h160v16h16v-24a85.145 85.145 0 0 0 -17.637-51.908c-2.214-2.905-18.076-19.119-18.076-19.119a69.385 69.385 0 0 1 -20.287-48.973v-8h8v-16h-8v-24a16.019 16.019 0 0 0 -16-16h-48a16.019 16.019 0 0 0 -16 16v24h-8v16h8v8a69.37 69.37 0 0 1 -20.287 48.973l-10.74 10.74a83.4 83.4 0 0 0 -7.315 8.35 85.645 85.645 0 0 0 -17.658 51.937v112c0 .082.01.162.012.243a109.592 109.592 0 0 0 5.638 34 94.046 94.046 0 0 1 0 59.494 110.269 110.269 0 0 0 -5.65 34.833v19.15a36.487 36.487 0 0 0 20.508 32.68 36.282 36.282 0 0 0 41.43-7.02l2.077-2.078a46.965 46.965 0 0 0 31.985 12.698 46.413 46.413 0 0 0 17.84-3.549l-6.119-14.783a30.5 30.5 0 0 1 -11.721 2.332zm-24-408h48v8a84.614 84.614 0 0 0 3.446 24h-54.892a84.639 84.639 0 0 0 3.446-24zm0-40h48v24h-48zm-41.637 125.789c1.782-2.338 16.664-17.5 16.664-17.5a84.729 84.729 0 0 0 14.98-20.289h67.987a84.721 84.721 0 0 0 14.979 20.287s14.882 15.164 16.693 17.54a68.933 68.933 0 0 1 13.855 34.173h-159.042a69.65 69.65 0 0 1 13.884-34.211z"/><path d="m192 224h16v16h-16z"/><path d="m192 256h16v32h-16z"/><path d="m432 248a8 8 0 0 0 -8-8h-160a8 8 0 0 0 -8 8v58.67a132.005 132.005 0 0 0 13.963 59.135 116.013 116.013 0 0 1 11.931 43.078l6.129 79.73a8 8 0 0 0 7.977 7.387h96a8 8 0 0 0 7.977-7.387l6.129-79.726a116.665 116.665 0 0 1 11.928-43.077 132.84 132.84 0 0 0 13.966-59.14zm-16 8v24h-144v-24zm-12.277 102.656a132.648 132.648 0 0 0 -13.57 49l-5.561 72.344h-81.184l-5.561-72.348a131.968 131.968 0 0 0 -13.574-49 115.989 115.989 0 0 1 -12.273-51.982v-10.67h144v10.67a116.77 116.77 0 0 1 -12.277 51.986z"/><path d="m320 424h16v16h-16z"/><path d="m344 392h16v16h-16z"/><path d="m328 336h16v16h-16z"/></g></svg>