<svg height="512" viewBox="0 0 512 512" width="512" xmlns="http://www.w3.org/2000/svg"><path d="m354.96 7.5h-198.8c-6.26 0-11.86 3.89-14.05 9.76l-36.77 98.57h300.45l-36.78-98.57c-2.18-5.87-7.79-9.76-14.05-9.76z" fill="#838383"/><path d="m104.54 115.83 24.69 371.41c.64 9.71 8.71 17.26 18.44 17.26 6.39 0 221.59 0 214.79 0 9.73 0 17.8-7.55 18.45-17.26l24.68-371.41c-14.19 0-284.68 0-301.05 0z" fill="#ebebeb"/><path d="m368.74 115.83-24.68 371.41c-.65 9.71-8.72 17.26-18.45 17.26h36.85c9.73 0 17.8-7.55 18.45-17.26l24.68-371.41z" fill="#e2e2e2"/><path d="m424 141.11h-336c-3.87 0-7-3.13-7-7v-36.55c0-3.87 3.13-7 7-7h336c3.87 0 7 3.13 7 7v36.55c0 3.87-3.13 7-7 7z" fill="#bfbfbf"/><path d="m424 90.56h-36.85c3.87 0 7 3.13 7 7v36.55c0 3.86-3.13 7-7 7h36.85c3.87 0 7-3.14 7-7v-36.55c0-3.87-3.13-7-7-7z" fill="#acacac"/><path d="m397.36 390.44 10.63-159.89c.19-2.88-2.1-5.33-4.99-5.33h-295.86c-2.9 0-5.18 2.45-4.99 5.33l10.62 159.89c.18 2.63 2.36 4.67 4.99 4.67h274.61c2.63 0 4.82-2.04 4.99-4.67z" fill="#09a76d"/><path d="m255.07 358.65c-26.81 0-48.48-21.67-48.48-48.48s21.67-48.48 48.48-48.48 48.48 21.67 48.48 48.48-21.67 48.48-48.48 48.48z" fill="#98d5b9"/><path d="m403 225.22h-36.85c2.89 0 5.18 2.45 4.99 5.34l-10.63 159.88c-.17 2.63-2.36 4.67-4.99 4.67h36.85c2.63 0 4.82-2.04 4.99-4.67l10.63-159.89c.19-2.88-2.1-5.33-4.99-5.33z" fill="#02905d"/><path d="m424 83.06c7.99 0 14.5 6.5 14.5 14.5v36.55c0 7.99-6.51 14.5-14.5 14.5h-13.07l-4.63 69.57c5.29 1.45 9.2 6.29 9.2 12.04 0 .27-.01.54-.03.82l-4.13 62.11c-.27 4.14-3.85 7.26-7.98 6.99s-7.26-3.85-6.98-7.98l3.95-59.44h-290.52l10.29 154.89h269.93l4.03-60.53c.27-4.13 3.83-7.26 7.98-6.98 4.13.27 7.26 3.84 6.98 7.98l-4.18 62.86c-.39 5.97-5 10.75-10.78 11.54l-5.67 85.26c-.9 13.6-12.29 24.26-25.93 24.26h-214.79c-13.63 0-25.02-10.66-25.93-24.26l-1.15-17.3c-.27-4.13 2.86-7.71 6.99-7.98s7.71 2.85 7.98 6.99l1.15 17.29c.38 5.75 5.2 10.26 10.96 10.26h214.79c5.76 0 10.58-4.51 10.96-10.26l5.59-84.13h-247.89l2.12 31.91c.27 4.14-2.86 7.71-6.99 7.98-4.12.29-7.7-2.85-7.98-6.98l-2.19-33.04c-5.79-.79-10.39-5.57-10.79-11.54l-10.63-159.89c-.02-.31-.02-.57-.02-.83 0-5.75 3.9-10.58 9.19-12.04l-4.62-69.57h-11.21c-8 0-14.5-6.51-14.5-14.5v-36.55c0-8 6.5-14.5 14.5-14.5h21.56l25.52-68.42c3.27-8.76 11.74-14.64 21.08-14.64h198.8c9.34 0 17.82 5.88 21.08 14.64l25.53 68.42zm-298.43-.01h259.99l-23.57-63.17c-1.09-2.92-3.91-4.88-7.03-4.88h-198.8c-3.11 0-5.93 1.96-7.02 4.88zm270.32 65.56h-281.65l4.59 69.11h272.47zm27.61-50.55h-335v35.55h335z" fill-rule="evenodd"/><path d="m199.09 310.17c0-30.87 25.11-55.98 55.98-55.98 30.86 0 55.98 25.11 55.98 55.98 0 30.86-25.12 55.98-55.98 55.98-30.87 0-55.98-25.12-55.98-55.98zm55.98-40.98c-22.6 0-40.98 18.38-40.98 40.98 0 22.59 18.38 40.98 40.98 40.98 22.59 0 40.98-18.39 40.98-40.98 0-22.6-18.39-40.98-40.98-40.98z" fill-rule="evenodd"/><path d="m303.2 309.66c-.09 26.35-21.41 47.64-47.63 47.56-26.21-.09-47.4-21.52-47.31-47.87s21.41-47.65 47.62-47.56c26.22.08 47.4 21.52 47.32 47.87z" fill="#fff"/><path d="m302.07 315.44c-4.86 1.37-8.04-3.79-12.77-3.03l.53 2.67c4.37.16 7.08 4.36 11.59 4.19-.64 1.28.27 4.66-2.56 3.3-2.95-.72-5.07-3.32-8.3-3.33-.39.71-.15 1.7-.22 2.55 3.41.54 5.85 3.43 9.25 3.97-.32 1.17-.65 2.48-1.61 3.19-2.77-.68-4.92-3.17-7.87-3.11l-.54 2.45c2.81.08 4.61 2.56 7.13 3.32.06 1.03-.86 1.95-1.4 2.87-2.23-.68-3.93-2.6-6.49-2.47-.03-.96.54-2.05.33-3.08-2.87.84-4.79-1.83-6.91-3.44-.04-5.24-5.54-8.69-5.82-13.59-.05-.98.1-2.03.55-3.15 1.82-4.18 1.27-9.62-.7-13.53-.6-1.03-1.67-1.84-2.66-2.45 1.45 3.09 3.21 6.75 2.31 10.55-.11 2.93-1.85 5.74-1.88 8.57-.01 1.01.2 2.02.78 3.04 2.29 4.16 6.44 8.11 4.86 13.32-.44 1.6-1.72 2.84-2.05 4.47 2.7 2.24 5.24 4.77 8.83 4.93 1.28-.81.58-4.43 3.2-2.76l3.83 1.94c-.28 1.02-1.14 1.94-1.92 2.64-1.46-.71-2.87-1.56-4.69-1.5-.54.57-1 1.2-.96 2.02 1.28.21 2.45.75 3.51 1.5-.5 1.07-1.47 1.74-2.36 2.55l-2.97-1.07c-.5.71-1.53 1.45-1.17 2.23.67.29 1.41.68 1.9 1.18-1.31 1.42-2.98 2.32-4.59 3.28-1.36-4.51-5.9-7.69-5.49-12.9l-.21-.22c-1.08 1.2-.72 3.12-.66 4.68 1.27 3.28 4.31 5.81 4.76 9.39-.54.92-1.74 1.1-2.67 1.49.13-6.46-9.65-11.39-3.35-17.9 2.11-3.2 5.63-6.24 4.4-10.65-1.26-4.25-5.77-6.9-5.71-11.67v-.37c1.05-4.97 4.19-10.25 1.65-15.55-.7-2.13-2.29-4.55-4.45-5.45 3.22 3.71 4.48 9.74 2.61 14.71-.93 1.97-2.22 4.33-2.36 6.65h-.01c-.07 1.22.17 2.42.95 3.57 2.44 3.99 6.69 8.37 4.22 13.55-2.78 4.14-7.63 8.35-4.95 13.83 1.94 3.27 4.96 6.54 4.13 10.55l-3.2 1.05c2.15-7.48-8.27-11.91-3.88-19.39 2.71-4 7.55-7.75 4.84-13.09-1.62-3.3-4.99-5.26-4.87-9.39l.12-.69c1.11-5.84 5.58-11.36 2.49-17.62-.81-1.85-2.44-3.73-4.24-4.81l-.11.11c3.61 3.53 4.69 9.32 2.72 13.96-.92 2.72-2.93 5.43-3.34 8.36-.2 1.37-.04 2.8.75 4.31 2.29 3.66 6.33 7.55 3.79 12.27-2.68 3.89-7.13 7.67-5.37 12.75 1.94 4.45 6 8.69 3.78 14.19l-3.3.73c2.65-5.36-1.27-10.69-3.57-15.35-2.78-6.69 6.07-9.85 6.23-15.96-.02-3.93-4.2-6.19-5.08-9.81-1.8-1.53-3.69.6-5.85.19-1.6.32-4.05-2.21-5.02.52-1.15 4.01-6.34 6.94-4.08 11.7 2.16 4.23 7.36 7.34 5.6 12.81-1.58 5.1-6.74 9.95-3.57 15.85-1.31-.43-3.76.38-3.72-1.72-2-7.14 6.64-11.27 4-18.41-1.23-4.37-6.87-6.81-5.61-12.06.94-4.32 5.8-7.33 5.14-12.07-.02-.1-.04-.2-.06-.31-.02-.1-.04-.2-.06-.31-.03-.1-.05-.2-.08-.3s-.06-.2-.09-.3c-1.8-5.12-5.48-10.25-3.25-16.21.61-1.7 1.82-3.15 2.89-4.67-3.53 1.87-5.31 5.84-5.25 9.89-.17 4.4 3.07 8.18 3.52 12.21.17 1.62-.1 3.28-1.24 5.05-2.31 3.12-5.34 6.41-3.97 10.53 1.3 4.16 6.47 6.7 6.14 11.52-.06 5.72-6.71 9.25-4.85 15.65l-3.3-1.08c-1.29-5.69 4.75-8.57 4.84-13.82.87-6.04-6.82-8.31-6.34-14.2-.02-4.47 3.93-7.29 5.68-11.05.3-.92.4-1.78.37-2.61-.2-4.17-3.94-7.43-3.31-12.11.23-3.44 1.41-6.46 3.65-9.04-3.09 1.23-4.38 4.78-5.24 7.76-1.49 4.78 2.03 9.09 2.37 13.38.15 1.89-.32 3.77-2.11 5.69-2.57 3-5.17 6.8-3.34 10.86 1.94 4.47 8.07 7.97 5.39 13.54-1.47 3.51-4.95 6.16-4.83 10.31-.92-.39-1.87-.78-2.65-1.5.01-5.28 7.55-8.56 3.98-14.15-.32 1.1-.39 2.59-.65 3.84-1.25 3.22-3.92 5.8-4.93 9.14-1.66-.65-3.4-2-4.78-3.43l1.92-1.17c-.21-.71-.77-1.31-1.27-1.92-1.24-.18-2.06.64-3.09.95-.89-.78-1.74-1.49-2.44-2.46.64-1.81 5.61-.29 3.1-3.28-1.7-1.07-3.41.44-4.91 1.15l-2.01-2.56c1.74-1.06 3.48-2.55 5.65-2.11.53.96.56 2.37 1.58 2.88 3.66-.06 6.26-2.82 9.07-4.98-1.94-2.91-3.52-6.93-1.77-10.44 1.4-3.52 5.04-6.48 5.21-10.37.04-.89-.09-1.82-.48-2.83-1.9-4.94-2.55-11.61 1.12-15.97-1.99.53-3.17 3-3.85 4.88-2.22 4.82.55 9.29.63 13.91.01.83-.06 1.66-.26 2.5-1.9 3.79-4.96 7.11-5.47 11.48-2.17 1.38-3.96 3.79-7.04 2.96-.11.82.13 2.06.41 2.99-2.44-.11-4.12 1.69-6.18 2.53-1.1-.35-1.38-1.77-1.8-2.77 2.41-.81 4.16-3.22 6.93-3.17.32-.89-.17-1.71-.31-2.56-3.44-1.54-8.94 7.53-9.37-.35 3.45-.21 5.66-3.39 9.07-3.7l.11-2.55c-3.87-.41-6.37 3.56-10.24 3.16l-.84-3.41c4.47.29 7.15-3.71 11.41-3.91.57-.74.64-1.84.75-2.87-4.64-.62-7.85 4.52-12.78 2.94 0 0-.17-2.15-.26-3.36h.01c0-.06-.01-.13-.01-.2-.01-.06-.01-.13-.02-.2 0-.06-.01-.13-.01-.2-.01-.07-.02-.13-.02-.2 4.39 1.72 8.27-1.43 12.04-3.05.96-.28 2.45.22 2.89-.84-.04-.82 1.46-1.77.22-2.34-5.51-.77-9.19 5.86-14.82 2.82l-.42-.85c1.22-16.04 10.32-31.53 25.37-39.11 6.09-3.46 13.65-5.2 21.27-5.24 9.2-.05 18.48 2.4 25.38 7.31 6.7 4.14 13.09 10.95 16.56 17.85 3.31 6.04 4.82 12.82 5.25 20.03-5.83 4.38-9.71-4.18-15.65-2.28.32.92.49 1.88 1.17 2.66 5.25-.02 8.85 5.5 14.36 3.35l.01.8c.03 1.2.14 2.23-.34 3.46zm-31.74-32.59c-.2-2.06 1.37-4.22 1.73-6.28-3.9.24-7 2.58-10.24 4.44-.19-.45-.37-.9-.56-1.36-.18-.45-.37-.9-.55-1.36-.19-.45-.37-.9-.56-1.36-.18-.45-.37-.9-.55-1.36l4.27-4.03.11-.54-5.75-.34c-.99-1.74-1.37-3.83-2.54-5.43-.96 1.81-1.61 3.72-2.58 5.53l-5.74.3-.01.42 4.35 3.96c-.54 2.02-1.04 4.22-2.36 5.74-2.55-1.54-5.06-3.21-7.86-4.28-.67-.22-1.63-.58-2.24-.12.88 1.96 2.11 4.06 1.9 6.19-1.17-.22-2.09-.97-3.19-1.29-1.32-.36-2.88-1.07-4.16-.65 2.12 2.99 3.85 6.11 4.44 9.7 7.08-3.39 15.33-5.23 23.88-3.75 4.01.65 7.69 2.3 11.28 3.66.15-3.76 2.54-6.78 4.18-9.79-2.62-.15-4.83 1.33-7.25 2zm-46.58 10.29c-.31-3.24-1.61-6.19-4.34-8.33-.26-.13-.63-.41-.96-.43-.2-.01-.39.07-.53.32 1.21 7.64-3.77 12.94-7.3 18.72 1.16.96 3.05.83 4.47.55 3.73-1.48 7.29-4.06 11.72-3.16 1.32-2.23 3.53-4.39 5.35-6.16 1.11-.95 2.63-1.55 3.41-2.65-3.68-2.43-8.37-.17-11.82 1.14zm35.16-4.47c-1.01-.13-2.06-.21-3.1-.23-.19 0-.39 0-.58 0-2.91.05-5.7.79-7.4 3.18-.25.67-1.32 1.62-.33 2.23 2.24-.14 4.79-.41 6.28 1.51-.01 1.71 1.08 3.98-.76 4.79-1.53-1.42-3.35.6-5.01-.55-.78-.46-1.27.08-1.6.75-.47 4.4 1.82 9.27 5.93 11.73 1.66.61 3.9 1.19 5.65.34 4.19-1.94 5.94-6.4 6.74-10.52-.1-.79-.06-2.31-1.16-2.35-1.25.78-3.06.31-4.37-.02-.78.25-.82 1.39-1.71 1.6l-.53-.43c-.46-1.95-.74-4.72 1.08-6.07 2.03-.81 4.41-1.15 6.5-.51.39-.67-.21-1.2-.31-1.81-.99-2.2-3.26-3.1-5.32-3.64zm-11.32 9.12c1.11-1.52 3.05-.3 4.26-.19v-.43c-.66-1.04-2.02-1.57-3.4-1.52-.32.01-.64.05-.96.12-.46.11-.78.53-.64 1.06-.07.46.03 1.28.74.96zm14.49-1.98c-.14 0-.28.01-.42.01-.75.49-2.91.13-2.14 1.8 1.36-1.06 3.24-.31 4.58.23.5-.25.4-.74.43-1.17-.43-.81-1.46-.89-2.45-.87zm-6.65-17.06c1.67.97 3.44 2.21 4.78 3.53l-.53.53c-2.66-.29-5.46.06-7.99.09-.28-.29-.85-.72-.32-1.07zm45.3 24.97c-3.32-5.55-8.27-10.68-6.87-17.92.15-.49-.17-.99-.63-1.07-2.17.88-3.85 3.01-4.71 5.1-.36 1.24-.57 2.56-1.07 3.73-2.59-1.36-5.35-2.68-8.52-2.37-1.14.14-2.77.2-2.98 1.37 3.58 1.93 6.51 5.14 8.7 8.55 1.53-.24 3.41-.02 5 .23 3.62.97 7.24 4.92 11.08 2.38zm-49.01 2.5c2.56.4 5.36-.08 7.67.24-.86 1.28-2.14 2.87-3.84 2.76-1.92.14-2.35-1.43-3.73-2.36zm1.93-2.87c.57-.39 1.36-.61 2.11-.6.76 0 1.49.23 1.93.72-.64 1.35-2.7.49-3.83.74-.39-.15-.14-.57-.21-.86z" fill="#106e33" fill-rule="evenodd"/><path d="m251.74 302.11 7.78.03-.01 3.2-7.78-.03z" fill="#fff" opacity=".988"/></svg>