<svg height="480pt" viewBox="-40 0 480 480" width="480pt" xmlns="http://www.w3.org/2000/svg"><path d="m208 440v-80h-32v80h-56c-13.253906 0-24 10.746094-24 24v8h192v-8c0-13.253906-10.746094-24-24-24zm0 0" fill="#d3843d"/><path d="m296 112c0 57.4375-46.5625 104-104 104s-104-46.5625-104-104 46.5625-104 104-104 104 46.5625 104 104zm0 0" fill="#7fcac9"/><path d="m27.3125 232c-10.132812-35.878906 3.445312-74.253906 33.890625-95.773438 30.445313-21.523437 71.148437-21.523437 101.59375 0 30.445313 21.519532 44.023437 59.894532 33.890625 95.773438zm0 0" fill="#f98c96"/><path d="m187.3125 232c-10.132812-35.878906 3.445312-74.253906 33.890625-95.773438 30.445313-21.523437 71.148437-21.523437 101.59375 0 30.445313 21.519532 44.023437 59.894532 33.890625 95.773438zm0 0" fill="#ffd782"/><path d="m16 232h352c4.417969 0 8 3.582031 8 8v16c0 4.417969-3.582031 8-8 8h-352c-4.417969 0-8-3.582031-8-8v-16c0-4.417969 3.582031-8 8-8zm0 0" fill="#db527d"/><path d="m24 264s8 112 168 112 168-112 168-112zm0 0" fill="#f6bf9b"/><path d="m88 323.320312c-1.796875.003907-3.542969-.605468-4.953125-1.71875-7.636719-5.996093-14.351563-13.078124-19.925781-21.027343-2.417969-3.621094-1.496094-8.511719 2.074218-11 3.574219-2.492188 8.480469-1.671875 11.042969 1.851562 4.683594 6.652344 10.320313 12.582031 16.730469 17.597657 2.6875 2.109374 3.742188 5.695312 2.621094 8.921874-1.121094 3.230469-4.171875 5.386719-7.589844 5.375zm0 0" fill="#d3843d"/><path d="m192 352c-25.414062.53125-50.722656-3.40625-74.777344-11.632812-4.144531-1.53125-6.261718-6.136719-4.726562-10.277344 1.53125-4.144532 6.136718-6.261719 10.28125-4.730469 22.273437 7.570313 45.703125 11.167969 69.222656 10.640625 70.007812 0 101.601562-24.238281 115.824219-44.574219 2.5625-3.523437 7.472656-4.34375 11.042969-1.851562 3.570312 2.488281 4.496093 7.378906 2.078124 11-16.386718 23.464843-52.050781 51.425781-128.945312 51.425781zm0 0" fill="#d3843d"/><g fill="#fff"><path d="m327.425781 208c-3.980469 0-7.355469-2.925781-7.921875-6.863281-3.492187-23.570313-23.679687-41.050781-47.503906-41.136719-4.417969 0-8-3.582031-8-8s3.582031-8 8-8c31.769531.125 58.6875 23.4375 63.351562 54.863281.332032 2.296875-.355468 4.625-1.875 6.378907-1.523437 1.753906-3.730468 2.761718-6.050781 2.757812zm0 0"/><path d="m168 208c-3.976562-.003906-7.347656-2.925781-7.910156-6.863281-3.5-23.570313-23.691406-41.050781-47.523438-41.136719-4.417968 0-8-3.582031-8-8s3.582032-8 8-8c31.773438.125 58.691406 23.4375 63.355469 54.863281.625 4.371094-2.40625 8.425781-6.777344 9.058594-.378906.050781-.761719.078125-1.144531.078125zm0 0"/><path d="m264 120c-4.417969 0-8-3.582031-8-8-.039062-35.328125-28.671875-63.960938-64-64-4.417969 0-8-3.582031-8-8s3.582031-8 8-8c44.164062.046875 79.953125 35.835938 80 80 0 4.417969-3.582031 8-8 8zm0 0"/></g><path d="m392 392c-17.671875 0-32-14.328125-32-32 0-4.417969-3.582031-8-8-8s-8 3.582031-8 8c0 17.671875-14.328125 32-32 32-4.417969 0-8 3.582031-8 8s3.582031 8 8 8c17.671875 0 32 14.328125 32 32 0 4.417969 3.582031 8 8 8s8-3.582031 8-8c0-17.671875 14.328125-32 32-32 4.417969 0 8-3.582031 8-8s-3.582031-8-8-8zm-40 21.519531c-3.5625-5.359375-8.160156-9.957031-13.519531-13.519531 5.359375-3.5625 9.957031-8.160156 13.519531-13.519531 3.5625 5.359375 8.160156 9.957031 13.519531 13.519531-5.359375 3.5625-9.957031 8.160156-13.519531 13.519531zm0 0" fill="#fdbd40"/><path d="m16 272h1.207031c5.007813 24.496094 30.402344 101.871094 150.792969 111.039062v48.960938h-48c-17.671875 0-32 14.328125-32 32v8c0 4.417969 3.582031 8 8 8h192c4.417969 0 8-3.582031 8-8v-8c0-17.671875-14.328125-32-32-32h-48v-48.960938c120.375-9.167968 145.785156-86.542968 150.792969-111.039062h1.207031c8.835938 0 16-7.164062 16-16v-16c0-8.835938-7.164062-16-16-16h-1.390625c7.960937-46.113281-18.664063-91.203125-62.890625-106.503906.089844-1.832032.28125-3.648438.28125-5.496094 0-61.855469-50.144531-112-112-112s-112 50.144531-112 112c0 1.824219.199219 3.65625.296875 5.496094-44.234375 15.289062-70.867187 60.382812-62.90625 106.503906h-1.390625c-8.835938 0-16 7.164062-16 16v16c0 8.835938 7.164062 16 16 16zm248 176c8.835938 0 16 7.164062 16 16h-176c0-8.835938 7.164062-16 16-16h56c4.417969 0 8-3.582031 8-8v-56.183594c2.664062.0625 5.257812.183594 8 .183594s5.335938-.121094 8-.183594v56.183594c0 4.417969 3.582031 8 8 8zm-72-80c-126.191406 0-153.0625-70.839844-158.625-96h317.25c-5.5625 25.160156-32.433594 96-158.625 96zm160-160c.003906 5.375-.535156 10.734375-1.601562 16h-156.796876c-6.070312-29.878906 5.375-60.609375 29.507813-79.242188 24.132813-18.632812 56.757813-21.929687 84.128906-8.496093 27.371094 13.429687 44.730469 41.25 44.761719 71.738281zm-160-192c52.996094.058594 95.941406 43.003906 96 96 0 .480469-.0625.953125-.070312 1.433594-5.261719-.921875-10.589844-1.402344-15.929688-1.433594-.046875-44.164062-35.835938-79.953125-80-80-4.417969 0-8 3.582031-8 8s3.582031 8 8 8c35.328125.039062 63.960938 28.671875 64 64 .046875.472656.140625.941406.28125 1.398438-26.265625 4.367187-49.542969 19.433593-64.28125 41.609374-20.785156-31.808593-58.527344-48.171874-95.953125-41.601562 0-.46875-.070313-.949219-.070313-1.429688.070313-52.996093 43.027344-95.933593 96.023438-95.976562zm-80 112c30.046875.101562 57.511719 16.996094 71.152344 43.769531-6.820313 16.515625-8.816406 34.625-5.761719 52.230469h-143.789063c-4.777343-23.535156 1.261719-47.976562 16.453126-66.578125 15.191406-18.601563 37.929687-29.398437 61.945312-29.421875zm-96 112h352v16h-352zm0 0"/><path d="m63.113281 300.574219c5.574219 7.949219 12.289063 15.03125 19.925781 21.027343 3.46875 2.738282 8.5 2.148438 11.242188-1.320312 2.738281-3.46875 2.148438-8.5-1.320312-11.242188-6.410157-5.015624-12.046876-10.945312-16.730469-17.597656-2.5625-3.519531-7.46875-4.34375-11.042969-1.851562-3.570312 2.488281-4.492188 7.378906-2.074219 11.003906zm0 0"/><path d="m117.222656 340.367188c24.054688 8.226562 49.363282 12.164062 74.777344 11.632812 76.894531 0 112.558594-27.960938 128.945312-51.425781 2.417969-3.621094 1.492188-8.511719-2.078124-11-3.570313-2.492188-8.480469-1.671875-11.042969 1.851562-14.222657 20.335938-45.816407 44.574219-115.824219 44.574219-23.519531.527344-46.949219-3.070312-69.222656-10.640625-4.144532-1.53125-8.75.585937-10.28125 4.730469-1.535156 4.140625.582031 8.746094 4.726562 10.277344zm0 0"/><path d="m264 152c0 4.417969 3.582031 8 8 8 23.824219.085938 44.011719 17.566406 47.503906 41.136719.628906 4.375 4.683594 7.414062 9.058594 6.789062 4.378906-.628906 7.417969-4.683593 6.789062-9.0625-4.664062-31.425781-31.582031-54.738281-63.351562-54.863281-4.417969 0-8 3.582031-8 8zm0 0"/><path d="m112.566406 160c23.828125.089844 44.015625 17.570312 47.511719 41.136719.566406 3.9375 3.941406 6.863281 7.921875 6.863281.386719 0 .769531-.027344 1.152344-.078125 4.371094-.632813 7.402344-4.6875 6.777344-9.058594-4.667969-31.429687-31.585938-54.742187-63.363282-54.863281-4.417968 0-8 3.582031-8 8s3.582032 8 8 8zm0 0"/><path d="m360 360c0-4.417969-3.582031-8-8-8s-8 3.582031-8 8c0 17.671875-14.328125 32-32 32-4.417969 0-8 3.582031-8 8s3.582031 8 8 8c17.671875 0 32 14.328125 32 32 0 4.417969 3.582031 8 8 8s8-3.582031 8-8c0-17.671875 14.328125-32 32-32 4.417969 0 8-3.582031 8-8s-3.582031-8-8-8c-17.671875 0-32-14.328125-32-32zm-8 53.519531c-3.5625-5.359375-8.160156-9.957031-13.519531-13.519531 5.359375-3.5625 9.957031-8.160156 13.519531-13.519531 3.5625 5.359375 8.160156 9.957031 13.519531 13.519531-5.359375 3.5625-9.957031 8.160156-13.519531 13.519531zm0 0"/></svg>