<svg version="1.2" baseProfile="tiny-ps" xmlns="http://www.w3.org/2000/svg" viewBox="0 0 512 512" width="512" height="512">
	<title>coffee-cup (1)-svg</title>
	<style>
		tspan { white-space:pre }
		.shp0 { fill: #838383 } 
		.shp1 { fill: #ebebeb } 
		.shp2 { fill: #e2e2e2 } 
		.shp3 { fill: #bfbfbf } 
		.shp4 { fill: #acacac } 
		.shp5 { fill: #09a76d } 
		.shp6 { fill: #98d5b9 } 
		.shp7 { fill: #02905d } 
		.shp8 { fill: #000000 } 
		.shp9 { fill: #ffffff } 
		.shp10 { fill: #106e33 } 
		.shp11 { opacity: 0.988;fill: #ffffff } 
	</style>
	<g id="Layer">
		<g id="Layer">
			<path id="Layer" class="shp0" d="M354.96 7.5L156.16 7.5C149.9 7.5 144.3 11.39 142.11 17.26L105.34 115.83L405.79 115.83L369.01 17.26C366.83 11.39 361.22 7.5 354.96 7.5L354.96 7.5Z" />
			<path id="Layer" class="shp1" d="M104.54 115.83L129.23 487.24C129.87 496.95 137.94 504.5 147.67 504.5C154.06 504.5 369.26 504.5 362.46 504.5C372.19 504.5 380.26 496.95 380.91 487.24L405.59 115.83C391.4 115.83 120.91 115.83 104.54 115.83L104.54 115.83Z" />
			<path id="Layer" class="shp2" d="M368.74 115.83L344.06 487.24C343.41 496.95 335.34 504.5 325.61 504.5L362.46 504.5C372.19 504.5 380.26 496.95 380.91 487.24L405.59 115.83L368.74 115.83Z" />
			<path id="Layer" class="shp3" d="M424 141.11L88 141.11C84.13 141.11 81 137.98 81 134.11L81 97.56C81 93.69 84.13 90.56 88 90.56L424 90.56C427.87 90.56 431 93.69 431 97.56L431 134.11C431 137.98 427.87 141.11 424 141.11Z" />
			<path id="Layer" class="shp4" d="M424 90.56L387.15 90.56C391.02 90.56 394.15 93.69 394.15 97.56L394.15 134.11C394.15 137.97 391.02 141.11 387.15 141.11L424 141.11C427.87 141.11 431 137.97 431 134.11L431 97.56C431 93.69 427.87 90.56 424 90.56Z" />
			<path id="Layer" class="shp5" d="M397.36 390.44L407.99 230.55C408.18 227.67 405.89 225.22 403 225.22L107.14 225.22C104.24 225.22 101.96 227.67 102.15 230.55L112.77 390.44C112.95 393.07 115.13 395.11 117.76 395.11L392.37 395.11C395 395.11 397.19 393.07 397.36 390.44Z" />
			<path id="Layer" class="shp6" d="M255.07 358.65C228.26 358.65 206.59 336.98 206.59 310.17C206.59 283.36 228.26 261.69 255.07 261.69C281.88 261.69 303.55 283.36 303.55 310.17C303.55 336.98 281.88 358.65 255.07 358.65Z" />
			<path id="Layer" class="shp7" d="M403 225.22L366.15 225.22C369.04 225.22 371.33 227.67 371.14 230.56L360.51 390.44C360.34 393.07 358.15 395.11 355.52 395.11L392.37 395.11C395 395.11 397.19 393.07 397.36 390.44L407.99 230.55C408.18 227.67 405.89 225.22 403 225.22Z" />
		</g>
		<g id="Layer">
			<path id="Layer" fill-rule="evenodd" class="shp8" d="M424 83.06C431.99 83.06 438.5 89.56 438.5 97.56L438.5 134.11C438.5 142.1 431.99 148.61 424 148.61L410.93 148.61L406.3 218.18C411.59 219.63 415.5 224.47 415.5 230.22C415.5 230.49 415.49 230.76 415.47 231.04L411.34 293.15C411.07 297.29 407.49 300.41 403.36 300.14C399.23 299.87 396.1 296.29 396.38 292.16L400.33 232.72L109.81 232.72L120.1 387.61L390.03 387.61L394.06 327.08C394.33 322.95 397.89 319.82 402.04 320.1C406.17 320.37 409.3 323.94 409.02 328.08L404.84 390.94C404.45 396.91 399.84 401.69 394.06 402.48L388.39 487.74C387.49 501.34 376.1 512 362.46 512L147.67 512C134.04 512 122.65 501.34 121.74 487.74L120.59 470.44C120.32 466.31 123.45 462.73 127.58 462.46C131.71 462.19 135.29 465.31 135.56 469.45L136.71 486.74C137.09 492.49 141.91 497 147.67 497L362.46 497C368.22 497 373.04 492.49 373.42 486.74L379.01 402.61L131.12 402.61L133.24 434.52C133.51 438.66 130.38 442.23 126.25 442.5C122.13 442.79 118.55 439.65 118.27 435.52L116.08 402.48C110.29 401.69 105.69 396.91 105.29 390.94L94.66 231.05C94.64 230.74 94.64 230.48 94.64 230.22C94.64 224.47 98.54 219.64 103.83 218.18L99.21 148.61L88 148.61C80 148.61 73.5 142.1 73.5 134.11L73.5 97.56C73.5 89.56 80 83.06 88 83.06L109.56 83.06L135.08 14.64C138.35 5.88 146.82 0 156.16 0L354.96 0C364.3 0 372.78 5.88 376.04 14.64L401.57 83.06L424 83.06ZM125.57 83.05L385.56 83.05L361.99 19.88C360.9 16.96 358.08 15 354.96 15L156.16 15C153.05 15 150.23 16.96 149.14 19.88L125.57 83.05ZM395.89 148.61L114.24 148.61L118.83 217.72L391.3 217.72L395.89 148.61ZM423.5 98.06L88.5 98.06L88.5 133.61C105.09 133.61 412.44 133.61 423.5 133.61L423.5 98.06Z" />
			<path id="Layer" fill-rule="evenodd" class="shp8" d="M199.09 310.17C199.09 279.3 224.2 254.19 255.07 254.19C285.93 254.19 311.05 279.3 311.05 310.17C311.05 341.03 285.93 366.15 255.07 366.15C224.2 366.15 199.09 341.03 199.09 310.17ZM255.07 269.19C232.47 269.19 214.09 287.57 214.09 310.17C214.09 332.76 232.47 351.15 255.07 351.15C277.66 351.15 296.05 332.76 296.05 310.17C296.05 287.57 277.66 269.19 255.07 269.19Z" />
		</g>
	</g>
	<path id="Layer" class="shp9" d="M303.2 309.66C303.11 336.01 281.79 357.3 255.57 357.22C229.36 357.13 208.17 335.7 208.26 309.35C208.35 283 229.67 261.7 255.88 261.79C282.1 261.87 303.28 283.31 303.2 309.66Z" />
	<path id="Layer" fill-rule="evenodd" class="shp10" d="M302.07 315.44C297.21 316.81 294.03 311.65 289.3 312.41L289.83 315.08C294.2 315.24 296.91 319.44 301.42 319.27C300.78 320.55 301.69 323.93 298.86 322.57C295.91 321.85 293.79 319.25 290.56 319.24C290.17 319.95 290.41 320.94 290.34 321.79C293.75 322.33 296.19 325.22 299.59 325.76C299.27 326.93 298.94 328.24 297.98 328.95C295.21 328.27 293.06 325.78 290.11 325.84L289.57 328.29C292.38 328.37 294.18 330.85 296.7 331.61C296.76 332.64 295.84 333.56 295.3 334.48C293.07 333.8 291.37 331.88 288.81 332.01C288.78 331.05 289.35 329.96 289.14 328.93C286.27 329.77 284.35 327.1 282.23 325.49C282.19 320.25 276.69 316.8 276.41 311.9C276.36 310.92 276.51 309.87 276.96 308.75C278.78 304.57 278.23 299.13 276.26 295.22C275.66 294.19 274.59 293.38 273.6 292.77C275.05 295.86 276.81 299.52 275.91 303.32C275.8 306.25 274.06 309.06 274.03 311.89C274.02 312.9 274.23 313.91 274.81 314.93C277.1 319.09 281.25 323.04 279.67 328.25C279.23 329.85 277.95 331.09 277.62 332.72C280.32 334.96 282.86 337.49 286.45 337.65C287.73 336.84 287.03 333.22 289.65 334.89L293.48 336.83C293.2 337.85 292.34 338.77 291.56 339.47C290.1 338.76 288.69 337.91 286.87 337.97C286.33 338.54 285.87 339.17 285.91 339.99C287.19 340.2 288.36 340.74 289.42 341.49C288.92 342.56 287.95 343.23 287.06 344.04L284.09 342.97C283.59 343.68 282.56 344.42 282.92 345.2C283.59 345.49 284.33 345.88 284.82 346.38C283.51 347.8 281.84 348.7 280.23 349.66C278.87 345.15 274.33 341.97 274.74 336.76L274.53 336.54C273.45 337.74 273.81 339.66 273.87 341.22C275.14 344.5 278.18 347.03 278.63 350.61C278.09 351.53 276.89 351.71 275.96 352.1C276.09 345.64 266.31 340.71 272.61 334.2C274.72 331 278.24 327.96 277.01 323.55C275.75 319.3 271.24 316.65 271.3 311.88L271.3 311.51C272.35 306.54 275.49 301.26 272.95 295.96C272.25 293.83 270.66 291.41 268.5 290.51C271.72 294.22 272.98 300.25 271.11 305.22C270.18 307.19 268.89 309.55 268.75 311.87L268.74 311.87C268.67 313.09 268.91 314.29 269.69 315.44C272.13 319.43 276.38 323.81 273.91 328.99C271.13 333.13 266.28 337.34 268.96 342.82C270.9 346.09 273.92 349.36 273.09 353.37L269.89 354.42C272.04 346.94 261.62 342.51 266.01 335.03C268.72 331.03 273.56 327.28 270.85 321.94C269.23 318.64 265.86 316.68 265.98 312.55L266.1 311.86C267.21 306.02 271.68 300.5 268.59 294.24C267.78 292.39 266.15 290.51 264.35 289.43L264.24 289.54C267.85 293.07 268.93 298.86 266.96 303.5C266.04 306.22 264.03 308.93 263.62 311.86C263.42 313.23 263.58 314.66 264.37 316.17C266.66 319.83 270.7 323.72 268.16 328.44C265.48 332.33 261.03 336.11 262.79 341.19C264.73 345.64 268.79 349.88 266.57 355.38L263.27 356.11C265.92 350.75 262 345.42 259.7 340.76C256.92 334.07 265.77 330.91 265.93 324.8C265.91 320.87 261.73 318.61 260.85 314.99C259.05 313.46 257.16 315.59 255 315.18C253.4 315.5 250.95 312.97 249.98 315.7C248.83 319.71 243.64 322.64 245.9 327.4C248.06 331.63 253.26 334.74 251.5 340.21C249.92 345.31 244.76 350.16 247.93 356.06C246.62 355.63 244.17 356.44 244.21 354.34C242.21 347.2 250.85 343.07 248.21 335.93C246.98 331.56 241.34 329.12 242.6 323.87C243.54 319.55 248.4 316.54 247.74 311.8C247.72 311.7 247.7 311.6 247.68 311.49C247.66 311.39 247.64 311.29 247.62 311.18C247.59 311.08 247.57 310.98 247.54 310.88C247.51 310.78 247.48 310.68 247.45 310.58C245.65 305.46 241.97 300.33 244.2 294.37C244.81 292.67 246.02 291.22 247.09 289.7C243.56 291.57 241.78 295.54 241.84 299.59C241.67 303.99 244.91 307.77 245.36 311.8C245.53 313.42 245.26 315.08 244.12 316.85C241.81 319.97 238.78 323.26 240.15 327.38C241.45 331.54 246.62 334.08 246.29 338.9C246.23 344.62 239.58 348.15 241.44 354.55L238.14 353.47C236.85 347.78 242.89 344.9 242.98 339.65C243.85 333.61 236.16 331.34 236.64 325.45C236.62 320.98 240.57 318.16 242.32 314.4C242.62 313.48 242.72 312.62 242.69 311.79C242.49 307.62 238.75 304.36 239.38 299.68C239.61 296.24 240.79 293.22 243.03 290.64C239.94 291.87 238.65 295.42 237.79 298.4C236.3 303.18 239.82 307.49 240.16 311.78C240.31 313.67 239.84 315.55 238.05 317.47C235.48 320.47 232.88 324.27 234.71 328.33C236.65 332.8 242.78 336.3 240.1 341.87C238.63 345.38 235.15 348.03 235.27 352.18C234.35 351.79 233.4 351.4 232.62 350.68C232.63 345.4 240.17 342.12 236.6 336.53C236.28 337.63 236.21 339.12 235.95 340.37C234.7 343.59 232.03 346.17 231.02 349.51C229.36 348.86 227.62 347.51 226.24 346.08L228.16 344.91C227.95 344.2 227.39 343.6 226.89 342.99C225.65 342.81 224.83 343.63 223.8 343.94C222.91 343.16 222.06 342.45 221.36 341.48C222 339.67 226.97 341.19 224.46 338.2C222.76 337.13 221.05 338.64 219.55 339.35L217.54 336.79C219.28 335.73 221.02 334.24 223.19 334.68C223.72 335.64 223.75 337.05 224.77 337.56C228.43 337.5 231.03 334.74 233.84 332.58C231.9 329.67 230.32 325.65 232.07 322.14C233.47 318.62 237.11 315.66 237.28 311.77C237.32 310.88 237.19 309.95 236.8 308.94C234.9 304 234.25 297.33 237.92 292.97C235.93 293.5 234.75 295.97 234.07 297.85C231.85 302.67 234.62 307.14 234.7 311.76C234.71 312.59 234.64 313.42 234.44 314.26C232.54 318.05 229.48 321.37 228.97 325.74C226.8 327.12 225.01 329.53 221.93 328.7C221.82 329.52 222.06 330.76 222.34 331.69C219.9 331.58 218.22 333.38 216.16 334.22C215.06 333.87 214.78 332.45 214.36 331.45C216.77 330.64 218.52 328.23 221.29 328.28C221.61 327.39 221.12 326.57 220.98 325.72C217.54 324.18 212.04 333.25 211.61 325.37C215.06 325.16 217.27 321.98 220.68 321.67L220.79 319.12C216.92 318.71 214.42 322.68 210.55 322.28L209.71 318.87C214.18 319.16 216.86 315.16 221.12 314.96C221.69 314.22 221.76 313.12 221.87 312.09C217.23 311.47 214.02 316.61 209.09 315.03C209.09 315.03 208.92 312.88 208.83 311.67L208.84 311.67C208.84 311.61 208.83 311.54 208.83 311.47C208.82 311.41 208.82 311.34 208.81 311.27C208.81 311.21 208.8 311.14 208.8 311.07C208.79 311 208.78 310.94 208.78 310.87C213.17 312.59 217.05 309.44 220.82 307.82C221.78 307.54 223.27 308.04 223.71 306.98C223.67 306.16 225.17 305.21 223.93 304.64C218.42 303.87 214.74 310.5 209.11 307.46L208.69 306.61C209.91 290.57 219.01 275.08 234.06 267.5C240.15 264.04 247.71 262.3 255.33 262.26C264.53 262.21 273.81 264.66 280.71 269.57C287.41 273.71 293.8 280.52 297.27 287.42C300.58 293.46 302.09 300.24 302.52 307.45C296.69 311.83 292.81 303.27 286.87 305.17C287.19 306.09 287.36 307.05 288.04 307.83C293.29 307.81 296.89 313.33 302.4 311.18L302.41 311.98C302.44 313.18 302.55 314.21 302.07 315.44ZM270.33 282.85C270.13 280.79 271.7 278.63 272.06 276.57C268.16 276.81 265.06 279.15 261.82 281.01C261.63 280.56 261.45 280.11 261.26 279.65C261.08 279.2 260.89 278.75 260.71 278.29C260.52 277.84 260.34 277.39 260.15 276.93C259.97 276.48 259.78 276.03 259.6 275.57L263.87 271.54L263.98 271L258.23 270.66C257.24 268.92 256.86 266.83 255.69 265.23C254.73 267.04 254.08 268.95 253.11 270.76L247.37 271.06L247.36 271.48L251.71 275.44C251.17 277.46 250.67 279.66 249.35 281.18C246.8 279.64 244.29 277.97 241.49 276.9C240.82 276.68 239.86 276.32 239.25 276.78C240.13 278.74 241.36 280.84 241.15 282.97C239.98 282.75 239.06 282 237.96 281.68C236.64 281.32 235.08 280.61 233.8 281.03C235.92 284.02 237.65 287.14 238.24 290.73C245.32 287.34 253.57 285.5 262.12 286.98C266.13 287.63 269.81 289.28 273.4 290.64C273.55 286.88 275.94 283.86 277.58 280.85C274.96 280.7 272.75 282.18 270.33 282.85ZM223.75 293.14C223.44 289.9 222.14 286.95 219.41 284.81C219.15 284.68 218.78 284.4 218.45 284.38C218.25 284.37 218.06 284.45 217.92 284.7C219.13 292.34 214.15 297.64 210.62 303.42C211.78 304.38 213.67 304.25 215.09 303.97C218.82 302.49 222.38 299.91 226.81 300.81C228.13 298.58 230.34 296.42 232.16 294.65C233.27 293.7 234.79 293.1 235.57 292C231.89 289.57 227.2 291.83 223.75 293.14ZM258.91 288.67C257.9 288.54 256.85 288.46 255.81 288.44C255.62 288.44 255.42 288.44 255.23 288.44C252.32 288.49 249.53 289.23 247.83 291.62C247.58 292.29 246.51 293.24 247.5 293.85C249.74 293.71 252.29 293.44 253.78 295.36C253.77 297.07 254.86 299.34 253.02 300.15C251.49 298.73 249.67 300.75 248.01 299.6C247.23 299.14 246.74 299.68 246.41 300.35C245.94 304.75 248.23 309.62 252.34 312.08C254 312.69 256.24 313.27 257.99 312.42C262.18 310.48 263.93 306.02 264.73 301.9C264.63 301.11 264.67 299.59 263.57 299.55C262.32 300.33 260.51 299.86 259.2 299.53C258.42 299.78 258.38 300.92 257.49 301.13L256.96 300.7C256.5 298.75 256.22 295.98 258.04 294.63C260.07 293.82 262.45 293.48 264.54 294.12C264.93 293.45 264.33 292.92 264.23 292.31C263.24 290.11 260.97 289.21 258.91 288.67ZM247.59 297.79C248.7 296.27 250.64 297.49 251.85 297.6L251.85 297.17C251.19 296.13 249.83 295.6 248.45 295.65C248.13 295.66 247.81 295.7 247.49 295.77C247.03 295.88 246.71 296.3 246.85 296.83C246.78 297.29 246.88 298.11 247.59 297.79ZM262.08 295.81C261.94 295.81 261.8 295.82 261.66 295.82C260.91 296.31 258.75 295.95 259.52 297.62C260.88 296.56 262.76 297.31 264.1 297.85C264.6 297.6 264.5 297.11 264.53 296.68C264.1 295.87 263.07 295.79 262.08 295.81ZM255.43 278.75C257.1 279.72 258.87 280.96 260.21 282.28L259.68 282.81C257.02 282.52 254.22 282.87 251.69 282.9C251.41 282.61 250.84 282.18 251.37 281.83L255.43 278.75ZM300.73 303.72C297.41 298.17 292.46 293.04 293.86 285.8C294.01 285.31 293.69 284.81 293.23 284.73C291.06 285.61 289.38 287.74 288.52 289.83C288.16 291.07 287.95 292.39 287.45 293.56C284.86 292.2 282.1 290.88 278.93 291.19C277.79 291.33 276.16 291.39 275.95 292.56C279.53 294.49 282.46 297.7 284.65 301.11C286.18 300.87 288.06 301.09 289.65 301.34C293.27 302.31 296.89 306.26 300.73 303.72ZM251.72 306.22C254.28 306.62 257.08 306.14 259.39 306.46C258.53 307.74 257.25 309.33 255.55 309.22C253.63 309.36 253.2 307.79 251.82 306.86L251.72 306.22ZM253.65 303.35C254.22 302.96 255.01 302.74 255.76 302.75C256.52 302.75 257.25 302.98 257.69 303.47C257.05 304.82 254.99 303.96 253.86 304.21C253.47 304.06 253.72 303.64 253.65 303.35Z" />
	<path id="Layer" class="shp11" d="M251.74 302.11L259.52 302.14L259.51 305.34L251.73 305.31L251.74 302.11Z" />
</svg>